G04 (created by PCBNEW (2013-08-23 BZR 4296)-product) date 9/8/2013 11:51:00 PM*
%MOIN*%
G04 Gerber Fmt 3.4, Leading zero omitted, Abs format*
%FSLAX34Y34*%
G01*
G70*
G90*
G04 APERTURE LIST*
%ADD10C,0.005906*%
%ADD11C,0.011811*%
G04 APERTURE END LIST*
G54D10*
G54D11*
X61049Y-25612D02*
X61077Y-25697D01*
X61077Y-25837D01*
X61049Y-25894D01*
X61020Y-25922D01*
X60964Y-25950D01*
X60908Y-25950D01*
X60852Y-25922D01*
X60824Y-25894D01*
X60795Y-25837D01*
X60767Y-25725D01*
X60739Y-25669D01*
X60711Y-25640D01*
X60655Y-25612D01*
X60599Y-25612D01*
X60542Y-25640D01*
X60514Y-25669D01*
X60486Y-25725D01*
X60486Y-25865D01*
X60514Y-25950D01*
X60683Y-26203D02*
X61274Y-26203D01*
X60711Y-26203D02*
X60683Y-26259D01*
X60683Y-26372D01*
X60711Y-26428D01*
X60739Y-26456D01*
X60795Y-26484D01*
X60964Y-26484D01*
X61020Y-26456D01*
X61049Y-26428D01*
X61077Y-26372D01*
X61077Y-26259D01*
X61049Y-26203D01*
X61077Y-26737D02*
X60683Y-26737D01*
X60486Y-26737D02*
X60514Y-26709D01*
X60542Y-26737D01*
X60514Y-26765D01*
X60486Y-26737D01*
X60542Y-26737D01*
X60683Y-27018D02*
X61077Y-27018D01*
X60739Y-27018D02*
X60711Y-27047D01*
X60683Y-27103D01*
X60683Y-27187D01*
X60711Y-27243D01*
X60767Y-27272D01*
X61077Y-27272D01*
X60683Y-27553D02*
X61077Y-27553D01*
X60739Y-27553D02*
X60711Y-27581D01*
X60683Y-27637D01*
X60683Y-27721D01*
X60711Y-27778D01*
X60767Y-27806D01*
X61077Y-27806D01*
X61077Y-28087D02*
X60683Y-28087D01*
X60486Y-28087D02*
X60514Y-28059D01*
X60542Y-28087D01*
X60514Y-28115D01*
X60486Y-28087D01*
X60542Y-28087D01*
X60683Y-28368D02*
X61077Y-28368D01*
X60739Y-28368D02*
X60711Y-28396D01*
X60683Y-28453D01*
X60683Y-28537D01*
X60711Y-28593D01*
X60767Y-28621D01*
X61077Y-28621D01*
X60683Y-29156D02*
X61161Y-29156D01*
X61217Y-29128D01*
X61245Y-29099D01*
X61274Y-29043D01*
X61274Y-28959D01*
X61245Y-28903D01*
X61049Y-29156D02*
X61077Y-29099D01*
X61077Y-28987D01*
X61049Y-28931D01*
X61020Y-28903D01*
X60964Y-28874D01*
X60795Y-28874D01*
X60739Y-28903D01*
X60711Y-28931D01*
X60683Y-28987D01*
X60683Y-29099D01*
X60711Y-29156D01*
X61077Y-30168D02*
X61077Y-29887D01*
X60486Y-29887D01*
X60767Y-30365D02*
X60767Y-30562D01*
X61077Y-30646D02*
X61077Y-30365D01*
X60486Y-30365D01*
X60486Y-30646D01*
X61077Y-30899D02*
X60486Y-30899D01*
X60486Y-31040D01*
X60514Y-31124D01*
X60570Y-31180D01*
X60627Y-31209D01*
X60739Y-31237D01*
X60824Y-31237D01*
X60936Y-31209D01*
X60992Y-31180D01*
X61049Y-31124D01*
X61077Y-31040D01*
X61077Y-30899D01*
X61993Y-26119D02*
X62022Y-26203D01*
X62022Y-26344D01*
X61993Y-26400D01*
X61965Y-26428D01*
X61909Y-26456D01*
X61853Y-26456D01*
X61797Y-26428D01*
X61768Y-26400D01*
X61740Y-26344D01*
X61712Y-26231D01*
X61684Y-26175D01*
X61656Y-26147D01*
X61600Y-26119D01*
X61543Y-26119D01*
X61487Y-26147D01*
X61459Y-26175D01*
X61431Y-26231D01*
X61431Y-26372D01*
X61459Y-26456D01*
X61993Y-26962D02*
X62022Y-26906D01*
X62022Y-26793D01*
X61993Y-26737D01*
X61965Y-26709D01*
X61909Y-26681D01*
X61740Y-26681D01*
X61684Y-26709D01*
X61656Y-26737D01*
X61628Y-26793D01*
X61628Y-26906D01*
X61656Y-26962D01*
X62022Y-27215D02*
X61431Y-27215D01*
X62022Y-27468D02*
X61712Y-27468D01*
X61656Y-27440D01*
X61628Y-27384D01*
X61628Y-27300D01*
X61656Y-27243D01*
X61684Y-27215D01*
X61993Y-27975D02*
X62022Y-27918D01*
X62022Y-27806D01*
X61993Y-27750D01*
X61937Y-27721D01*
X61712Y-27721D01*
X61656Y-27750D01*
X61628Y-27806D01*
X61628Y-27918D01*
X61656Y-27975D01*
X61712Y-28003D01*
X61768Y-28003D01*
X61825Y-27721D01*
X62022Y-28256D02*
X61628Y-28256D01*
X61684Y-28256D02*
X61656Y-28284D01*
X61628Y-28340D01*
X61628Y-28424D01*
X61656Y-28481D01*
X61712Y-28509D01*
X62022Y-28509D01*
X61712Y-28509D02*
X61656Y-28537D01*
X61628Y-28593D01*
X61628Y-28678D01*
X61656Y-28734D01*
X61712Y-28762D01*
X62022Y-28762D01*
X62022Y-29296D02*
X61712Y-29296D01*
X61656Y-29268D01*
X61628Y-29212D01*
X61628Y-29099D01*
X61656Y-29043D01*
X61993Y-29296D02*
X62022Y-29240D01*
X62022Y-29099D01*
X61993Y-29043D01*
X61937Y-29015D01*
X61881Y-29015D01*
X61825Y-29043D01*
X61797Y-29099D01*
X61797Y-29240D01*
X61768Y-29296D01*
X61628Y-29493D02*
X61628Y-29718D01*
X61431Y-29577D02*
X61937Y-29577D01*
X61993Y-29606D01*
X62022Y-29662D01*
X62022Y-29718D01*
X62022Y-29915D02*
X61628Y-29915D01*
X61431Y-29915D02*
X61459Y-29887D01*
X61487Y-29915D01*
X61459Y-29943D01*
X61431Y-29915D01*
X61487Y-29915D01*
X61993Y-30449D02*
X62022Y-30393D01*
X62022Y-30281D01*
X61993Y-30224D01*
X61965Y-30196D01*
X61909Y-30168D01*
X61740Y-30168D01*
X61684Y-30196D01*
X61656Y-30224D01*
X61628Y-30281D01*
X61628Y-30393D01*
X61656Y-30449D01*
X61965Y-30702D02*
X61993Y-30730D01*
X62022Y-30702D01*
X61993Y-30674D01*
X61965Y-30702D01*
X62022Y-30702D01*
X61656Y-30702D02*
X61684Y-30730D01*
X61712Y-30702D01*
X61684Y-30674D01*
X61656Y-30702D01*
X61712Y-30702D01*
X62376Y-25036D02*
X62966Y-25233D01*
X62376Y-25430D01*
X62938Y-25851D02*
X62966Y-25795D01*
X62966Y-25683D01*
X62938Y-25626D01*
X62882Y-25598D01*
X62657Y-25598D01*
X62601Y-25626D01*
X62573Y-25683D01*
X62573Y-25795D01*
X62601Y-25851D01*
X62657Y-25880D01*
X62713Y-25880D01*
X62770Y-25598D01*
X62966Y-26217D02*
X62938Y-26161D01*
X62882Y-26133D01*
X62376Y-26133D01*
X62966Y-26526D02*
X62938Y-26470D01*
X62882Y-26442D01*
X62376Y-26442D01*
X62966Y-26751D02*
X62573Y-26751D01*
X62629Y-26751D02*
X62601Y-26779D01*
X62573Y-26836D01*
X62573Y-26920D01*
X62601Y-26976D01*
X62657Y-27004D01*
X62966Y-27004D01*
X62657Y-27004D02*
X62601Y-27032D01*
X62573Y-27089D01*
X62573Y-27173D01*
X62601Y-27229D01*
X62657Y-27257D01*
X62966Y-27257D01*
X62966Y-27792D02*
X62657Y-27792D01*
X62601Y-27764D01*
X62573Y-27707D01*
X62573Y-27595D01*
X62601Y-27539D01*
X62938Y-27792D02*
X62966Y-27736D01*
X62966Y-27595D01*
X62938Y-27539D01*
X62882Y-27511D01*
X62826Y-27511D01*
X62770Y-27539D01*
X62741Y-27595D01*
X62741Y-27736D01*
X62713Y-27792D01*
X62573Y-28073D02*
X62966Y-28073D01*
X62629Y-28073D02*
X62601Y-28101D01*
X62573Y-28157D01*
X62573Y-28242D01*
X62601Y-28298D01*
X62657Y-28326D01*
X62966Y-28326D01*
X62966Y-29057D02*
X62573Y-29057D01*
X62629Y-29057D02*
X62601Y-29085D01*
X62573Y-29142D01*
X62573Y-29226D01*
X62601Y-29282D01*
X62657Y-29310D01*
X62966Y-29310D01*
X62657Y-29310D02*
X62601Y-29338D01*
X62573Y-29395D01*
X62573Y-29479D01*
X62601Y-29535D01*
X62657Y-29563D01*
X62966Y-29563D01*
X62966Y-29845D02*
X62376Y-29845D01*
X62741Y-29901D02*
X62966Y-30070D01*
X62573Y-30070D02*
X62798Y-29845D01*
X62966Y-30632D02*
X62966Y-30295D01*
X62966Y-30463D02*
X62376Y-30463D01*
X62460Y-30407D01*
X62516Y-30351D01*
X62545Y-30295D01*
X62376Y-31166D02*
X62376Y-30885D01*
X62657Y-30857D01*
X62629Y-30885D01*
X62601Y-30941D01*
X62601Y-31082D01*
X62629Y-31138D01*
X62657Y-31166D01*
X62713Y-31194D01*
X62854Y-31194D01*
X62910Y-31166D01*
X62938Y-31138D01*
X62966Y-31082D01*
X62966Y-30941D01*
X62938Y-30885D01*
X62910Y-30857D01*
X62432Y-31419D02*
X62404Y-31448D01*
X62376Y-31504D01*
X62376Y-31644D01*
X62404Y-31701D01*
X62432Y-31729D01*
X62488Y-31757D01*
X62545Y-31757D01*
X62629Y-31729D01*
X62966Y-31391D01*
X62966Y-31757D01*
M02*
