G04 (created by PCBNEW (2013-08-23 BZR 4296)-product) date 9/8/2013 11:51:00 PM*
%MOIN*%
G04 Gerber Fmt 3.4, Leading zero omitted, Abs format*
%FSLAX34Y34*%
G01*
G70*
G90*
G04 APERTURE LIST*
%ADD10C,0.005906*%
%ADD11C,0.055000*%
%ADD12C,0.060000*%
%ADD13C,0.066000*%
%ADD14R,0.090000X0.062000*%
%ADD15O,0.090000X0.062000*%
%ADD16R,0.062000X0.090000*%
%ADD17O,0.062000X0.090000*%
%ADD18R,0.055000X0.055000*%
%ADD19C,0.015000*%
%ADD20C,0.020000*%
G04 APERTURE END LIST*
G54D10*
G54D11*
X45520Y-24145D03*
X43520Y-24145D03*
X45520Y-21145D03*
X43520Y-21145D03*
G54D12*
X51540Y-26490D03*
X51540Y-30490D03*
X50465Y-19670D03*
X54465Y-19670D03*
X49580Y-30490D03*
X49580Y-26490D03*
X50550Y-30480D03*
X50550Y-26480D03*
X50465Y-18620D03*
X54465Y-18620D03*
X55425Y-27685D03*
X55425Y-31685D03*
G54D13*
X61000Y-31500D03*
X62000Y-31500D03*
X64500Y-26000D03*
X65500Y-26000D03*
X64500Y-19000D03*
X65500Y-19000D03*
X60500Y-14500D03*
X60500Y-13500D03*
X54000Y-12500D03*
X54000Y-11500D03*
X48000Y-14500D03*
X48000Y-13500D03*
X44500Y-19000D03*
X43500Y-19000D03*
X44500Y-26500D03*
X43500Y-26500D03*
X48500Y-32000D03*
X47500Y-32000D03*
X55000Y-33500D03*
X55000Y-34500D03*
G54D14*
X61500Y-24500D03*
G54D15*
X61500Y-23500D03*
X61500Y-22500D03*
X61500Y-21500D03*
X61500Y-20500D03*
X61500Y-19500D03*
X61500Y-18500D03*
X61500Y-17500D03*
X58500Y-17500D03*
X58500Y-18500D03*
X58500Y-19500D03*
X58500Y-20500D03*
X58500Y-21500D03*
X58500Y-22500D03*
X58500Y-23500D03*
X58500Y-24500D03*
G54D16*
X47500Y-24500D03*
G54D17*
X48500Y-24500D03*
X49500Y-24500D03*
X50500Y-24500D03*
X51500Y-24500D03*
X52500Y-24500D03*
X53500Y-24500D03*
X53500Y-21500D03*
X52500Y-21500D03*
X51500Y-21500D03*
X50500Y-21500D03*
X49500Y-21500D03*
X48500Y-21500D03*
X47500Y-21500D03*
G54D18*
X46230Y-29480D03*
G54D11*
X46230Y-26480D03*
X57285Y-20010D03*
X57285Y-21010D03*
G54D18*
X53805Y-27280D03*
G54D11*
X53805Y-28280D03*
G54D18*
X52585Y-29760D03*
G54D11*
X53585Y-29760D03*
G54D18*
X46910Y-19950D03*
G54D11*
X45910Y-19950D03*
G54D19*
X44500Y-26500D02*
X44500Y-29975D01*
X60690Y-22310D02*
X61500Y-21500D01*
X60690Y-25980D02*
X60690Y-22310D01*
X63175Y-28465D02*
X60690Y-25980D01*
X63175Y-31640D02*
X63175Y-28465D01*
X62060Y-32755D02*
X63175Y-31640D01*
X58505Y-32755D02*
X62060Y-32755D01*
X56010Y-35250D02*
X58505Y-32755D01*
X54780Y-35250D02*
X56010Y-35250D01*
X52905Y-33375D02*
X54780Y-35250D01*
X47900Y-33375D02*
X52905Y-33375D01*
X44500Y-29975D02*
X47900Y-33375D01*
X44500Y-19000D02*
X48935Y-19000D01*
X61000Y-19000D02*
X61500Y-18500D01*
X57880Y-19000D02*
X61000Y-19000D01*
X56695Y-17815D02*
X57880Y-19000D01*
X50120Y-17815D02*
X56695Y-17815D01*
X48935Y-19000D02*
X50120Y-17815D01*
X61500Y-24500D02*
X62420Y-24500D01*
X54000Y-14120D02*
X54000Y-12500D01*
X57875Y-17995D02*
X54000Y-14120D01*
X59495Y-17995D02*
X57875Y-17995D01*
X60750Y-16740D02*
X59495Y-17995D01*
X61970Y-16740D02*
X60750Y-16740D01*
X62350Y-17120D02*
X61970Y-16740D01*
X62350Y-24430D02*
X62350Y-17120D01*
X62420Y-24500D02*
X62350Y-24430D01*
X50465Y-19670D02*
X50465Y-21465D01*
X50465Y-21465D02*
X50500Y-21500D01*
X50465Y-19670D02*
X50465Y-20430D01*
X51000Y-26025D02*
X51540Y-26490D01*
X51000Y-20965D02*
X51000Y-26025D01*
X50465Y-20430D02*
X51000Y-20965D01*
G54D20*
X57285Y-20010D02*
X54810Y-20015D01*
X54810Y-20015D02*
X54465Y-19670D01*
G54D19*
X64500Y-26000D02*
X64500Y-25870D01*
X58500Y-16300D02*
X58500Y-17500D01*
X58610Y-16190D02*
X58500Y-16300D01*
X62565Y-16190D02*
X58610Y-16190D01*
X63910Y-17535D02*
X62565Y-16190D01*
X63910Y-25280D02*
X63910Y-17535D01*
X64500Y-25870D02*
X63910Y-25280D01*
X50465Y-18620D02*
X49990Y-18620D01*
X48500Y-20110D02*
X48500Y-21500D01*
X49990Y-18620D02*
X48500Y-20110D01*
X45520Y-21145D02*
X46660Y-21145D01*
X47750Y-20750D02*
X48500Y-21500D01*
X47055Y-20750D02*
X47750Y-20750D01*
X46660Y-21145D02*
X47055Y-20750D01*
X61000Y-31500D02*
X61000Y-26770D01*
X59790Y-19500D02*
X58500Y-19500D01*
X60285Y-19995D02*
X59790Y-19500D01*
X60285Y-26055D02*
X60285Y-19995D01*
X61000Y-26770D02*
X60285Y-26055D01*
X48500Y-24500D02*
X48500Y-24660D01*
X56760Y-24240D02*
X58500Y-22500D01*
X56760Y-29235D02*
X56760Y-24240D01*
X54922Y-30775D02*
X56760Y-29235D01*
X47100Y-31445D02*
X47550Y-31010D01*
X47550Y-31010D02*
X47934Y-31083D01*
X47934Y-31083D02*
X52190Y-31120D01*
X52190Y-31120D02*
X54922Y-30775D01*
X44770Y-29655D02*
X47100Y-31445D01*
X45126Y-25615D02*
X44770Y-29655D01*
X46956Y-25300D02*
X45126Y-25615D01*
X47670Y-25490D02*
X46956Y-25300D01*
X48500Y-24660D02*
X47670Y-25490D01*
M02*
