G04 (created by PCBNEW (2013-08-23 BZR 4296)-product) date 9/8/2013 11:51:00 PM*
%MOIN*%
G04 Gerber Fmt 3.4, Leading zero omitted, Abs format*
%FSLAX34Y34*%
G01*
G70*
G90*
G04 APERTURE LIST*
%ADD10C,0.005906*%
%ADD11C,0.055000*%
%ADD12C,0.060000*%
%ADD13C,0.066000*%
%ADD14R,0.090000X0.062000*%
%ADD15O,0.090000X0.062000*%
%ADD16R,0.062000X0.090000*%
%ADD17O,0.062000X0.090000*%
%ADD18R,0.055000X0.055000*%
%ADD19C,0.140000*%
G04 APERTURE END LIST*
G54D10*
G54D11*
X45520Y-24145D03*
X43520Y-24145D03*
X45520Y-21145D03*
X43520Y-21145D03*
G54D12*
X51540Y-26490D03*
X51540Y-30490D03*
X50465Y-19670D03*
X54465Y-19670D03*
X49580Y-30490D03*
X49580Y-26490D03*
X50550Y-30480D03*
X50550Y-26480D03*
X50465Y-18620D03*
X54465Y-18620D03*
X55425Y-27685D03*
X55425Y-31685D03*
G54D13*
X61000Y-31500D03*
X62000Y-31500D03*
X64500Y-26000D03*
X65500Y-26000D03*
X64500Y-19000D03*
X65500Y-19000D03*
X60500Y-14500D03*
X60500Y-13500D03*
X54000Y-12500D03*
X54000Y-11500D03*
X48000Y-14500D03*
X48000Y-13500D03*
X44500Y-19000D03*
X43500Y-19000D03*
X44500Y-26500D03*
X43500Y-26500D03*
X48500Y-32000D03*
X47500Y-32000D03*
X55000Y-33500D03*
X55000Y-34500D03*
G54D14*
X61500Y-24500D03*
G54D15*
X61500Y-23500D03*
X61500Y-22500D03*
X61500Y-21500D03*
X61500Y-20500D03*
X61500Y-19500D03*
X61500Y-18500D03*
X61500Y-17500D03*
X58500Y-17500D03*
X58500Y-18500D03*
X58500Y-19500D03*
X58500Y-20500D03*
X58500Y-21500D03*
X58500Y-22500D03*
X58500Y-23500D03*
X58500Y-24500D03*
G54D16*
X47500Y-24500D03*
G54D17*
X48500Y-24500D03*
X49500Y-24500D03*
X50500Y-24500D03*
X51500Y-24500D03*
X52500Y-24500D03*
X53500Y-24500D03*
X53500Y-21500D03*
X52500Y-21500D03*
X51500Y-21500D03*
X50500Y-21500D03*
X49500Y-21500D03*
X48500Y-21500D03*
X47500Y-21500D03*
G54D18*
X46230Y-29480D03*
G54D11*
X46230Y-26480D03*
X57285Y-20010D03*
X57285Y-21010D03*
G54D18*
X53805Y-27280D03*
G54D11*
X53805Y-28280D03*
G54D18*
X52585Y-29760D03*
G54D11*
X53585Y-29760D03*
G54D18*
X46910Y-19950D03*
G54D11*
X45910Y-19950D03*
G54D19*
X47900Y-27905D03*
X56695Y-22600D03*
X47895Y-17290D03*
M02*
