M48
INCH,TZ
T1C0.032
T2C0.042
T3C0.140
%
G90
G05
T1
X43500Y-19000
X43500Y-26500
X44500Y-19000
X44500Y-26500
X45910Y-19950
X46230Y-26480
X46230Y-29480
X46910Y-19950
X47500Y-21500
X47500Y-24500
X47500Y-32000
X48000Y-13500
X48000Y-14500
X48500Y-21500
X48500Y-24500
X48500Y-32000
X49500Y-21500
X49500Y-24500
X49580Y-26490
X49580Y-30490
X50465Y-18620
X50465Y-19670
X50500Y-21500
X50500Y-24500
X50550Y-26480
X50550Y-30480
X51500Y-21500
X51500Y-24500
X51540Y-26490
X51540Y-30490
X52500Y-21500
X52500Y-24500
X52585Y-29760
X53500Y-21500
X53500Y-24500
X53585Y-29760
X53805Y-27280
X53805Y-28280
X54000Y-11500
X54000Y-12500
X54465Y-18620
X54465Y-19670
X55000Y-33500
X55000Y-34500
X55425Y-27685
X55425Y-31685
X57285Y-20010
X57285Y-21010
X58500Y-17500
X58500Y-18500
X58500Y-19500
X58500Y-20500
X58500Y-21500
X58500Y-22500
X58500Y-23500
X58500Y-24500
X60500Y-13500
X60500Y-14500
X61000Y-31500
X61500Y-17500
X61500Y-18500
X61500Y-19500
X61500Y-20500
X61500Y-21500
X61500Y-22500
X61500Y-23500
X61500Y-24500
X62000Y-31500
X64500Y-19000
X64500Y-26000
X65500Y-19000
X65500Y-26000
T2
X43520Y-21145
X43520Y-24145
X45520Y-21145
X45520Y-24145
T3
X47895Y-17290
X47900Y-27905
X56695Y-22600
T0
M30
