%FSLAX34Y34*%
G04 Gerber Fmt 3.4, Leading zero omitted, Abs format*
G04 (created by PCBNEW (2013-11-12 BZR 4462)-product) date 11/16/2013 2:36:54 PM*
%MOIN*%
G01*
G70*
G90*
G04 APERTURE LIST*
%ADD10C,0.005906*%
%ADD11C,0.140000*%
%ADD12C,0.060000*%
%ADD13C,0.066000*%
%ADD14R,0.090000X0.062000*%
%ADD15O,0.090000X0.062000*%
%ADD16R,0.062000X0.090000*%
%ADD17O,0.062000X0.090000*%
%ADD18R,0.055000X0.055000*%
%ADD19C,0.055000*%
%ADD20C,0.065000*%
%ADD21C,0.020000*%
%ADD22C,0.015000*%
%ADD23C,0.010000*%
G04 APERTURE END LIST*
G54D10*
G54D11*
X47900Y-27905D03*
X56695Y-22600D03*
X47895Y-17290D03*
G54D12*
X51540Y-26490D03*
X51540Y-30490D03*
X50465Y-19670D03*
X54465Y-19670D03*
X49580Y-30490D03*
X49580Y-26490D03*
X50550Y-30480D03*
X50550Y-26480D03*
X50465Y-18620D03*
X54465Y-18620D03*
X55425Y-27685D03*
X55425Y-31685D03*
G54D13*
X61000Y-31500D03*
X62000Y-31500D03*
X64500Y-26000D03*
X65500Y-26000D03*
X64500Y-19000D03*
X65500Y-19000D03*
X60500Y-14500D03*
X60500Y-13500D03*
X54000Y-12500D03*
X54000Y-11500D03*
X48000Y-14500D03*
X48000Y-13500D03*
X44500Y-19000D03*
X43500Y-19000D03*
X44500Y-26500D03*
X43500Y-26500D03*
X48500Y-32000D03*
X47500Y-32000D03*
X55000Y-33500D03*
X55000Y-34500D03*
G54D14*
X61500Y-24500D03*
G54D15*
X61500Y-23500D03*
X61500Y-22500D03*
X61500Y-21500D03*
X61500Y-20500D03*
X61500Y-19500D03*
X61500Y-18500D03*
X61500Y-17500D03*
X58500Y-17500D03*
X58500Y-18500D03*
X58500Y-19500D03*
X58500Y-20500D03*
X58500Y-21500D03*
X58500Y-22500D03*
X58500Y-23500D03*
X58500Y-24500D03*
G54D16*
X47500Y-24500D03*
G54D17*
X48500Y-24500D03*
X49500Y-24500D03*
X50500Y-24500D03*
X51500Y-24500D03*
X52500Y-24500D03*
X53500Y-24500D03*
X53500Y-21500D03*
X52500Y-21500D03*
X51500Y-21500D03*
X50500Y-21500D03*
X49500Y-21500D03*
X48500Y-21500D03*
X47500Y-21500D03*
G54D18*
X46230Y-29480D03*
G54D19*
X46230Y-26480D03*
X57285Y-20010D03*
X57285Y-21010D03*
G54D18*
X53805Y-27280D03*
G54D19*
X53805Y-28280D03*
G54D18*
X52585Y-29760D03*
G54D19*
X53585Y-29760D03*
G54D18*
X46910Y-19950D03*
G54D19*
X45910Y-19950D03*
G54D20*
X45520Y-24145D03*
X43520Y-24145D03*
X45520Y-21145D03*
X43520Y-21145D03*
G54D21*
X43520Y-21145D02*
X43520Y-24145D01*
X53805Y-27280D02*
X53805Y-27125D01*
X51500Y-25820D02*
X51500Y-24500D01*
X53805Y-27125D02*
X51500Y-25820D01*
X49500Y-24500D02*
X49500Y-24705D01*
X50695Y-25305D02*
X51500Y-24500D01*
X50100Y-25305D02*
X50695Y-25305D01*
X49500Y-24705D02*
X50100Y-25305D01*
X50550Y-26480D02*
X49525Y-24525D01*
X49525Y-24525D02*
X49500Y-24500D01*
X48500Y-21500D02*
X48500Y-23500D01*
X48500Y-23500D02*
X49500Y-24500D01*
X61500Y-20500D02*
X62480Y-20500D01*
X60500Y-15315D02*
X60500Y-14500D01*
X61155Y-15970D02*
X60500Y-15315D01*
X62435Y-15970D02*
X61155Y-15970D01*
X62790Y-16325D02*
X62435Y-15970D01*
X62790Y-20190D02*
X62790Y-16325D01*
X62480Y-20500D02*
X62790Y-20190D01*
G54D22*
X62410Y-21000D02*
X61010Y-21000D01*
X64145Y-19000D02*
X63130Y-20015D01*
X63130Y-20015D02*
X63130Y-20280D01*
X63130Y-20280D02*
X62410Y-21000D01*
X60805Y-20780D02*
X60805Y-19510D01*
X60805Y-19510D02*
X60815Y-19500D01*
X61500Y-19500D02*
X60815Y-19500D01*
X64145Y-19000D02*
X64500Y-19000D01*
X60805Y-20795D02*
X60805Y-20780D01*
X61010Y-21000D02*
X60805Y-20795D01*
G54D21*
X53500Y-21500D02*
X53450Y-21500D01*
X46930Y-23930D02*
X47500Y-24500D01*
X46930Y-21100D02*
X46930Y-23930D01*
X47220Y-20810D02*
X46930Y-21100D01*
X52760Y-20810D02*
X47220Y-20810D01*
X53450Y-21500D02*
X52760Y-20810D01*
X55555Y-27445D02*
X55555Y-27365D01*
X52630Y-25785D02*
X52500Y-24500D01*
X55555Y-27365D02*
X52630Y-25785D01*
X50500Y-24500D02*
X50500Y-24490D01*
X51710Y-23710D02*
X52500Y-24500D01*
X51280Y-23710D02*
X51710Y-23710D01*
X50500Y-24490D02*
X51280Y-23710D01*
X49500Y-21500D02*
X49500Y-23500D01*
X49500Y-23500D02*
X50500Y-24500D01*
X46230Y-26480D02*
X49465Y-26605D01*
X49465Y-26605D02*
X49580Y-26490D01*
X52500Y-21500D02*
X51500Y-21500D01*
X51540Y-30490D02*
X52350Y-29995D01*
X52350Y-29995D02*
X52585Y-29760D01*
X51540Y-30490D02*
X50620Y-30550D01*
X50620Y-30550D02*
X50550Y-30480D01*
X49580Y-30490D02*
X50515Y-30445D01*
X50515Y-30445D02*
X50550Y-30480D01*
X48500Y-24500D02*
X48500Y-24730D01*
X45560Y-28735D02*
X46230Y-29480D01*
X45560Y-26170D02*
X45560Y-28735D01*
X47000Y-25775D02*
X45560Y-26170D01*
X48470Y-25765D02*
X47000Y-25775D01*
X48500Y-24730D02*
X48470Y-25765D01*
X58500Y-18500D02*
X58015Y-18500D01*
X54015Y-14500D02*
X48000Y-14500D01*
X58015Y-18500D02*
X54015Y-14500D01*
X55000Y-33500D02*
X55645Y-33500D01*
X63070Y-24070D02*
X61500Y-22500D01*
X63070Y-26075D02*
X63070Y-24070D01*
X55645Y-33500D02*
X63070Y-26075D01*
X48500Y-32000D02*
X48915Y-32000D01*
X61890Y-23500D02*
X61500Y-23500D01*
X62610Y-24220D02*
X61890Y-23500D01*
X62610Y-25965D02*
X62610Y-24220D01*
X58040Y-30535D02*
X62610Y-25965D01*
X53790Y-30535D02*
X58040Y-30535D01*
X52710Y-31615D02*
X53790Y-30535D01*
X49300Y-31615D02*
X52710Y-31615D01*
X48915Y-32000D02*
X49300Y-31615D01*
G54D22*
X45910Y-19950D02*
X45910Y-20755D01*
X45910Y-20755D02*
X45520Y-21145D01*
G54D21*
X45520Y-21145D02*
X45520Y-24145D01*
G54D22*
X47500Y-21500D02*
X47500Y-23310D01*
X45798Y-25773D02*
X45250Y-25940D01*
X45250Y-25940D02*
X45195Y-29545D01*
X45800Y-29921D02*
X48185Y-31325D01*
X45195Y-29545D02*
X45800Y-29921D01*
X48185Y-31325D02*
X52580Y-31325D01*
X52580Y-31325D02*
X53655Y-30250D01*
X53655Y-30250D02*
X57890Y-30250D01*
X57890Y-30250D02*
X58500Y-29640D01*
X58500Y-29640D02*
X58500Y-24500D01*
X47500Y-23310D02*
X48005Y-23815D01*
X48005Y-23815D02*
X48005Y-25165D01*
X48005Y-25165D02*
X47740Y-25430D01*
X47740Y-25430D02*
X46930Y-25430D01*
X46930Y-25430D02*
X45798Y-25773D01*
G54D10*
G36*
X66809Y-22222D02*
X66336Y-26161D01*
X66084Y-26716D01*
X66084Y-26088D01*
X66074Y-25858D01*
X66006Y-25694D01*
X65907Y-25663D01*
X65836Y-25733D01*
X65836Y-25592D01*
X65836Y-19407D01*
X65500Y-19070D01*
X65429Y-19141D01*
X65429Y-19000D01*
X65092Y-18663D01*
X65000Y-18692D01*
X64991Y-18671D01*
X64828Y-18508D01*
X64615Y-18420D01*
X64385Y-18419D01*
X64171Y-18508D01*
X64008Y-18671D01*
X63987Y-18721D01*
X63915Y-18770D01*
X63140Y-19545D01*
X63140Y-16325D01*
X63113Y-16191D01*
X63037Y-16077D01*
X62682Y-15722D01*
X62568Y-15646D01*
X62435Y-15620D01*
X61299Y-15620D01*
X61084Y-15404D01*
X61084Y-13588D01*
X61074Y-13358D01*
X61006Y-13194D01*
X60907Y-13163D01*
X60836Y-13233D01*
X60836Y-13092D01*
X60805Y-12993D01*
X60588Y-12915D01*
X60358Y-12925D01*
X60194Y-12993D01*
X60163Y-13092D01*
X60500Y-13429D01*
X60836Y-13092D01*
X60836Y-13233D01*
X60570Y-13500D01*
X60907Y-13836D01*
X61006Y-13805D01*
X61084Y-13588D01*
X61084Y-15404D01*
X60850Y-15170D01*
X60850Y-14970D01*
X60991Y-14828D01*
X61079Y-14615D01*
X61080Y-14385D01*
X60991Y-14171D01*
X60828Y-14008D01*
X60807Y-13999D01*
X60836Y-13907D01*
X60500Y-13570D01*
X60429Y-13641D01*
X60429Y-13500D01*
X60092Y-13163D01*
X59993Y-13194D01*
X59915Y-13411D01*
X59925Y-13641D01*
X59993Y-13805D01*
X60092Y-13836D01*
X60429Y-13500D01*
X60429Y-13641D01*
X60163Y-13907D01*
X60192Y-13999D01*
X60171Y-14008D01*
X60008Y-14171D01*
X59920Y-14384D01*
X59919Y-14614D01*
X60008Y-14828D01*
X60150Y-14970D01*
X60150Y-15315D01*
X60176Y-15448D01*
X60252Y-15562D01*
X60907Y-16217D01*
X61021Y-16293D01*
X61021Y-16293D01*
X61155Y-16320D01*
X62290Y-16320D01*
X62440Y-16469D01*
X62440Y-20045D01*
X62335Y-20150D01*
X62080Y-20150D01*
X62049Y-20104D01*
X61894Y-20000D01*
X62049Y-19895D01*
X62171Y-19714D01*
X62213Y-19500D01*
X62171Y-19285D01*
X62049Y-19104D01*
X61894Y-19000D01*
X62049Y-18895D01*
X62171Y-18714D01*
X62213Y-18500D01*
X62171Y-18285D01*
X62049Y-18104D01*
X61894Y-18000D01*
X61900Y-17998D01*
X62071Y-17860D01*
X62176Y-17668D01*
X62183Y-17636D01*
X62183Y-17363D01*
X62176Y-17331D01*
X62071Y-17139D01*
X61900Y-17001D01*
X61690Y-16940D01*
X61550Y-16940D01*
X61550Y-17450D01*
X62134Y-17450D01*
X62183Y-17363D01*
X62183Y-17636D01*
X62134Y-17550D01*
X61550Y-17550D01*
X61550Y-17557D01*
X61450Y-17557D01*
X61450Y-17550D01*
X61450Y-17450D01*
X61450Y-16940D01*
X61310Y-16940D01*
X61099Y-17001D01*
X60928Y-17139D01*
X60823Y-17331D01*
X60816Y-17363D01*
X60865Y-17450D01*
X61450Y-17450D01*
X61450Y-17550D01*
X60865Y-17550D01*
X60816Y-17636D01*
X60823Y-17668D01*
X60928Y-17860D01*
X61099Y-17998D01*
X61105Y-18000D01*
X60950Y-18104D01*
X60828Y-18285D01*
X60786Y-18500D01*
X60828Y-18714D01*
X60950Y-18895D01*
X61105Y-19000D01*
X60950Y-19104D01*
X60902Y-19175D01*
X60815Y-19175D01*
X60690Y-19199D01*
X60585Y-19270D01*
X60575Y-19280D01*
X60504Y-19385D01*
X60480Y-19510D01*
X60480Y-20780D01*
X60480Y-20795D01*
X60504Y-20919D01*
X60575Y-21024D01*
X60780Y-21229D01*
X60839Y-21269D01*
X60828Y-21285D01*
X60786Y-21500D01*
X60828Y-21714D01*
X60950Y-21895D01*
X61105Y-22000D01*
X60950Y-22104D01*
X60828Y-22285D01*
X60786Y-22500D01*
X60828Y-22714D01*
X60950Y-22895D01*
X61105Y-23000D01*
X60950Y-23104D01*
X60828Y-23285D01*
X60786Y-23500D01*
X60828Y-23714D01*
X60950Y-23895D01*
X61016Y-23940D01*
X61000Y-23940D01*
X60908Y-23978D01*
X60838Y-24048D01*
X60800Y-24140D01*
X60800Y-24239D01*
X60800Y-24859D01*
X60838Y-24951D01*
X60908Y-25021D01*
X61000Y-25060D01*
X61099Y-25060D01*
X61999Y-25060D01*
X62091Y-25021D01*
X62161Y-24951D01*
X62200Y-24859D01*
X62200Y-24760D01*
X62200Y-24304D01*
X62260Y-24364D01*
X62260Y-25820D01*
X58825Y-29255D01*
X58825Y-25025D01*
X58868Y-25017D01*
X59049Y-24895D01*
X59171Y-24714D01*
X59213Y-24500D01*
X59213Y-22500D01*
X59213Y-20500D01*
X59171Y-20285D01*
X59049Y-20104D01*
X58894Y-20000D01*
X59049Y-19895D01*
X59171Y-19714D01*
X59213Y-19500D01*
X59171Y-19285D01*
X59049Y-19104D01*
X58894Y-19000D01*
X59049Y-18895D01*
X59171Y-18714D01*
X59213Y-18500D01*
X59171Y-18285D01*
X59049Y-18104D01*
X58894Y-18000D01*
X59049Y-17895D01*
X59171Y-17714D01*
X59213Y-17500D01*
X59171Y-17285D01*
X59049Y-17104D01*
X58868Y-16982D01*
X58653Y-16940D01*
X58346Y-16940D01*
X58131Y-16982D01*
X57950Y-17104D01*
X57828Y-17285D01*
X57786Y-17500D01*
X57828Y-17714D01*
X57950Y-17895D01*
X58105Y-18000D01*
X58048Y-18038D01*
X54584Y-14574D01*
X54584Y-11588D01*
X54574Y-11358D01*
X54506Y-11194D01*
X54407Y-11163D01*
X54336Y-11233D01*
X54336Y-11092D01*
X54305Y-10993D01*
X54088Y-10915D01*
X53858Y-10925D01*
X53694Y-10993D01*
X53663Y-11092D01*
X54000Y-11429D01*
X54336Y-11092D01*
X54336Y-11233D01*
X54070Y-11500D01*
X54407Y-11836D01*
X54506Y-11805D01*
X54584Y-11588D01*
X54584Y-14574D01*
X54580Y-14570D01*
X54580Y-12385D01*
X54491Y-12171D01*
X54328Y-12008D01*
X54307Y-11999D01*
X54336Y-11907D01*
X54000Y-11570D01*
X53929Y-11641D01*
X53929Y-11500D01*
X53592Y-11163D01*
X53493Y-11194D01*
X53415Y-11411D01*
X53425Y-11641D01*
X53493Y-11805D01*
X53592Y-11836D01*
X53929Y-11500D01*
X53929Y-11641D01*
X53663Y-11907D01*
X53692Y-11999D01*
X53671Y-12008D01*
X53508Y-12171D01*
X53420Y-12384D01*
X53419Y-12614D01*
X53508Y-12828D01*
X53671Y-12991D01*
X53884Y-13079D01*
X54114Y-13080D01*
X54328Y-12991D01*
X54491Y-12828D01*
X54579Y-12615D01*
X54580Y-12385D01*
X54580Y-14570D01*
X54262Y-14252D01*
X54148Y-14176D01*
X54015Y-14150D01*
X48584Y-14150D01*
X48584Y-13588D01*
X48574Y-13358D01*
X48506Y-13194D01*
X48407Y-13163D01*
X48336Y-13233D01*
X48336Y-13092D01*
X48305Y-12993D01*
X48088Y-12915D01*
X47858Y-12925D01*
X47694Y-12993D01*
X47663Y-13092D01*
X48000Y-13429D01*
X48336Y-13092D01*
X48336Y-13233D01*
X48070Y-13500D01*
X48407Y-13836D01*
X48506Y-13805D01*
X48584Y-13588D01*
X48584Y-14150D01*
X48470Y-14150D01*
X48328Y-14008D01*
X48307Y-13999D01*
X48336Y-13907D01*
X48000Y-13570D01*
X47929Y-13641D01*
X47929Y-13500D01*
X47592Y-13163D01*
X47493Y-13194D01*
X47415Y-13411D01*
X47425Y-13641D01*
X47493Y-13805D01*
X47592Y-13836D01*
X47929Y-13500D01*
X47929Y-13641D01*
X47663Y-13907D01*
X47692Y-13999D01*
X47671Y-14008D01*
X47508Y-14171D01*
X47420Y-14384D01*
X47419Y-14614D01*
X47508Y-14828D01*
X47671Y-14991D01*
X47884Y-15079D01*
X48114Y-15080D01*
X48328Y-14991D01*
X48470Y-14850D01*
X53870Y-14850D01*
X57767Y-18747D01*
X57881Y-18823D01*
X57881Y-18823D01*
X57904Y-18828D01*
X57950Y-18895D01*
X58105Y-19000D01*
X57950Y-19104D01*
X57828Y-19285D01*
X57786Y-19500D01*
X57828Y-19714D01*
X57950Y-19895D01*
X58105Y-20000D01*
X57950Y-20104D01*
X57828Y-20285D01*
X57810Y-20380D01*
X57810Y-19906D01*
X57730Y-19713D01*
X57582Y-19565D01*
X57389Y-19485D01*
X57181Y-19484D01*
X56988Y-19564D01*
X56840Y-19712D01*
X56760Y-19905D01*
X56759Y-20113D01*
X56839Y-20307D01*
X56987Y-20454D01*
X57113Y-20507D01*
X57012Y-20549D01*
X56987Y-20642D01*
X57285Y-20939D01*
X57582Y-20642D01*
X57557Y-20549D01*
X57447Y-20510D01*
X57582Y-20455D01*
X57729Y-20307D01*
X57809Y-20114D01*
X57810Y-19906D01*
X57810Y-20380D01*
X57786Y-20500D01*
X57828Y-20714D01*
X57950Y-20895D01*
X58105Y-20999D01*
X58099Y-21001D01*
X57928Y-21139D01*
X57823Y-21331D01*
X57816Y-21363D01*
X57865Y-21450D01*
X58450Y-21450D01*
X58450Y-21442D01*
X58550Y-21442D01*
X58550Y-21450D01*
X59134Y-21450D01*
X59183Y-21363D01*
X59176Y-21331D01*
X59071Y-21139D01*
X58900Y-21001D01*
X58894Y-20999D01*
X59049Y-20895D01*
X59171Y-20714D01*
X59213Y-20500D01*
X59213Y-22500D01*
X59171Y-22285D01*
X59049Y-22104D01*
X58894Y-22000D01*
X58900Y-21998D01*
X59071Y-21860D01*
X59176Y-21668D01*
X59183Y-21636D01*
X59134Y-21550D01*
X58550Y-21550D01*
X58550Y-21557D01*
X58450Y-21557D01*
X58450Y-21550D01*
X57865Y-21550D01*
X57816Y-21636D01*
X57823Y-21668D01*
X57928Y-21860D01*
X58099Y-21998D01*
X58105Y-22000D01*
X57950Y-22104D01*
X57828Y-22285D01*
X57814Y-22356D01*
X57814Y-21085D01*
X57803Y-20877D01*
X57745Y-20737D01*
X57652Y-20712D01*
X57355Y-21010D01*
X57652Y-21307D01*
X57745Y-21282D01*
X57814Y-21085D01*
X57814Y-22356D01*
X57786Y-22500D01*
X57828Y-22714D01*
X57950Y-22895D01*
X58105Y-22999D01*
X58099Y-23001D01*
X57928Y-23139D01*
X57823Y-23331D01*
X57816Y-23363D01*
X57865Y-23450D01*
X58450Y-23450D01*
X58450Y-23442D01*
X58550Y-23442D01*
X58550Y-23450D01*
X59134Y-23450D01*
X59183Y-23363D01*
X59176Y-23331D01*
X59071Y-23139D01*
X58900Y-23001D01*
X58894Y-22999D01*
X59049Y-22895D01*
X59171Y-22714D01*
X59213Y-22500D01*
X59213Y-24500D01*
X59171Y-24285D01*
X59049Y-24104D01*
X58894Y-24000D01*
X58900Y-23998D01*
X59071Y-23860D01*
X59176Y-23668D01*
X59183Y-23636D01*
X59134Y-23550D01*
X58550Y-23550D01*
X58550Y-23557D01*
X58450Y-23557D01*
X58450Y-23550D01*
X57865Y-23550D01*
X57816Y-23636D01*
X57823Y-23668D01*
X57928Y-23860D01*
X58099Y-23998D01*
X58105Y-24000D01*
X57950Y-24104D01*
X57828Y-24285D01*
X57786Y-24500D01*
X57828Y-24714D01*
X57950Y-24895D01*
X58131Y-25017D01*
X58175Y-25025D01*
X58175Y-29505D01*
X57755Y-29925D01*
X57645Y-29925D01*
X57645Y-22411D01*
X57582Y-22259D01*
X57582Y-21377D01*
X57285Y-21080D01*
X57214Y-21151D01*
X57214Y-21010D01*
X56917Y-20712D01*
X56824Y-20737D01*
X56755Y-20934D01*
X56766Y-21142D01*
X56824Y-21282D01*
X56917Y-21307D01*
X57214Y-21010D01*
X57214Y-21151D01*
X56987Y-21377D01*
X57012Y-21470D01*
X57209Y-21539D01*
X57417Y-21528D01*
X57557Y-21470D01*
X57582Y-21377D01*
X57582Y-22259D01*
X57500Y-22062D01*
X57233Y-21795D01*
X56884Y-21650D01*
X56506Y-21649D01*
X56157Y-21794D01*
X55890Y-22061D01*
X55745Y-22410D01*
X55744Y-22788D01*
X55889Y-23137D01*
X56156Y-23404D01*
X56505Y-23549D01*
X56883Y-23550D01*
X57232Y-23405D01*
X57499Y-23138D01*
X57644Y-22789D01*
X57645Y-22411D01*
X57645Y-29925D01*
X54334Y-29925D01*
X54334Y-28355D01*
X54323Y-28147D01*
X54265Y-28007D01*
X54172Y-27982D01*
X53875Y-28280D01*
X54172Y-28577D01*
X54265Y-28552D01*
X54334Y-28355D01*
X54334Y-29925D01*
X54083Y-29925D01*
X54114Y-29835D01*
X54103Y-29627D01*
X54102Y-29623D01*
X54102Y-28647D01*
X53805Y-28350D01*
X53734Y-28421D01*
X53734Y-28280D01*
X53437Y-27982D01*
X53344Y-28007D01*
X53275Y-28204D01*
X53286Y-28412D01*
X53344Y-28552D01*
X53437Y-28577D01*
X53734Y-28280D01*
X53734Y-28421D01*
X53507Y-28647D01*
X53532Y-28740D01*
X53729Y-28809D01*
X53937Y-28798D01*
X54077Y-28740D01*
X54102Y-28647D01*
X54102Y-29623D01*
X54045Y-29487D01*
X53952Y-29462D01*
X53882Y-29533D01*
X53882Y-29392D01*
X53857Y-29299D01*
X53660Y-29230D01*
X53452Y-29241D01*
X53312Y-29299D01*
X53287Y-29392D01*
X53585Y-29689D01*
X53882Y-29392D01*
X53882Y-29533D01*
X53655Y-29760D01*
X53661Y-29765D01*
X53590Y-29836D01*
X53585Y-29830D01*
X53287Y-30127D01*
X53294Y-30151D01*
X52445Y-31000D01*
X51745Y-31000D01*
X51851Y-30956D01*
X52005Y-30801D01*
X52089Y-30599D01*
X52089Y-30564D01*
X52532Y-30293D01*
X52541Y-30285D01*
X52909Y-30285D01*
X53001Y-30246D01*
X53071Y-30176D01*
X53110Y-30084D01*
X53110Y-29997D01*
X53124Y-30032D01*
X53217Y-30057D01*
X53514Y-29760D01*
X53217Y-29462D01*
X53124Y-29487D01*
X53110Y-29528D01*
X53110Y-29435D01*
X53071Y-29343D01*
X53001Y-29273D01*
X52909Y-29235D01*
X52810Y-29235D01*
X52260Y-29235D01*
X52168Y-29273D01*
X52098Y-29343D01*
X52060Y-29435D01*
X52060Y-29534D01*
X52060Y-29762D01*
X51720Y-29969D01*
X51649Y-29940D01*
X51431Y-29939D01*
X51228Y-30023D01*
X51083Y-30169D01*
X51018Y-30173D01*
X51016Y-30168D01*
X50861Y-30014D01*
X50659Y-29930D01*
X50441Y-29929D01*
X50238Y-30013D01*
X50139Y-30112D01*
X49987Y-30119D01*
X49891Y-30024D01*
X49689Y-29940D01*
X49471Y-29939D01*
X49268Y-30023D01*
X49114Y-30178D01*
X49030Y-30380D01*
X49029Y-30598D01*
X49113Y-30801D01*
X49268Y-30955D01*
X49374Y-31000D01*
X48850Y-31000D01*
X48850Y-27716D01*
X48705Y-27367D01*
X48438Y-27100D01*
X48089Y-26955D01*
X47711Y-26954D01*
X47362Y-27099D01*
X47095Y-27366D01*
X46950Y-27715D01*
X46949Y-28093D01*
X47094Y-28442D01*
X47361Y-28709D01*
X47710Y-28854D01*
X48088Y-28855D01*
X48437Y-28710D01*
X48704Y-28443D01*
X48849Y-28094D01*
X48850Y-27716D01*
X48850Y-31000D01*
X48273Y-31000D01*
X46571Y-29998D01*
X46646Y-29966D01*
X46716Y-29896D01*
X46755Y-29804D01*
X46755Y-29705D01*
X46755Y-29155D01*
X46716Y-29063D01*
X46646Y-28993D01*
X46554Y-28955D01*
X46455Y-28955D01*
X46228Y-28955D01*
X45910Y-28600D01*
X45910Y-26902D01*
X45932Y-26924D01*
X46125Y-27004D01*
X46333Y-27005D01*
X46527Y-26925D01*
X46607Y-26844D01*
X49259Y-26947D01*
X49268Y-26955D01*
X49470Y-27039D01*
X49688Y-27040D01*
X49891Y-26956D01*
X50045Y-26801D01*
X50067Y-26751D01*
X50083Y-26791D01*
X50238Y-26945D01*
X50440Y-27029D01*
X50658Y-27030D01*
X50861Y-26946D01*
X51015Y-26791D01*
X51042Y-26727D01*
X51073Y-26801D01*
X51228Y-26955D01*
X51430Y-27039D01*
X51648Y-27040D01*
X51851Y-26956D01*
X52005Y-26801D01*
X52089Y-26599D01*
X52089Y-26556D01*
X53280Y-27229D01*
X53280Y-27604D01*
X53318Y-27696D01*
X53388Y-27766D01*
X53480Y-27805D01*
X53567Y-27805D01*
X53532Y-27819D01*
X53507Y-27912D01*
X53805Y-28209D01*
X54102Y-27912D01*
X54077Y-27819D01*
X54036Y-27805D01*
X54129Y-27805D01*
X54221Y-27766D01*
X54291Y-27696D01*
X54330Y-27604D01*
X54330Y-27505D01*
X54330Y-27101D01*
X54936Y-27428D01*
X54875Y-27575D01*
X54874Y-27793D01*
X54958Y-27996D01*
X55113Y-28150D01*
X55315Y-28234D01*
X55533Y-28235D01*
X55736Y-28151D01*
X55890Y-27996D01*
X55974Y-27794D01*
X55975Y-27576D01*
X55905Y-27406D01*
X55905Y-27365D01*
X55895Y-27315D01*
X55890Y-27264D01*
X55881Y-27248D01*
X55878Y-27231D01*
X55850Y-27188D01*
X55826Y-27144D01*
X55812Y-27132D01*
X55802Y-27117D01*
X55760Y-27089D01*
X55721Y-27057D01*
X55019Y-26678D01*
X55019Y-18701D01*
X55008Y-18483D01*
X54946Y-18332D01*
X54850Y-18304D01*
X54780Y-18375D01*
X54780Y-18234D01*
X54752Y-18138D01*
X54546Y-18065D01*
X54328Y-18076D01*
X54177Y-18138D01*
X54149Y-18234D01*
X54465Y-18549D01*
X54780Y-18234D01*
X54780Y-18375D01*
X54535Y-18620D01*
X54850Y-18935D01*
X54946Y-18907D01*
X55019Y-18701D01*
X55019Y-26678D01*
X55015Y-26675D01*
X55015Y-19561D01*
X54931Y-19358D01*
X54776Y-19204D01*
X54641Y-19147D01*
X54752Y-19101D01*
X54780Y-19005D01*
X54465Y-18690D01*
X54394Y-18761D01*
X54394Y-18620D01*
X54079Y-18304D01*
X53983Y-18332D01*
X53910Y-18538D01*
X53921Y-18756D01*
X53983Y-18907D01*
X54079Y-18935D01*
X54394Y-18620D01*
X54394Y-18761D01*
X54149Y-19005D01*
X54177Y-19101D01*
X54297Y-19144D01*
X54153Y-19203D01*
X53999Y-19358D01*
X53915Y-19560D01*
X53914Y-19778D01*
X53998Y-19981D01*
X54153Y-20135D01*
X54355Y-20219D01*
X54573Y-20220D01*
X54776Y-20136D01*
X54930Y-19981D01*
X55014Y-19779D01*
X55015Y-19561D01*
X55015Y-26675D01*
X54060Y-26159D01*
X54060Y-24690D01*
X54060Y-24550D01*
X54060Y-24450D01*
X54060Y-24310D01*
X53998Y-24099D01*
X53860Y-23928D01*
X53668Y-23823D01*
X53636Y-23816D01*
X53550Y-23865D01*
X53550Y-24450D01*
X54060Y-24450D01*
X54060Y-24550D01*
X53550Y-24550D01*
X53550Y-25134D01*
X53636Y-25183D01*
X53668Y-25176D01*
X53860Y-25071D01*
X53998Y-24900D01*
X54060Y-24690D01*
X54060Y-26159D01*
X52959Y-25565D01*
X52905Y-25034D01*
X52999Y-24894D01*
X53001Y-24900D01*
X53139Y-25071D01*
X53331Y-25176D01*
X53363Y-25183D01*
X53450Y-25134D01*
X53450Y-24550D01*
X53442Y-24550D01*
X53442Y-24450D01*
X53450Y-24450D01*
X53450Y-23865D01*
X53363Y-23816D01*
X53331Y-23823D01*
X53139Y-23928D01*
X53001Y-24099D01*
X52999Y-24105D01*
X52895Y-23950D01*
X52714Y-23828D01*
X52500Y-23786D01*
X52317Y-23822D01*
X51957Y-23462D01*
X51843Y-23386D01*
X51710Y-23360D01*
X51280Y-23360D01*
X51146Y-23386D01*
X51032Y-23462D01*
X50674Y-23820D01*
X50500Y-23786D01*
X50317Y-23822D01*
X49850Y-23355D01*
X49850Y-22080D01*
X49895Y-22049D01*
X50000Y-21894D01*
X50104Y-22049D01*
X50285Y-22171D01*
X50500Y-22213D01*
X50714Y-22171D01*
X50895Y-22049D01*
X51000Y-21894D01*
X51104Y-22049D01*
X51285Y-22171D01*
X51500Y-22213D01*
X51714Y-22171D01*
X51895Y-22049D01*
X52000Y-21894D01*
X52104Y-22049D01*
X52285Y-22171D01*
X52500Y-22213D01*
X52714Y-22171D01*
X52895Y-22049D01*
X53000Y-21894D01*
X53104Y-22049D01*
X53285Y-22171D01*
X53500Y-22213D01*
X53714Y-22171D01*
X53895Y-22049D01*
X54017Y-21868D01*
X54060Y-21653D01*
X54060Y-21346D01*
X54017Y-21131D01*
X53895Y-20950D01*
X53714Y-20828D01*
X53500Y-20786D01*
X53285Y-20828D01*
X53278Y-20833D01*
X53007Y-20562D01*
X52893Y-20486D01*
X52760Y-20460D01*
X51015Y-20460D01*
X51015Y-19561D01*
X50931Y-19358D01*
X50776Y-19204D01*
X50634Y-19144D01*
X50776Y-19086D01*
X50930Y-18931D01*
X51014Y-18729D01*
X51015Y-18511D01*
X50931Y-18308D01*
X50776Y-18154D01*
X50574Y-18070D01*
X50356Y-18069D01*
X50153Y-18153D01*
X49999Y-18308D01*
X49915Y-18510D01*
X49914Y-18728D01*
X49998Y-18931D01*
X50153Y-19085D01*
X50295Y-19145D01*
X50153Y-19203D01*
X49999Y-19358D01*
X49915Y-19560D01*
X49914Y-19778D01*
X49998Y-19981D01*
X50153Y-20135D01*
X50355Y-20219D01*
X50573Y-20220D01*
X50776Y-20136D01*
X50930Y-19981D01*
X51014Y-19779D01*
X51015Y-19561D01*
X51015Y-20460D01*
X48845Y-20460D01*
X48845Y-17101D01*
X48700Y-16752D01*
X48433Y-16485D01*
X48084Y-16340D01*
X47706Y-16339D01*
X47357Y-16484D01*
X47090Y-16751D01*
X46945Y-17100D01*
X46944Y-17478D01*
X47089Y-17827D01*
X47356Y-18094D01*
X47705Y-18239D01*
X48083Y-18240D01*
X48432Y-18095D01*
X48699Y-17828D01*
X48844Y-17479D01*
X48845Y-17101D01*
X48845Y-20460D01*
X47270Y-20460D01*
X47326Y-20436D01*
X47396Y-20366D01*
X47435Y-20274D01*
X47435Y-20175D01*
X47435Y-20062D01*
X47435Y-19837D01*
X47435Y-19724D01*
X47435Y-19625D01*
X47396Y-19533D01*
X47326Y-19463D01*
X47234Y-19425D01*
X47022Y-19425D01*
X46960Y-19487D01*
X46960Y-19900D01*
X47372Y-19900D01*
X47435Y-19837D01*
X47435Y-20062D01*
X47372Y-20000D01*
X46960Y-20000D01*
X46960Y-20412D01*
X47022Y-20475D01*
X47144Y-20475D01*
X47086Y-20486D01*
X46972Y-20562D01*
X46860Y-20675D01*
X46860Y-20412D01*
X46860Y-20000D01*
X46852Y-20000D01*
X46852Y-19900D01*
X46860Y-19900D01*
X46860Y-19487D01*
X46797Y-19425D01*
X46585Y-19425D01*
X46493Y-19463D01*
X46423Y-19533D01*
X46385Y-19625D01*
X46385Y-19724D01*
X46385Y-19724D01*
X46355Y-19653D01*
X46207Y-19505D01*
X46014Y-19425D01*
X45806Y-19424D01*
X45613Y-19504D01*
X45465Y-19652D01*
X45385Y-19845D01*
X45384Y-20053D01*
X45464Y-20247D01*
X45585Y-20367D01*
X45585Y-20570D01*
X45406Y-20569D01*
X45194Y-20657D01*
X45080Y-20771D01*
X45080Y-18885D01*
X44991Y-18671D01*
X44828Y-18508D01*
X44615Y-18420D01*
X44385Y-18419D01*
X44171Y-18508D01*
X44008Y-18671D01*
X43999Y-18692D01*
X43907Y-18663D01*
X43836Y-18733D01*
X43570Y-19000D01*
X43907Y-19336D01*
X43999Y-19307D01*
X44008Y-19328D01*
X44171Y-19491D01*
X44384Y-19579D01*
X44614Y-19580D01*
X44828Y-19491D01*
X44991Y-19328D01*
X45079Y-19115D01*
X45080Y-18885D01*
X45080Y-20771D01*
X45032Y-20818D01*
X44945Y-21030D01*
X44944Y-21258D01*
X45032Y-21470D01*
X45170Y-21608D01*
X45170Y-23681D01*
X45032Y-23818D01*
X44945Y-24030D01*
X44944Y-24258D01*
X45032Y-24470D01*
X45193Y-24632D01*
X45405Y-24719D01*
X45633Y-24720D01*
X45845Y-24632D01*
X46007Y-24471D01*
X46094Y-24259D01*
X46095Y-24031D01*
X46007Y-23819D01*
X45870Y-23681D01*
X45870Y-21608D01*
X46007Y-21471D01*
X46094Y-21259D01*
X46095Y-21031D01*
X46094Y-21029D01*
X46139Y-20984D01*
X46210Y-20879D01*
X46210Y-20879D01*
X46235Y-20755D01*
X46235Y-20755D01*
X46235Y-20754D01*
X46235Y-20367D01*
X46354Y-20247D01*
X46385Y-20175D01*
X46385Y-20175D01*
X46385Y-20274D01*
X46423Y-20366D01*
X46493Y-20436D01*
X46585Y-20475D01*
X46797Y-20475D01*
X46860Y-20412D01*
X46860Y-20675D01*
X46682Y-20852D01*
X46606Y-20966D01*
X46580Y-21100D01*
X46580Y-23930D01*
X46606Y-24063D01*
X46682Y-24177D01*
X46940Y-24434D01*
X46940Y-24999D01*
X46978Y-25091D01*
X46991Y-25105D01*
X46930Y-25105D01*
X46883Y-25114D01*
X46835Y-25119D01*
X45704Y-25462D01*
X45704Y-25462D01*
X45155Y-25629D01*
X45143Y-25635D01*
X45130Y-25637D01*
X45088Y-25665D01*
X45043Y-25688D01*
X45035Y-25699D01*
X45023Y-25706D01*
X44995Y-25748D01*
X44963Y-25786D01*
X44959Y-25799D01*
X44951Y-25811D01*
X44941Y-25860D01*
X44926Y-25908D01*
X44927Y-25921D01*
X44925Y-25935D01*
X44922Y-26102D01*
X44828Y-26008D01*
X44615Y-25920D01*
X44385Y-25919D01*
X44171Y-26008D01*
X44095Y-26084D01*
X44095Y-24031D01*
X44007Y-23819D01*
X43870Y-23681D01*
X43870Y-21608D01*
X44007Y-21471D01*
X44094Y-21259D01*
X44095Y-21031D01*
X44007Y-20819D01*
X43846Y-20657D01*
X43836Y-20654D01*
X43836Y-19407D01*
X43500Y-19070D01*
X43163Y-19407D01*
X43194Y-19506D01*
X43411Y-19584D01*
X43641Y-19574D01*
X43805Y-19506D01*
X43836Y-19407D01*
X43836Y-20654D01*
X43634Y-20570D01*
X43406Y-20569D01*
X43194Y-20657D01*
X43032Y-20818D01*
X42945Y-21030D01*
X42944Y-21258D01*
X43032Y-21470D01*
X43170Y-21608D01*
X43170Y-23681D01*
X43032Y-23818D01*
X42945Y-24030D01*
X42944Y-24258D01*
X43032Y-24470D01*
X43193Y-24632D01*
X43405Y-24719D01*
X43633Y-24720D01*
X43845Y-24632D01*
X44007Y-24471D01*
X44094Y-24259D01*
X44095Y-24031D01*
X44095Y-26084D01*
X44008Y-26171D01*
X43999Y-26192D01*
X43907Y-26163D01*
X43836Y-26233D01*
X43836Y-26092D01*
X43805Y-25993D01*
X43588Y-25915D01*
X43358Y-25925D01*
X43194Y-25993D01*
X43163Y-26092D01*
X43500Y-26429D01*
X43836Y-26092D01*
X43836Y-26233D01*
X43570Y-26500D01*
X43907Y-26836D01*
X43999Y-26807D01*
X44008Y-26828D01*
X44171Y-26991D01*
X44384Y-27079D01*
X44614Y-27080D01*
X44828Y-26991D01*
X44910Y-26910D01*
X44870Y-29540D01*
X44877Y-29579D01*
X44878Y-29618D01*
X44888Y-29640D01*
X44892Y-29664D01*
X44914Y-29698D01*
X44930Y-29734D01*
X44948Y-29750D01*
X44961Y-29771D01*
X44994Y-29793D01*
X45023Y-29820D01*
X45628Y-30197D01*
X45632Y-30198D01*
X45635Y-30201D01*
X48020Y-31605D01*
X48041Y-31612D01*
X48056Y-31622D01*
X48008Y-31671D01*
X47999Y-31692D01*
X47907Y-31663D01*
X47836Y-31733D01*
X47836Y-31592D01*
X47805Y-31493D01*
X47588Y-31415D01*
X47358Y-31425D01*
X47194Y-31493D01*
X47163Y-31592D01*
X47500Y-31929D01*
X47836Y-31592D01*
X47836Y-31733D01*
X47570Y-32000D01*
X47907Y-32336D01*
X47999Y-32307D01*
X48008Y-32328D01*
X48171Y-32491D01*
X48384Y-32579D01*
X48614Y-32580D01*
X48828Y-32491D01*
X48984Y-32336D01*
X49048Y-32323D01*
X49048Y-32323D01*
X49162Y-32247D01*
X49444Y-31965D01*
X52710Y-31965D01*
X52843Y-31938D01*
X52843Y-31938D01*
X52957Y-31862D01*
X53934Y-30885D01*
X57765Y-30885D01*
X55979Y-32670D01*
X55979Y-31766D01*
X55968Y-31548D01*
X55906Y-31397D01*
X55810Y-31369D01*
X55740Y-31440D01*
X55740Y-31299D01*
X55712Y-31203D01*
X55506Y-31130D01*
X55288Y-31141D01*
X55137Y-31203D01*
X55109Y-31299D01*
X55425Y-31614D01*
X55740Y-31299D01*
X55740Y-31440D01*
X55495Y-31685D01*
X55810Y-32000D01*
X55906Y-31972D01*
X55979Y-31766D01*
X55979Y-32670D01*
X55740Y-32909D01*
X55740Y-32070D01*
X55425Y-31755D01*
X55354Y-31826D01*
X55354Y-31685D01*
X55039Y-31369D01*
X54943Y-31397D01*
X54870Y-31603D01*
X54881Y-31821D01*
X54943Y-31972D01*
X55039Y-32000D01*
X55354Y-31685D01*
X55354Y-31826D01*
X55109Y-32070D01*
X55137Y-32166D01*
X55343Y-32239D01*
X55561Y-32228D01*
X55712Y-32166D01*
X55740Y-32070D01*
X55740Y-32909D01*
X55500Y-33150D01*
X55470Y-33150D01*
X55328Y-33008D01*
X55115Y-32920D01*
X54885Y-32919D01*
X54671Y-33008D01*
X54508Y-33171D01*
X54420Y-33384D01*
X54419Y-33614D01*
X54508Y-33828D01*
X54671Y-33991D01*
X54692Y-34000D01*
X54663Y-34092D01*
X55000Y-34429D01*
X55336Y-34092D01*
X55307Y-34000D01*
X55328Y-33991D01*
X55470Y-33850D01*
X55645Y-33850D01*
X55778Y-33823D01*
X55778Y-33823D01*
X55892Y-33747D01*
X63317Y-26322D01*
X63393Y-26208D01*
X63393Y-26208D01*
X63420Y-26075D01*
X63420Y-24070D01*
X63393Y-23936D01*
X63393Y-23936D01*
X63317Y-23822D01*
X62177Y-22682D01*
X62213Y-22500D01*
X62171Y-22285D01*
X62049Y-22104D01*
X61894Y-22000D01*
X62049Y-21895D01*
X62171Y-21714D01*
X62213Y-21500D01*
X62178Y-21325D01*
X62410Y-21325D01*
X62534Y-21300D01*
X62534Y-21300D01*
X62639Y-21229D01*
X63359Y-20509D01*
X63359Y-20509D01*
X63359Y-20509D01*
X63430Y-20404D01*
X63455Y-20280D01*
X63455Y-20280D01*
X63455Y-20279D01*
X63455Y-20149D01*
X64142Y-19462D01*
X64171Y-19491D01*
X64384Y-19579D01*
X64614Y-19580D01*
X64828Y-19491D01*
X64991Y-19328D01*
X65000Y-19307D01*
X65092Y-19336D01*
X65429Y-19000D01*
X65429Y-19141D01*
X65163Y-19407D01*
X65194Y-19506D01*
X65411Y-19584D01*
X65641Y-19574D01*
X65805Y-19506D01*
X65836Y-19407D01*
X65836Y-25592D01*
X65805Y-25493D01*
X65588Y-25415D01*
X65358Y-25425D01*
X65194Y-25493D01*
X65163Y-25592D01*
X65500Y-25929D01*
X65836Y-25592D01*
X65836Y-25733D01*
X65570Y-26000D01*
X65907Y-26336D01*
X66006Y-26305D01*
X66084Y-26088D01*
X66084Y-26716D01*
X65836Y-27263D01*
X65836Y-26407D01*
X65500Y-26070D01*
X65429Y-26141D01*
X65429Y-26000D01*
X65092Y-25663D01*
X65000Y-25692D01*
X64991Y-25671D01*
X64828Y-25508D01*
X64615Y-25420D01*
X64385Y-25419D01*
X64171Y-25508D01*
X64008Y-25671D01*
X63920Y-25884D01*
X63919Y-26114D01*
X64008Y-26328D01*
X64171Y-26491D01*
X64384Y-26579D01*
X64614Y-26580D01*
X64828Y-26491D01*
X64991Y-26328D01*
X65000Y-26307D01*
X65092Y-26336D01*
X65429Y-26000D01*
X65429Y-26141D01*
X65163Y-26407D01*
X65194Y-26506D01*
X65411Y-26584D01*
X65641Y-26574D01*
X65805Y-26506D01*
X65836Y-26407D01*
X65836Y-27263D01*
X64802Y-29547D01*
X62584Y-31985D01*
X62584Y-31588D01*
X62574Y-31358D01*
X62506Y-31194D01*
X62407Y-31163D01*
X62336Y-31233D01*
X62336Y-31092D01*
X62305Y-30993D01*
X62088Y-30915D01*
X61858Y-30925D01*
X61694Y-30993D01*
X61663Y-31092D01*
X62000Y-31429D01*
X62336Y-31092D01*
X62336Y-31233D01*
X62070Y-31500D01*
X62407Y-31836D01*
X62506Y-31805D01*
X62584Y-31588D01*
X62584Y-31985D01*
X62336Y-32257D01*
X62336Y-31907D01*
X62000Y-31570D01*
X61929Y-31641D01*
X61929Y-31500D01*
X61592Y-31163D01*
X61500Y-31192D01*
X61491Y-31171D01*
X61328Y-31008D01*
X61115Y-30920D01*
X60885Y-30919D01*
X60671Y-31008D01*
X60508Y-31171D01*
X60420Y-31384D01*
X60419Y-31614D01*
X60508Y-31828D01*
X60671Y-31991D01*
X60884Y-32079D01*
X61114Y-32080D01*
X61328Y-31991D01*
X61491Y-31828D01*
X61500Y-31807D01*
X61592Y-31836D01*
X61929Y-31500D01*
X61929Y-31641D01*
X61663Y-31907D01*
X61694Y-32006D01*
X61911Y-32084D01*
X62141Y-32074D01*
X62305Y-32006D01*
X62336Y-31907D01*
X62336Y-32257D01*
X62043Y-32580D01*
X58936Y-34393D01*
X55584Y-35214D01*
X55584Y-34588D01*
X55574Y-34358D01*
X55506Y-34194D01*
X55407Y-34163D01*
X55070Y-34500D01*
X55407Y-34836D01*
X55506Y-34805D01*
X55584Y-34588D01*
X55584Y-35214D01*
X55336Y-35275D01*
X55336Y-34907D01*
X55000Y-34570D01*
X54929Y-34641D01*
X54929Y-34500D01*
X54592Y-34163D01*
X54493Y-34194D01*
X54415Y-34411D01*
X54425Y-34641D01*
X54493Y-34805D01*
X54592Y-34836D01*
X54929Y-34500D01*
X54929Y-34641D01*
X54663Y-34907D01*
X54694Y-35006D01*
X54911Y-35084D01*
X55141Y-35074D01*
X55305Y-35006D01*
X55336Y-34907D01*
X55336Y-35275D01*
X55076Y-35339D01*
X51807Y-34981D01*
X48698Y-33760D01*
X47836Y-33153D01*
X47836Y-32407D01*
X47500Y-32070D01*
X47429Y-32141D01*
X47429Y-32000D01*
X47092Y-31663D01*
X46993Y-31694D01*
X46915Y-31911D01*
X46925Y-32141D01*
X46993Y-32305D01*
X47092Y-32336D01*
X47429Y-32000D01*
X47429Y-32141D01*
X47163Y-32407D01*
X47194Y-32506D01*
X47411Y-32584D01*
X47641Y-32574D01*
X47805Y-32506D01*
X47836Y-32407D01*
X47836Y-33153D01*
X46018Y-31872D01*
X44247Y-29787D01*
X43836Y-28967D01*
X43836Y-26907D01*
X43500Y-26570D01*
X43429Y-26641D01*
X43429Y-26500D01*
X43092Y-26163D01*
X42993Y-26194D01*
X42915Y-26411D01*
X42925Y-26641D01*
X42993Y-26805D01*
X43092Y-26836D01*
X43429Y-26500D01*
X43429Y-26641D01*
X43163Y-26907D01*
X43194Y-27006D01*
X43411Y-27084D01*
X43641Y-27074D01*
X43805Y-27006D01*
X43836Y-26907D01*
X43836Y-28967D01*
X42827Y-26948D01*
X42280Y-24116D01*
X42514Y-20688D01*
X42956Y-19214D01*
X42993Y-19305D01*
X43092Y-19336D01*
X43429Y-19000D01*
X43423Y-18994D01*
X43494Y-18923D01*
X43500Y-18929D01*
X43836Y-18592D01*
X43805Y-18493D01*
X43588Y-18415D01*
X43358Y-18425D01*
X43194Y-18493D01*
X43163Y-18592D01*
X43147Y-18576D01*
X43340Y-17931D01*
X44229Y-16599D01*
X44136Y-16520D01*
X45161Y-14953D01*
X45216Y-14996D01*
X45740Y-14360D01*
X47946Y-12577D01*
X50465Y-11357D01*
X53971Y-10685D01*
X57556Y-11158D01*
X61103Y-12697D01*
X63896Y-15097D01*
X65943Y-18364D01*
X66030Y-18752D01*
X66006Y-18694D01*
X65907Y-18663D01*
X65836Y-18733D01*
X65836Y-18592D01*
X65805Y-18493D01*
X65588Y-18415D01*
X65358Y-18425D01*
X65194Y-18493D01*
X65163Y-18592D01*
X65500Y-18929D01*
X65836Y-18592D01*
X65836Y-18733D01*
X65570Y-19000D01*
X65907Y-19336D01*
X66006Y-19305D01*
X66084Y-19088D01*
X66079Y-18970D01*
X66809Y-22222D01*
X66809Y-22222D01*
G37*
G54D23*
X66809Y-22222D02*
X66336Y-26161D01*
X66084Y-26716D01*
X66084Y-26088D01*
X66074Y-25858D01*
X66006Y-25694D01*
X65907Y-25663D01*
X65836Y-25733D01*
X65836Y-25592D01*
X65836Y-19407D01*
X65500Y-19070D01*
X65429Y-19141D01*
X65429Y-19000D01*
X65092Y-18663D01*
X65000Y-18692D01*
X64991Y-18671D01*
X64828Y-18508D01*
X64615Y-18420D01*
X64385Y-18419D01*
X64171Y-18508D01*
X64008Y-18671D01*
X63987Y-18721D01*
X63915Y-18770D01*
X63140Y-19545D01*
X63140Y-16325D01*
X63113Y-16191D01*
X63037Y-16077D01*
X62682Y-15722D01*
X62568Y-15646D01*
X62435Y-15620D01*
X61299Y-15620D01*
X61084Y-15404D01*
X61084Y-13588D01*
X61074Y-13358D01*
X61006Y-13194D01*
X60907Y-13163D01*
X60836Y-13233D01*
X60836Y-13092D01*
X60805Y-12993D01*
X60588Y-12915D01*
X60358Y-12925D01*
X60194Y-12993D01*
X60163Y-13092D01*
X60500Y-13429D01*
X60836Y-13092D01*
X60836Y-13233D01*
X60570Y-13500D01*
X60907Y-13836D01*
X61006Y-13805D01*
X61084Y-13588D01*
X61084Y-15404D01*
X60850Y-15170D01*
X60850Y-14970D01*
X60991Y-14828D01*
X61079Y-14615D01*
X61080Y-14385D01*
X60991Y-14171D01*
X60828Y-14008D01*
X60807Y-13999D01*
X60836Y-13907D01*
X60500Y-13570D01*
X60429Y-13641D01*
X60429Y-13500D01*
X60092Y-13163D01*
X59993Y-13194D01*
X59915Y-13411D01*
X59925Y-13641D01*
X59993Y-13805D01*
X60092Y-13836D01*
X60429Y-13500D01*
X60429Y-13641D01*
X60163Y-13907D01*
X60192Y-13999D01*
X60171Y-14008D01*
X60008Y-14171D01*
X59920Y-14384D01*
X59919Y-14614D01*
X60008Y-14828D01*
X60150Y-14970D01*
X60150Y-15315D01*
X60176Y-15448D01*
X60252Y-15562D01*
X60907Y-16217D01*
X61021Y-16293D01*
X61021Y-16293D01*
X61155Y-16320D01*
X62290Y-16320D01*
X62440Y-16469D01*
X62440Y-20045D01*
X62335Y-20150D01*
X62080Y-20150D01*
X62049Y-20104D01*
X61894Y-20000D01*
X62049Y-19895D01*
X62171Y-19714D01*
X62213Y-19500D01*
X62171Y-19285D01*
X62049Y-19104D01*
X61894Y-19000D01*
X62049Y-18895D01*
X62171Y-18714D01*
X62213Y-18500D01*
X62171Y-18285D01*
X62049Y-18104D01*
X61894Y-18000D01*
X61900Y-17998D01*
X62071Y-17860D01*
X62176Y-17668D01*
X62183Y-17636D01*
X62183Y-17363D01*
X62176Y-17331D01*
X62071Y-17139D01*
X61900Y-17001D01*
X61690Y-16940D01*
X61550Y-16940D01*
X61550Y-17450D01*
X62134Y-17450D01*
X62183Y-17363D01*
X62183Y-17636D01*
X62134Y-17550D01*
X61550Y-17550D01*
X61550Y-17557D01*
X61450Y-17557D01*
X61450Y-17550D01*
X61450Y-17450D01*
X61450Y-16940D01*
X61310Y-16940D01*
X61099Y-17001D01*
X60928Y-17139D01*
X60823Y-17331D01*
X60816Y-17363D01*
X60865Y-17450D01*
X61450Y-17450D01*
X61450Y-17550D01*
X60865Y-17550D01*
X60816Y-17636D01*
X60823Y-17668D01*
X60928Y-17860D01*
X61099Y-17998D01*
X61105Y-18000D01*
X60950Y-18104D01*
X60828Y-18285D01*
X60786Y-18500D01*
X60828Y-18714D01*
X60950Y-18895D01*
X61105Y-19000D01*
X60950Y-19104D01*
X60902Y-19175D01*
X60815Y-19175D01*
X60690Y-19199D01*
X60585Y-19270D01*
X60575Y-19280D01*
X60504Y-19385D01*
X60480Y-19510D01*
X60480Y-20780D01*
X60480Y-20795D01*
X60504Y-20919D01*
X60575Y-21024D01*
X60780Y-21229D01*
X60839Y-21269D01*
X60828Y-21285D01*
X60786Y-21500D01*
X60828Y-21714D01*
X60950Y-21895D01*
X61105Y-22000D01*
X60950Y-22104D01*
X60828Y-22285D01*
X60786Y-22500D01*
X60828Y-22714D01*
X60950Y-22895D01*
X61105Y-23000D01*
X60950Y-23104D01*
X60828Y-23285D01*
X60786Y-23500D01*
X60828Y-23714D01*
X60950Y-23895D01*
X61016Y-23940D01*
X61000Y-23940D01*
X60908Y-23978D01*
X60838Y-24048D01*
X60800Y-24140D01*
X60800Y-24239D01*
X60800Y-24859D01*
X60838Y-24951D01*
X60908Y-25021D01*
X61000Y-25060D01*
X61099Y-25060D01*
X61999Y-25060D01*
X62091Y-25021D01*
X62161Y-24951D01*
X62200Y-24859D01*
X62200Y-24760D01*
X62200Y-24304D01*
X62260Y-24364D01*
X62260Y-25820D01*
X58825Y-29255D01*
X58825Y-25025D01*
X58868Y-25017D01*
X59049Y-24895D01*
X59171Y-24714D01*
X59213Y-24500D01*
X59213Y-22500D01*
X59213Y-20500D01*
X59171Y-20285D01*
X59049Y-20104D01*
X58894Y-20000D01*
X59049Y-19895D01*
X59171Y-19714D01*
X59213Y-19500D01*
X59171Y-19285D01*
X59049Y-19104D01*
X58894Y-19000D01*
X59049Y-18895D01*
X59171Y-18714D01*
X59213Y-18500D01*
X59171Y-18285D01*
X59049Y-18104D01*
X58894Y-18000D01*
X59049Y-17895D01*
X59171Y-17714D01*
X59213Y-17500D01*
X59171Y-17285D01*
X59049Y-17104D01*
X58868Y-16982D01*
X58653Y-16940D01*
X58346Y-16940D01*
X58131Y-16982D01*
X57950Y-17104D01*
X57828Y-17285D01*
X57786Y-17500D01*
X57828Y-17714D01*
X57950Y-17895D01*
X58105Y-18000D01*
X58048Y-18038D01*
X54584Y-14574D01*
X54584Y-11588D01*
X54574Y-11358D01*
X54506Y-11194D01*
X54407Y-11163D01*
X54336Y-11233D01*
X54336Y-11092D01*
X54305Y-10993D01*
X54088Y-10915D01*
X53858Y-10925D01*
X53694Y-10993D01*
X53663Y-11092D01*
X54000Y-11429D01*
X54336Y-11092D01*
X54336Y-11233D01*
X54070Y-11500D01*
X54407Y-11836D01*
X54506Y-11805D01*
X54584Y-11588D01*
X54584Y-14574D01*
X54580Y-14570D01*
X54580Y-12385D01*
X54491Y-12171D01*
X54328Y-12008D01*
X54307Y-11999D01*
X54336Y-11907D01*
X54000Y-11570D01*
X53929Y-11641D01*
X53929Y-11500D01*
X53592Y-11163D01*
X53493Y-11194D01*
X53415Y-11411D01*
X53425Y-11641D01*
X53493Y-11805D01*
X53592Y-11836D01*
X53929Y-11500D01*
X53929Y-11641D01*
X53663Y-11907D01*
X53692Y-11999D01*
X53671Y-12008D01*
X53508Y-12171D01*
X53420Y-12384D01*
X53419Y-12614D01*
X53508Y-12828D01*
X53671Y-12991D01*
X53884Y-13079D01*
X54114Y-13080D01*
X54328Y-12991D01*
X54491Y-12828D01*
X54579Y-12615D01*
X54580Y-12385D01*
X54580Y-14570D01*
X54262Y-14252D01*
X54148Y-14176D01*
X54015Y-14150D01*
X48584Y-14150D01*
X48584Y-13588D01*
X48574Y-13358D01*
X48506Y-13194D01*
X48407Y-13163D01*
X48336Y-13233D01*
X48336Y-13092D01*
X48305Y-12993D01*
X48088Y-12915D01*
X47858Y-12925D01*
X47694Y-12993D01*
X47663Y-13092D01*
X48000Y-13429D01*
X48336Y-13092D01*
X48336Y-13233D01*
X48070Y-13500D01*
X48407Y-13836D01*
X48506Y-13805D01*
X48584Y-13588D01*
X48584Y-14150D01*
X48470Y-14150D01*
X48328Y-14008D01*
X48307Y-13999D01*
X48336Y-13907D01*
X48000Y-13570D01*
X47929Y-13641D01*
X47929Y-13500D01*
X47592Y-13163D01*
X47493Y-13194D01*
X47415Y-13411D01*
X47425Y-13641D01*
X47493Y-13805D01*
X47592Y-13836D01*
X47929Y-13500D01*
X47929Y-13641D01*
X47663Y-13907D01*
X47692Y-13999D01*
X47671Y-14008D01*
X47508Y-14171D01*
X47420Y-14384D01*
X47419Y-14614D01*
X47508Y-14828D01*
X47671Y-14991D01*
X47884Y-15079D01*
X48114Y-15080D01*
X48328Y-14991D01*
X48470Y-14850D01*
X53870Y-14850D01*
X57767Y-18747D01*
X57881Y-18823D01*
X57881Y-18823D01*
X57904Y-18828D01*
X57950Y-18895D01*
X58105Y-19000D01*
X57950Y-19104D01*
X57828Y-19285D01*
X57786Y-19500D01*
X57828Y-19714D01*
X57950Y-19895D01*
X58105Y-20000D01*
X57950Y-20104D01*
X57828Y-20285D01*
X57810Y-20380D01*
X57810Y-19906D01*
X57730Y-19713D01*
X57582Y-19565D01*
X57389Y-19485D01*
X57181Y-19484D01*
X56988Y-19564D01*
X56840Y-19712D01*
X56760Y-19905D01*
X56759Y-20113D01*
X56839Y-20307D01*
X56987Y-20454D01*
X57113Y-20507D01*
X57012Y-20549D01*
X56987Y-20642D01*
X57285Y-20939D01*
X57582Y-20642D01*
X57557Y-20549D01*
X57447Y-20510D01*
X57582Y-20455D01*
X57729Y-20307D01*
X57809Y-20114D01*
X57810Y-19906D01*
X57810Y-20380D01*
X57786Y-20500D01*
X57828Y-20714D01*
X57950Y-20895D01*
X58105Y-20999D01*
X58099Y-21001D01*
X57928Y-21139D01*
X57823Y-21331D01*
X57816Y-21363D01*
X57865Y-21450D01*
X58450Y-21450D01*
X58450Y-21442D01*
X58550Y-21442D01*
X58550Y-21450D01*
X59134Y-21450D01*
X59183Y-21363D01*
X59176Y-21331D01*
X59071Y-21139D01*
X58900Y-21001D01*
X58894Y-20999D01*
X59049Y-20895D01*
X59171Y-20714D01*
X59213Y-20500D01*
X59213Y-22500D01*
X59171Y-22285D01*
X59049Y-22104D01*
X58894Y-22000D01*
X58900Y-21998D01*
X59071Y-21860D01*
X59176Y-21668D01*
X59183Y-21636D01*
X59134Y-21550D01*
X58550Y-21550D01*
X58550Y-21557D01*
X58450Y-21557D01*
X58450Y-21550D01*
X57865Y-21550D01*
X57816Y-21636D01*
X57823Y-21668D01*
X57928Y-21860D01*
X58099Y-21998D01*
X58105Y-22000D01*
X57950Y-22104D01*
X57828Y-22285D01*
X57814Y-22356D01*
X57814Y-21085D01*
X57803Y-20877D01*
X57745Y-20737D01*
X57652Y-20712D01*
X57355Y-21010D01*
X57652Y-21307D01*
X57745Y-21282D01*
X57814Y-21085D01*
X57814Y-22356D01*
X57786Y-22500D01*
X57828Y-22714D01*
X57950Y-22895D01*
X58105Y-22999D01*
X58099Y-23001D01*
X57928Y-23139D01*
X57823Y-23331D01*
X57816Y-23363D01*
X57865Y-23450D01*
X58450Y-23450D01*
X58450Y-23442D01*
X58550Y-23442D01*
X58550Y-23450D01*
X59134Y-23450D01*
X59183Y-23363D01*
X59176Y-23331D01*
X59071Y-23139D01*
X58900Y-23001D01*
X58894Y-22999D01*
X59049Y-22895D01*
X59171Y-22714D01*
X59213Y-22500D01*
X59213Y-24500D01*
X59171Y-24285D01*
X59049Y-24104D01*
X58894Y-24000D01*
X58900Y-23998D01*
X59071Y-23860D01*
X59176Y-23668D01*
X59183Y-23636D01*
X59134Y-23550D01*
X58550Y-23550D01*
X58550Y-23557D01*
X58450Y-23557D01*
X58450Y-23550D01*
X57865Y-23550D01*
X57816Y-23636D01*
X57823Y-23668D01*
X57928Y-23860D01*
X58099Y-23998D01*
X58105Y-24000D01*
X57950Y-24104D01*
X57828Y-24285D01*
X57786Y-24500D01*
X57828Y-24714D01*
X57950Y-24895D01*
X58131Y-25017D01*
X58175Y-25025D01*
X58175Y-29505D01*
X57755Y-29925D01*
X57645Y-29925D01*
X57645Y-22411D01*
X57582Y-22259D01*
X57582Y-21377D01*
X57285Y-21080D01*
X57214Y-21151D01*
X57214Y-21010D01*
X56917Y-20712D01*
X56824Y-20737D01*
X56755Y-20934D01*
X56766Y-21142D01*
X56824Y-21282D01*
X56917Y-21307D01*
X57214Y-21010D01*
X57214Y-21151D01*
X56987Y-21377D01*
X57012Y-21470D01*
X57209Y-21539D01*
X57417Y-21528D01*
X57557Y-21470D01*
X57582Y-21377D01*
X57582Y-22259D01*
X57500Y-22062D01*
X57233Y-21795D01*
X56884Y-21650D01*
X56506Y-21649D01*
X56157Y-21794D01*
X55890Y-22061D01*
X55745Y-22410D01*
X55744Y-22788D01*
X55889Y-23137D01*
X56156Y-23404D01*
X56505Y-23549D01*
X56883Y-23550D01*
X57232Y-23405D01*
X57499Y-23138D01*
X57644Y-22789D01*
X57645Y-22411D01*
X57645Y-29925D01*
X54334Y-29925D01*
X54334Y-28355D01*
X54323Y-28147D01*
X54265Y-28007D01*
X54172Y-27982D01*
X53875Y-28280D01*
X54172Y-28577D01*
X54265Y-28552D01*
X54334Y-28355D01*
X54334Y-29925D01*
X54083Y-29925D01*
X54114Y-29835D01*
X54103Y-29627D01*
X54102Y-29623D01*
X54102Y-28647D01*
X53805Y-28350D01*
X53734Y-28421D01*
X53734Y-28280D01*
X53437Y-27982D01*
X53344Y-28007D01*
X53275Y-28204D01*
X53286Y-28412D01*
X53344Y-28552D01*
X53437Y-28577D01*
X53734Y-28280D01*
X53734Y-28421D01*
X53507Y-28647D01*
X53532Y-28740D01*
X53729Y-28809D01*
X53937Y-28798D01*
X54077Y-28740D01*
X54102Y-28647D01*
X54102Y-29623D01*
X54045Y-29487D01*
X53952Y-29462D01*
X53882Y-29533D01*
X53882Y-29392D01*
X53857Y-29299D01*
X53660Y-29230D01*
X53452Y-29241D01*
X53312Y-29299D01*
X53287Y-29392D01*
X53585Y-29689D01*
X53882Y-29392D01*
X53882Y-29533D01*
X53655Y-29760D01*
X53661Y-29765D01*
X53590Y-29836D01*
X53585Y-29830D01*
X53287Y-30127D01*
X53294Y-30151D01*
X52445Y-31000D01*
X51745Y-31000D01*
X51851Y-30956D01*
X52005Y-30801D01*
X52089Y-30599D01*
X52089Y-30564D01*
X52532Y-30293D01*
X52541Y-30285D01*
X52909Y-30285D01*
X53001Y-30246D01*
X53071Y-30176D01*
X53110Y-30084D01*
X53110Y-29997D01*
X53124Y-30032D01*
X53217Y-30057D01*
X53514Y-29760D01*
X53217Y-29462D01*
X53124Y-29487D01*
X53110Y-29528D01*
X53110Y-29435D01*
X53071Y-29343D01*
X53001Y-29273D01*
X52909Y-29235D01*
X52810Y-29235D01*
X52260Y-29235D01*
X52168Y-29273D01*
X52098Y-29343D01*
X52060Y-29435D01*
X52060Y-29534D01*
X52060Y-29762D01*
X51720Y-29969D01*
X51649Y-29940D01*
X51431Y-29939D01*
X51228Y-30023D01*
X51083Y-30169D01*
X51018Y-30173D01*
X51016Y-30168D01*
X50861Y-30014D01*
X50659Y-29930D01*
X50441Y-29929D01*
X50238Y-30013D01*
X50139Y-30112D01*
X49987Y-30119D01*
X49891Y-30024D01*
X49689Y-29940D01*
X49471Y-29939D01*
X49268Y-30023D01*
X49114Y-30178D01*
X49030Y-30380D01*
X49029Y-30598D01*
X49113Y-30801D01*
X49268Y-30955D01*
X49374Y-31000D01*
X48850Y-31000D01*
X48850Y-27716D01*
X48705Y-27367D01*
X48438Y-27100D01*
X48089Y-26955D01*
X47711Y-26954D01*
X47362Y-27099D01*
X47095Y-27366D01*
X46950Y-27715D01*
X46949Y-28093D01*
X47094Y-28442D01*
X47361Y-28709D01*
X47710Y-28854D01*
X48088Y-28855D01*
X48437Y-28710D01*
X48704Y-28443D01*
X48849Y-28094D01*
X48850Y-27716D01*
X48850Y-31000D01*
X48273Y-31000D01*
X46571Y-29998D01*
X46646Y-29966D01*
X46716Y-29896D01*
X46755Y-29804D01*
X46755Y-29705D01*
X46755Y-29155D01*
X46716Y-29063D01*
X46646Y-28993D01*
X46554Y-28955D01*
X46455Y-28955D01*
X46228Y-28955D01*
X45910Y-28600D01*
X45910Y-26902D01*
X45932Y-26924D01*
X46125Y-27004D01*
X46333Y-27005D01*
X46527Y-26925D01*
X46607Y-26844D01*
X49259Y-26947D01*
X49268Y-26955D01*
X49470Y-27039D01*
X49688Y-27040D01*
X49891Y-26956D01*
X50045Y-26801D01*
X50067Y-26751D01*
X50083Y-26791D01*
X50238Y-26945D01*
X50440Y-27029D01*
X50658Y-27030D01*
X50861Y-26946D01*
X51015Y-26791D01*
X51042Y-26727D01*
X51073Y-26801D01*
X51228Y-26955D01*
X51430Y-27039D01*
X51648Y-27040D01*
X51851Y-26956D01*
X52005Y-26801D01*
X52089Y-26599D01*
X52089Y-26556D01*
X53280Y-27229D01*
X53280Y-27604D01*
X53318Y-27696D01*
X53388Y-27766D01*
X53480Y-27805D01*
X53567Y-27805D01*
X53532Y-27819D01*
X53507Y-27912D01*
X53805Y-28209D01*
X54102Y-27912D01*
X54077Y-27819D01*
X54036Y-27805D01*
X54129Y-27805D01*
X54221Y-27766D01*
X54291Y-27696D01*
X54330Y-27604D01*
X54330Y-27505D01*
X54330Y-27101D01*
X54936Y-27428D01*
X54875Y-27575D01*
X54874Y-27793D01*
X54958Y-27996D01*
X55113Y-28150D01*
X55315Y-28234D01*
X55533Y-28235D01*
X55736Y-28151D01*
X55890Y-27996D01*
X55974Y-27794D01*
X55975Y-27576D01*
X55905Y-27406D01*
X55905Y-27365D01*
X55895Y-27315D01*
X55890Y-27264D01*
X55881Y-27248D01*
X55878Y-27231D01*
X55850Y-27188D01*
X55826Y-27144D01*
X55812Y-27132D01*
X55802Y-27117D01*
X55760Y-27089D01*
X55721Y-27057D01*
X55019Y-26678D01*
X55019Y-18701D01*
X55008Y-18483D01*
X54946Y-18332D01*
X54850Y-18304D01*
X54780Y-18375D01*
X54780Y-18234D01*
X54752Y-18138D01*
X54546Y-18065D01*
X54328Y-18076D01*
X54177Y-18138D01*
X54149Y-18234D01*
X54465Y-18549D01*
X54780Y-18234D01*
X54780Y-18375D01*
X54535Y-18620D01*
X54850Y-18935D01*
X54946Y-18907D01*
X55019Y-18701D01*
X55019Y-26678D01*
X55015Y-26675D01*
X55015Y-19561D01*
X54931Y-19358D01*
X54776Y-19204D01*
X54641Y-19147D01*
X54752Y-19101D01*
X54780Y-19005D01*
X54465Y-18690D01*
X54394Y-18761D01*
X54394Y-18620D01*
X54079Y-18304D01*
X53983Y-18332D01*
X53910Y-18538D01*
X53921Y-18756D01*
X53983Y-18907D01*
X54079Y-18935D01*
X54394Y-18620D01*
X54394Y-18761D01*
X54149Y-19005D01*
X54177Y-19101D01*
X54297Y-19144D01*
X54153Y-19203D01*
X53999Y-19358D01*
X53915Y-19560D01*
X53914Y-19778D01*
X53998Y-19981D01*
X54153Y-20135D01*
X54355Y-20219D01*
X54573Y-20220D01*
X54776Y-20136D01*
X54930Y-19981D01*
X55014Y-19779D01*
X55015Y-19561D01*
X55015Y-26675D01*
X54060Y-26159D01*
X54060Y-24690D01*
X54060Y-24550D01*
X54060Y-24450D01*
X54060Y-24310D01*
X53998Y-24099D01*
X53860Y-23928D01*
X53668Y-23823D01*
X53636Y-23816D01*
X53550Y-23865D01*
X53550Y-24450D01*
X54060Y-24450D01*
X54060Y-24550D01*
X53550Y-24550D01*
X53550Y-25134D01*
X53636Y-25183D01*
X53668Y-25176D01*
X53860Y-25071D01*
X53998Y-24900D01*
X54060Y-24690D01*
X54060Y-26159D01*
X52959Y-25565D01*
X52905Y-25034D01*
X52999Y-24894D01*
X53001Y-24900D01*
X53139Y-25071D01*
X53331Y-25176D01*
X53363Y-25183D01*
X53450Y-25134D01*
X53450Y-24550D01*
X53442Y-24550D01*
X53442Y-24450D01*
X53450Y-24450D01*
X53450Y-23865D01*
X53363Y-23816D01*
X53331Y-23823D01*
X53139Y-23928D01*
X53001Y-24099D01*
X52999Y-24105D01*
X52895Y-23950D01*
X52714Y-23828D01*
X52500Y-23786D01*
X52317Y-23822D01*
X51957Y-23462D01*
X51843Y-23386D01*
X51710Y-23360D01*
X51280Y-23360D01*
X51146Y-23386D01*
X51032Y-23462D01*
X50674Y-23820D01*
X50500Y-23786D01*
X50317Y-23822D01*
X49850Y-23355D01*
X49850Y-22080D01*
X49895Y-22049D01*
X50000Y-21894D01*
X50104Y-22049D01*
X50285Y-22171D01*
X50500Y-22213D01*
X50714Y-22171D01*
X50895Y-22049D01*
X51000Y-21894D01*
X51104Y-22049D01*
X51285Y-22171D01*
X51500Y-22213D01*
X51714Y-22171D01*
X51895Y-22049D01*
X52000Y-21894D01*
X52104Y-22049D01*
X52285Y-22171D01*
X52500Y-22213D01*
X52714Y-22171D01*
X52895Y-22049D01*
X53000Y-21894D01*
X53104Y-22049D01*
X53285Y-22171D01*
X53500Y-22213D01*
X53714Y-22171D01*
X53895Y-22049D01*
X54017Y-21868D01*
X54060Y-21653D01*
X54060Y-21346D01*
X54017Y-21131D01*
X53895Y-20950D01*
X53714Y-20828D01*
X53500Y-20786D01*
X53285Y-20828D01*
X53278Y-20833D01*
X53007Y-20562D01*
X52893Y-20486D01*
X52760Y-20460D01*
X51015Y-20460D01*
X51015Y-19561D01*
X50931Y-19358D01*
X50776Y-19204D01*
X50634Y-19144D01*
X50776Y-19086D01*
X50930Y-18931D01*
X51014Y-18729D01*
X51015Y-18511D01*
X50931Y-18308D01*
X50776Y-18154D01*
X50574Y-18070D01*
X50356Y-18069D01*
X50153Y-18153D01*
X49999Y-18308D01*
X49915Y-18510D01*
X49914Y-18728D01*
X49998Y-18931D01*
X50153Y-19085D01*
X50295Y-19145D01*
X50153Y-19203D01*
X49999Y-19358D01*
X49915Y-19560D01*
X49914Y-19778D01*
X49998Y-19981D01*
X50153Y-20135D01*
X50355Y-20219D01*
X50573Y-20220D01*
X50776Y-20136D01*
X50930Y-19981D01*
X51014Y-19779D01*
X51015Y-19561D01*
X51015Y-20460D01*
X48845Y-20460D01*
X48845Y-17101D01*
X48700Y-16752D01*
X48433Y-16485D01*
X48084Y-16340D01*
X47706Y-16339D01*
X47357Y-16484D01*
X47090Y-16751D01*
X46945Y-17100D01*
X46944Y-17478D01*
X47089Y-17827D01*
X47356Y-18094D01*
X47705Y-18239D01*
X48083Y-18240D01*
X48432Y-18095D01*
X48699Y-17828D01*
X48844Y-17479D01*
X48845Y-17101D01*
X48845Y-20460D01*
X47270Y-20460D01*
X47326Y-20436D01*
X47396Y-20366D01*
X47435Y-20274D01*
X47435Y-20175D01*
X47435Y-20062D01*
X47435Y-19837D01*
X47435Y-19724D01*
X47435Y-19625D01*
X47396Y-19533D01*
X47326Y-19463D01*
X47234Y-19425D01*
X47022Y-19425D01*
X46960Y-19487D01*
X46960Y-19900D01*
X47372Y-19900D01*
X47435Y-19837D01*
X47435Y-20062D01*
X47372Y-20000D01*
X46960Y-20000D01*
X46960Y-20412D01*
X47022Y-20475D01*
X47144Y-20475D01*
X47086Y-20486D01*
X46972Y-20562D01*
X46860Y-20675D01*
X46860Y-20412D01*
X46860Y-20000D01*
X46852Y-20000D01*
X46852Y-19900D01*
X46860Y-19900D01*
X46860Y-19487D01*
X46797Y-19425D01*
X46585Y-19425D01*
X46493Y-19463D01*
X46423Y-19533D01*
X46385Y-19625D01*
X46385Y-19724D01*
X46385Y-19724D01*
X46355Y-19653D01*
X46207Y-19505D01*
X46014Y-19425D01*
X45806Y-19424D01*
X45613Y-19504D01*
X45465Y-19652D01*
X45385Y-19845D01*
X45384Y-20053D01*
X45464Y-20247D01*
X45585Y-20367D01*
X45585Y-20570D01*
X45406Y-20569D01*
X45194Y-20657D01*
X45080Y-20771D01*
X45080Y-18885D01*
X44991Y-18671D01*
X44828Y-18508D01*
X44615Y-18420D01*
X44385Y-18419D01*
X44171Y-18508D01*
X44008Y-18671D01*
X43999Y-18692D01*
X43907Y-18663D01*
X43836Y-18733D01*
X43570Y-19000D01*
X43907Y-19336D01*
X43999Y-19307D01*
X44008Y-19328D01*
X44171Y-19491D01*
X44384Y-19579D01*
X44614Y-19580D01*
X44828Y-19491D01*
X44991Y-19328D01*
X45079Y-19115D01*
X45080Y-18885D01*
X45080Y-20771D01*
X45032Y-20818D01*
X44945Y-21030D01*
X44944Y-21258D01*
X45032Y-21470D01*
X45170Y-21608D01*
X45170Y-23681D01*
X45032Y-23818D01*
X44945Y-24030D01*
X44944Y-24258D01*
X45032Y-24470D01*
X45193Y-24632D01*
X45405Y-24719D01*
X45633Y-24720D01*
X45845Y-24632D01*
X46007Y-24471D01*
X46094Y-24259D01*
X46095Y-24031D01*
X46007Y-23819D01*
X45870Y-23681D01*
X45870Y-21608D01*
X46007Y-21471D01*
X46094Y-21259D01*
X46095Y-21031D01*
X46094Y-21029D01*
X46139Y-20984D01*
X46210Y-20879D01*
X46210Y-20879D01*
X46235Y-20755D01*
X46235Y-20755D01*
X46235Y-20754D01*
X46235Y-20367D01*
X46354Y-20247D01*
X46385Y-20175D01*
X46385Y-20175D01*
X46385Y-20274D01*
X46423Y-20366D01*
X46493Y-20436D01*
X46585Y-20475D01*
X46797Y-20475D01*
X46860Y-20412D01*
X46860Y-20675D01*
X46682Y-20852D01*
X46606Y-20966D01*
X46580Y-21100D01*
X46580Y-23930D01*
X46606Y-24063D01*
X46682Y-24177D01*
X46940Y-24434D01*
X46940Y-24999D01*
X46978Y-25091D01*
X46991Y-25105D01*
X46930Y-25105D01*
X46883Y-25114D01*
X46835Y-25119D01*
X45704Y-25462D01*
X45704Y-25462D01*
X45155Y-25629D01*
X45143Y-25635D01*
X45130Y-25637D01*
X45088Y-25665D01*
X45043Y-25688D01*
X45035Y-25699D01*
X45023Y-25706D01*
X44995Y-25748D01*
X44963Y-25786D01*
X44959Y-25799D01*
X44951Y-25811D01*
X44941Y-25860D01*
X44926Y-25908D01*
X44927Y-25921D01*
X44925Y-25935D01*
X44922Y-26102D01*
X44828Y-26008D01*
X44615Y-25920D01*
X44385Y-25919D01*
X44171Y-26008D01*
X44095Y-26084D01*
X44095Y-24031D01*
X44007Y-23819D01*
X43870Y-23681D01*
X43870Y-21608D01*
X44007Y-21471D01*
X44094Y-21259D01*
X44095Y-21031D01*
X44007Y-20819D01*
X43846Y-20657D01*
X43836Y-20654D01*
X43836Y-19407D01*
X43500Y-19070D01*
X43163Y-19407D01*
X43194Y-19506D01*
X43411Y-19584D01*
X43641Y-19574D01*
X43805Y-19506D01*
X43836Y-19407D01*
X43836Y-20654D01*
X43634Y-20570D01*
X43406Y-20569D01*
X43194Y-20657D01*
X43032Y-20818D01*
X42945Y-21030D01*
X42944Y-21258D01*
X43032Y-21470D01*
X43170Y-21608D01*
X43170Y-23681D01*
X43032Y-23818D01*
X42945Y-24030D01*
X42944Y-24258D01*
X43032Y-24470D01*
X43193Y-24632D01*
X43405Y-24719D01*
X43633Y-24720D01*
X43845Y-24632D01*
X44007Y-24471D01*
X44094Y-24259D01*
X44095Y-24031D01*
X44095Y-26084D01*
X44008Y-26171D01*
X43999Y-26192D01*
X43907Y-26163D01*
X43836Y-26233D01*
X43836Y-26092D01*
X43805Y-25993D01*
X43588Y-25915D01*
X43358Y-25925D01*
X43194Y-25993D01*
X43163Y-26092D01*
X43500Y-26429D01*
X43836Y-26092D01*
X43836Y-26233D01*
X43570Y-26500D01*
X43907Y-26836D01*
X43999Y-26807D01*
X44008Y-26828D01*
X44171Y-26991D01*
X44384Y-27079D01*
X44614Y-27080D01*
X44828Y-26991D01*
X44910Y-26910D01*
X44870Y-29540D01*
X44877Y-29579D01*
X44878Y-29618D01*
X44888Y-29640D01*
X44892Y-29664D01*
X44914Y-29698D01*
X44930Y-29734D01*
X44948Y-29750D01*
X44961Y-29771D01*
X44994Y-29793D01*
X45023Y-29820D01*
X45628Y-30197D01*
X45632Y-30198D01*
X45635Y-30201D01*
X48020Y-31605D01*
X48041Y-31612D01*
X48056Y-31622D01*
X48008Y-31671D01*
X47999Y-31692D01*
X47907Y-31663D01*
X47836Y-31733D01*
X47836Y-31592D01*
X47805Y-31493D01*
X47588Y-31415D01*
X47358Y-31425D01*
X47194Y-31493D01*
X47163Y-31592D01*
X47500Y-31929D01*
X47836Y-31592D01*
X47836Y-31733D01*
X47570Y-32000D01*
X47907Y-32336D01*
X47999Y-32307D01*
X48008Y-32328D01*
X48171Y-32491D01*
X48384Y-32579D01*
X48614Y-32580D01*
X48828Y-32491D01*
X48984Y-32336D01*
X49048Y-32323D01*
X49048Y-32323D01*
X49162Y-32247D01*
X49444Y-31965D01*
X52710Y-31965D01*
X52843Y-31938D01*
X52843Y-31938D01*
X52957Y-31862D01*
X53934Y-30885D01*
X57765Y-30885D01*
X55979Y-32670D01*
X55979Y-31766D01*
X55968Y-31548D01*
X55906Y-31397D01*
X55810Y-31369D01*
X55740Y-31440D01*
X55740Y-31299D01*
X55712Y-31203D01*
X55506Y-31130D01*
X55288Y-31141D01*
X55137Y-31203D01*
X55109Y-31299D01*
X55425Y-31614D01*
X55740Y-31299D01*
X55740Y-31440D01*
X55495Y-31685D01*
X55810Y-32000D01*
X55906Y-31972D01*
X55979Y-31766D01*
X55979Y-32670D01*
X55740Y-32909D01*
X55740Y-32070D01*
X55425Y-31755D01*
X55354Y-31826D01*
X55354Y-31685D01*
X55039Y-31369D01*
X54943Y-31397D01*
X54870Y-31603D01*
X54881Y-31821D01*
X54943Y-31972D01*
X55039Y-32000D01*
X55354Y-31685D01*
X55354Y-31826D01*
X55109Y-32070D01*
X55137Y-32166D01*
X55343Y-32239D01*
X55561Y-32228D01*
X55712Y-32166D01*
X55740Y-32070D01*
X55740Y-32909D01*
X55500Y-33150D01*
X55470Y-33150D01*
X55328Y-33008D01*
X55115Y-32920D01*
X54885Y-32919D01*
X54671Y-33008D01*
X54508Y-33171D01*
X54420Y-33384D01*
X54419Y-33614D01*
X54508Y-33828D01*
X54671Y-33991D01*
X54692Y-34000D01*
X54663Y-34092D01*
X55000Y-34429D01*
X55336Y-34092D01*
X55307Y-34000D01*
X55328Y-33991D01*
X55470Y-33850D01*
X55645Y-33850D01*
X55778Y-33823D01*
X55778Y-33823D01*
X55892Y-33747D01*
X63317Y-26322D01*
X63393Y-26208D01*
X63393Y-26208D01*
X63420Y-26075D01*
X63420Y-24070D01*
X63393Y-23936D01*
X63393Y-23936D01*
X63317Y-23822D01*
X62177Y-22682D01*
X62213Y-22500D01*
X62171Y-22285D01*
X62049Y-22104D01*
X61894Y-22000D01*
X62049Y-21895D01*
X62171Y-21714D01*
X62213Y-21500D01*
X62178Y-21325D01*
X62410Y-21325D01*
X62534Y-21300D01*
X62534Y-21300D01*
X62639Y-21229D01*
X63359Y-20509D01*
X63359Y-20509D01*
X63359Y-20509D01*
X63430Y-20404D01*
X63455Y-20280D01*
X63455Y-20280D01*
X63455Y-20279D01*
X63455Y-20149D01*
X64142Y-19462D01*
X64171Y-19491D01*
X64384Y-19579D01*
X64614Y-19580D01*
X64828Y-19491D01*
X64991Y-19328D01*
X65000Y-19307D01*
X65092Y-19336D01*
X65429Y-19000D01*
X65429Y-19141D01*
X65163Y-19407D01*
X65194Y-19506D01*
X65411Y-19584D01*
X65641Y-19574D01*
X65805Y-19506D01*
X65836Y-19407D01*
X65836Y-25592D01*
X65805Y-25493D01*
X65588Y-25415D01*
X65358Y-25425D01*
X65194Y-25493D01*
X65163Y-25592D01*
X65500Y-25929D01*
X65836Y-25592D01*
X65836Y-25733D01*
X65570Y-26000D01*
X65907Y-26336D01*
X66006Y-26305D01*
X66084Y-26088D01*
X66084Y-26716D01*
X65836Y-27263D01*
X65836Y-26407D01*
X65500Y-26070D01*
X65429Y-26141D01*
X65429Y-26000D01*
X65092Y-25663D01*
X65000Y-25692D01*
X64991Y-25671D01*
X64828Y-25508D01*
X64615Y-25420D01*
X64385Y-25419D01*
X64171Y-25508D01*
X64008Y-25671D01*
X63920Y-25884D01*
X63919Y-26114D01*
X64008Y-26328D01*
X64171Y-26491D01*
X64384Y-26579D01*
X64614Y-26580D01*
X64828Y-26491D01*
X64991Y-26328D01*
X65000Y-26307D01*
X65092Y-26336D01*
X65429Y-26000D01*
X65429Y-26141D01*
X65163Y-26407D01*
X65194Y-26506D01*
X65411Y-26584D01*
X65641Y-26574D01*
X65805Y-26506D01*
X65836Y-26407D01*
X65836Y-27263D01*
X64802Y-29547D01*
X62584Y-31985D01*
X62584Y-31588D01*
X62574Y-31358D01*
X62506Y-31194D01*
X62407Y-31163D01*
X62336Y-31233D01*
X62336Y-31092D01*
X62305Y-30993D01*
X62088Y-30915D01*
X61858Y-30925D01*
X61694Y-30993D01*
X61663Y-31092D01*
X62000Y-31429D01*
X62336Y-31092D01*
X62336Y-31233D01*
X62070Y-31500D01*
X62407Y-31836D01*
X62506Y-31805D01*
X62584Y-31588D01*
X62584Y-31985D01*
X62336Y-32257D01*
X62336Y-31907D01*
X62000Y-31570D01*
X61929Y-31641D01*
X61929Y-31500D01*
X61592Y-31163D01*
X61500Y-31192D01*
X61491Y-31171D01*
X61328Y-31008D01*
X61115Y-30920D01*
X60885Y-30919D01*
X60671Y-31008D01*
X60508Y-31171D01*
X60420Y-31384D01*
X60419Y-31614D01*
X60508Y-31828D01*
X60671Y-31991D01*
X60884Y-32079D01*
X61114Y-32080D01*
X61328Y-31991D01*
X61491Y-31828D01*
X61500Y-31807D01*
X61592Y-31836D01*
X61929Y-31500D01*
X61929Y-31641D01*
X61663Y-31907D01*
X61694Y-32006D01*
X61911Y-32084D01*
X62141Y-32074D01*
X62305Y-32006D01*
X62336Y-31907D01*
X62336Y-32257D01*
X62043Y-32580D01*
X58936Y-34393D01*
X55584Y-35214D01*
X55584Y-34588D01*
X55574Y-34358D01*
X55506Y-34194D01*
X55407Y-34163D01*
X55070Y-34500D01*
X55407Y-34836D01*
X55506Y-34805D01*
X55584Y-34588D01*
X55584Y-35214D01*
X55336Y-35275D01*
X55336Y-34907D01*
X55000Y-34570D01*
X54929Y-34641D01*
X54929Y-34500D01*
X54592Y-34163D01*
X54493Y-34194D01*
X54415Y-34411D01*
X54425Y-34641D01*
X54493Y-34805D01*
X54592Y-34836D01*
X54929Y-34500D01*
X54929Y-34641D01*
X54663Y-34907D01*
X54694Y-35006D01*
X54911Y-35084D01*
X55141Y-35074D01*
X55305Y-35006D01*
X55336Y-34907D01*
X55336Y-35275D01*
X55076Y-35339D01*
X51807Y-34981D01*
X48698Y-33760D01*
X47836Y-33153D01*
X47836Y-32407D01*
X47500Y-32070D01*
X47429Y-32141D01*
X47429Y-32000D01*
X47092Y-31663D01*
X46993Y-31694D01*
X46915Y-31911D01*
X46925Y-32141D01*
X46993Y-32305D01*
X47092Y-32336D01*
X47429Y-32000D01*
X47429Y-32141D01*
X47163Y-32407D01*
X47194Y-32506D01*
X47411Y-32584D01*
X47641Y-32574D01*
X47805Y-32506D01*
X47836Y-32407D01*
X47836Y-33153D01*
X46018Y-31872D01*
X44247Y-29787D01*
X43836Y-28967D01*
X43836Y-26907D01*
X43500Y-26570D01*
X43429Y-26641D01*
X43429Y-26500D01*
X43092Y-26163D01*
X42993Y-26194D01*
X42915Y-26411D01*
X42925Y-26641D01*
X42993Y-26805D01*
X43092Y-26836D01*
X43429Y-26500D01*
X43429Y-26641D01*
X43163Y-26907D01*
X43194Y-27006D01*
X43411Y-27084D01*
X43641Y-27074D01*
X43805Y-27006D01*
X43836Y-26907D01*
X43836Y-28967D01*
X42827Y-26948D01*
X42280Y-24116D01*
X42514Y-20688D01*
X42956Y-19214D01*
X42993Y-19305D01*
X43092Y-19336D01*
X43429Y-19000D01*
X43423Y-18994D01*
X43494Y-18923D01*
X43500Y-18929D01*
X43836Y-18592D01*
X43805Y-18493D01*
X43588Y-18415D01*
X43358Y-18425D01*
X43194Y-18493D01*
X43163Y-18592D01*
X43147Y-18576D01*
X43340Y-17931D01*
X44229Y-16599D01*
X44136Y-16520D01*
X45161Y-14953D01*
X45216Y-14996D01*
X45740Y-14360D01*
X47946Y-12577D01*
X50465Y-11357D01*
X53971Y-10685D01*
X57556Y-11158D01*
X61103Y-12697D01*
X63896Y-15097D01*
X65943Y-18364D01*
X66030Y-18752D01*
X66006Y-18694D01*
X65907Y-18663D01*
X65836Y-18733D01*
X65836Y-18592D01*
X65805Y-18493D01*
X65588Y-18415D01*
X65358Y-18425D01*
X65194Y-18493D01*
X65163Y-18592D01*
X65500Y-18929D01*
X65836Y-18592D01*
X65836Y-18733D01*
X65570Y-19000D01*
X65907Y-19336D01*
X66006Y-19305D01*
X66084Y-19088D01*
X66079Y-18970D01*
X66809Y-22222D01*
M02*
