G04 (created by PCBNEW (2013-08-23 BZR 4296)-product) date 9/8/2013 11:51:13 PM*
%MOIN*%
G04 Gerber Fmt 3.4, Leading zero omitted, Abs format*
%FSLAX34Y34*%
G01*
G70*
G90*
G04 APERTURE LIST*
%ADD10C,0.005000*%
%ADD11C,0.003937*%
%ADD12C,0.007874*%
%ADD13C,0.011811*%
G04 APERTURE END LIST*
G54D10*
G54D11*
X67785Y-23000D02*
G75*
G03X67785Y-23000I-13285J0D01*
G74*
G01*
G54D12*
X47195Y-16590D02*
X48595Y-17990D01*
X48595Y-16590D02*
X47195Y-17990D01*
X47200Y-27205D02*
X48600Y-28605D01*
X48600Y-27205D02*
X47200Y-28605D01*
X55995Y-21900D02*
X57395Y-23300D01*
X57395Y-21900D02*
X55995Y-23300D01*
G54D13*
X42263Y-38138D02*
X42263Y-36957D01*
X42544Y-36957D01*
X42713Y-37013D01*
X42826Y-37126D01*
X42882Y-37238D01*
X42938Y-37463D01*
X42938Y-37632D01*
X42882Y-37857D01*
X42826Y-37969D01*
X42713Y-38082D01*
X42544Y-38138D01*
X42263Y-38138D01*
X43444Y-38138D02*
X43444Y-37351D01*
X43444Y-37576D02*
X43500Y-37463D01*
X43557Y-37407D01*
X43669Y-37351D01*
X43782Y-37351D01*
X44175Y-38138D02*
X44175Y-37351D01*
X44175Y-36957D02*
X44119Y-37013D01*
X44175Y-37069D01*
X44232Y-37013D01*
X44175Y-36957D01*
X44175Y-37069D01*
X44907Y-38138D02*
X44794Y-38082D01*
X44738Y-37969D01*
X44738Y-36957D01*
X45525Y-38138D02*
X45413Y-38082D01*
X45356Y-37969D01*
X45356Y-36957D01*
X46875Y-38138D02*
X46875Y-36957D01*
X47269Y-37801D01*
X47662Y-36957D01*
X47662Y-38138D01*
X48731Y-38138D02*
X48731Y-37519D01*
X48675Y-37407D01*
X48562Y-37351D01*
X48337Y-37351D01*
X48225Y-37407D01*
X48731Y-38082D02*
X48619Y-38138D01*
X48337Y-38138D01*
X48225Y-38082D01*
X48169Y-37969D01*
X48169Y-37857D01*
X48225Y-37744D01*
X48337Y-37688D01*
X48619Y-37688D01*
X48731Y-37632D01*
X49293Y-37351D02*
X49293Y-38532D01*
X49293Y-37407D02*
X49406Y-37351D01*
X49631Y-37351D01*
X49743Y-37407D01*
X49800Y-37463D01*
X49856Y-37576D01*
X49856Y-37913D01*
X49800Y-38026D01*
X49743Y-38082D01*
X49631Y-38138D01*
X49406Y-38138D01*
X49293Y-38082D01*
X50362Y-38026D02*
X50418Y-38082D01*
X50362Y-38138D01*
X50306Y-38082D01*
X50362Y-38026D01*
X50362Y-38138D01*
X50362Y-37407D02*
X50418Y-37463D01*
X50362Y-37519D01*
X50306Y-37463D01*
X50362Y-37407D01*
X50362Y-37519D01*
X39794Y-39384D02*
X41194Y-40784D01*
X41194Y-39384D02*
X39794Y-40784D01*
X42151Y-39437D02*
X42882Y-39437D01*
X42488Y-39887D01*
X42657Y-39887D01*
X42769Y-39943D01*
X42826Y-40000D01*
X42882Y-40112D01*
X42882Y-40393D01*
X42826Y-40506D01*
X42769Y-40562D01*
X42657Y-40618D01*
X42319Y-40618D01*
X42207Y-40562D01*
X42151Y-40506D01*
X43388Y-40506D02*
X43444Y-40562D01*
X43388Y-40618D01*
X43332Y-40562D01*
X43388Y-40506D01*
X43388Y-40618D01*
X44513Y-39437D02*
X43950Y-39437D01*
X43894Y-40000D01*
X43950Y-39943D01*
X44063Y-39887D01*
X44344Y-39887D01*
X44457Y-39943D01*
X44513Y-40000D01*
X44569Y-40112D01*
X44569Y-40393D01*
X44513Y-40506D01*
X44457Y-40562D01*
X44344Y-40618D01*
X44063Y-40618D01*
X43950Y-40562D01*
X43894Y-40506D01*
X45581Y-39437D02*
X45356Y-39437D01*
X45244Y-39493D01*
X45188Y-39550D01*
X45075Y-39718D01*
X45019Y-39943D01*
X45019Y-40393D01*
X45075Y-40506D01*
X45131Y-40562D01*
X45244Y-40618D01*
X45469Y-40618D01*
X45581Y-40562D01*
X45638Y-40506D01*
X45694Y-40393D01*
X45694Y-40112D01*
X45638Y-40000D01*
X45581Y-39943D01*
X45469Y-39887D01*
X45244Y-39887D01*
X45131Y-39943D01*
X45075Y-40000D01*
X45019Y-40112D01*
X46200Y-40618D02*
X46200Y-39831D01*
X46200Y-39943D02*
X46256Y-39887D01*
X46369Y-39831D01*
X46538Y-39831D01*
X46650Y-39887D01*
X46706Y-40000D01*
X46706Y-40618D01*
X46706Y-40000D02*
X46763Y-39887D01*
X46875Y-39831D01*
X47044Y-39831D01*
X47156Y-39887D01*
X47212Y-40000D01*
X47212Y-40618D01*
X47775Y-40618D02*
X47775Y-39831D01*
X47775Y-39943D02*
X47831Y-39887D01*
X47944Y-39831D01*
X48112Y-39831D01*
X48225Y-39887D01*
X48281Y-40000D01*
X48281Y-40618D01*
X48281Y-40000D02*
X48337Y-39887D01*
X48450Y-39831D01*
X48619Y-39831D01*
X48731Y-39887D01*
X48787Y-40000D01*
X48787Y-40618D01*
X51093Y-39381D02*
X50081Y-40900D01*
X52612Y-39437D02*
X52724Y-39437D01*
X52837Y-39493D01*
X52893Y-39550D01*
X52949Y-39662D01*
X53006Y-39887D01*
X53006Y-40168D01*
X52949Y-40393D01*
X52893Y-40506D01*
X52837Y-40562D01*
X52724Y-40618D01*
X52612Y-40618D01*
X52499Y-40562D01*
X52443Y-40506D01*
X52387Y-40393D01*
X52331Y-40168D01*
X52331Y-39887D01*
X52387Y-39662D01*
X52443Y-39550D01*
X52499Y-39493D01*
X52612Y-39437D01*
X53512Y-40506D02*
X53568Y-40562D01*
X53512Y-40618D01*
X53455Y-40562D01*
X53512Y-40506D01*
X53512Y-40618D01*
X54693Y-40618D02*
X54018Y-40618D01*
X54355Y-40618D02*
X54355Y-39437D01*
X54243Y-39606D01*
X54130Y-39718D01*
X54018Y-39775D01*
X55705Y-39831D02*
X55705Y-40618D01*
X55424Y-39381D02*
X55143Y-40225D01*
X55874Y-40225D01*
X56549Y-39437D02*
X56661Y-39437D01*
X56774Y-39493D01*
X56830Y-39550D01*
X56886Y-39662D01*
X56943Y-39887D01*
X56943Y-40168D01*
X56886Y-40393D01*
X56830Y-40506D01*
X56774Y-40562D01*
X56661Y-40618D01*
X56549Y-40618D01*
X56436Y-40562D01*
X56380Y-40506D01*
X56324Y-40393D01*
X56268Y-40168D01*
X56268Y-39887D01*
X56324Y-39662D01*
X56380Y-39550D01*
X56436Y-39493D01*
X56549Y-39437D01*
X57392Y-39437D02*
X57392Y-39662D01*
X57842Y-39437D02*
X57842Y-39662D01*
X59586Y-41068D02*
X59530Y-41012D01*
X59417Y-40843D01*
X59361Y-40731D01*
X59305Y-40562D01*
X59248Y-40281D01*
X59248Y-40056D01*
X59305Y-39775D01*
X59361Y-39606D01*
X59417Y-39493D01*
X59530Y-39325D01*
X59586Y-39269D01*
X59923Y-39437D02*
X60655Y-39437D01*
X60261Y-39887D01*
X60430Y-39887D01*
X60542Y-39943D01*
X60598Y-40000D01*
X60655Y-40112D01*
X60655Y-40393D01*
X60598Y-40506D01*
X60542Y-40562D01*
X60430Y-40618D01*
X60092Y-40618D01*
X59980Y-40562D01*
X59923Y-40506D01*
X62061Y-40618D02*
X62061Y-39437D01*
X62567Y-40618D02*
X62567Y-40000D01*
X62511Y-39887D01*
X62398Y-39831D01*
X62229Y-39831D01*
X62117Y-39887D01*
X62061Y-39943D01*
X63298Y-40618D02*
X63185Y-40562D01*
X63129Y-40506D01*
X63073Y-40393D01*
X63073Y-40056D01*
X63129Y-39943D01*
X63185Y-39887D01*
X63298Y-39831D01*
X63467Y-39831D01*
X63579Y-39887D01*
X63635Y-39943D01*
X63692Y-40056D01*
X63692Y-40393D01*
X63635Y-40506D01*
X63579Y-40562D01*
X63467Y-40618D01*
X63298Y-40618D01*
X64367Y-40618D02*
X64254Y-40562D01*
X64198Y-40450D01*
X64198Y-39437D01*
X65266Y-40562D02*
X65154Y-40618D01*
X64929Y-40618D01*
X64817Y-40562D01*
X64760Y-40450D01*
X64760Y-40000D01*
X64817Y-39887D01*
X64929Y-39831D01*
X65154Y-39831D01*
X65266Y-39887D01*
X65323Y-40000D01*
X65323Y-40112D01*
X64760Y-40225D01*
X65773Y-40562D02*
X65885Y-40618D01*
X66110Y-40618D01*
X66223Y-40562D01*
X66279Y-40450D01*
X66279Y-40393D01*
X66223Y-40281D01*
X66110Y-40225D01*
X65941Y-40225D01*
X65829Y-40168D01*
X65773Y-40056D01*
X65773Y-40000D01*
X65829Y-39887D01*
X65941Y-39831D01*
X66110Y-39831D01*
X66223Y-39887D01*
X66673Y-41068D02*
X66729Y-41012D01*
X66841Y-40843D01*
X66898Y-40731D01*
X66954Y-40562D01*
X67010Y-40281D01*
X67010Y-40056D01*
X66954Y-39775D01*
X66898Y-39606D01*
X66841Y-39493D01*
X66729Y-39325D01*
X66673Y-39269D01*
M02*
