%FSLAX34Y34*%
G04 Gerber Fmt 3.4, Leading zero omitted, Abs format*
G04 (created by PCBNEW (2013-11-12 BZR 4462)-product) date 11/16/2013 2:36:54 PM*
%MOIN*%
G01*
G70*
G90*
G04 APERTURE LIST*
%ADD10C,0.005906*%
%ADD11C,0.011811*%
%ADD12C,0.007874*%
%ADD13C,0.012000*%
%ADD14C,0.008000*%
%ADD15C,0.003000*%
%ADD16C,0.010000*%
%ADD17C,0.006000*%
%ADD18C,0.015000*%
%ADD19C,0.005000*%
%ADD20C,0.003500*%
%ADD21C,0.011250*%
%ADD22C,0.004000*%
%ADD23C,0.007500*%
%ADD24C,0.010700*%
G04 APERTURE END LIST*
G54D10*
G54D11*
X59032Y-26557D02*
X59117Y-26585D01*
X59145Y-26614D01*
X59173Y-26670D01*
X59173Y-26754D01*
X59145Y-26810D01*
X59117Y-26839D01*
X59061Y-26867D01*
X58836Y-26867D01*
X58836Y-26276D01*
X59032Y-26276D01*
X59089Y-26304D01*
X59117Y-26332D01*
X59145Y-26389D01*
X59145Y-26445D01*
X59117Y-26501D01*
X59089Y-26529D01*
X59032Y-26557D01*
X58836Y-26557D01*
X59426Y-26867D02*
X59426Y-26473D01*
X59426Y-26585D02*
X59454Y-26529D01*
X59482Y-26501D01*
X59539Y-26473D01*
X59595Y-26473D01*
X59876Y-26867D02*
X59820Y-26839D01*
X59792Y-26810D01*
X59764Y-26754D01*
X59764Y-26585D01*
X59792Y-26529D01*
X59820Y-26501D01*
X59876Y-26473D01*
X59960Y-26473D01*
X60017Y-26501D01*
X60045Y-26529D01*
X60073Y-26585D01*
X60073Y-26754D01*
X60045Y-26810D01*
X60017Y-26839D01*
X59960Y-26867D01*
X59876Y-26867D01*
X60410Y-26867D02*
X60354Y-26839D01*
X60326Y-26810D01*
X60298Y-26754D01*
X60298Y-26585D01*
X60326Y-26529D01*
X60354Y-26501D01*
X60410Y-26473D01*
X60495Y-26473D01*
X60551Y-26501D01*
X60579Y-26529D01*
X60607Y-26585D01*
X60607Y-26754D01*
X60579Y-26810D01*
X60551Y-26839D01*
X60495Y-26867D01*
X60410Y-26867D01*
X60860Y-26867D02*
X60860Y-26276D01*
X60917Y-26642D02*
X61085Y-26867D01*
X61085Y-26473D02*
X60860Y-26698D01*
X61563Y-26839D02*
X61507Y-26867D01*
X61395Y-26867D01*
X61338Y-26839D01*
X61310Y-26782D01*
X61310Y-26557D01*
X61338Y-26501D01*
X61395Y-26473D01*
X61507Y-26473D01*
X61563Y-26501D01*
X61592Y-26557D01*
X61592Y-26614D01*
X61310Y-26670D01*
X58695Y-27812D02*
X58695Y-27221D01*
X58695Y-27502D02*
X59032Y-27502D01*
X59032Y-27812D02*
X59032Y-27221D01*
X59539Y-27783D02*
X59482Y-27812D01*
X59370Y-27812D01*
X59314Y-27783D01*
X59286Y-27727D01*
X59286Y-27502D01*
X59314Y-27446D01*
X59370Y-27418D01*
X59482Y-27418D01*
X59539Y-27446D01*
X59567Y-27502D01*
X59567Y-27558D01*
X59286Y-27615D01*
X60073Y-27812D02*
X60073Y-27221D01*
X60073Y-27783D02*
X60017Y-27812D01*
X59904Y-27812D01*
X59848Y-27783D01*
X59820Y-27755D01*
X59792Y-27699D01*
X59792Y-27530D01*
X59820Y-27474D01*
X59848Y-27446D01*
X59904Y-27418D01*
X60017Y-27418D01*
X60073Y-27446D01*
X60354Y-27812D02*
X60354Y-27418D01*
X60354Y-27530D02*
X60382Y-27474D01*
X60410Y-27446D01*
X60467Y-27418D01*
X60523Y-27418D01*
X60720Y-27812D02*
X60720Y-27418D01*
X60720Y-27221D02*
X60692Y-27249D01*
X60720Y-27277D01*
X60748Y-27249D01*
X60720Y-27221D01*
X60720Y-27277D01*
X61254Y-27783D02*
X61198Y-27812D01*
X61085Y-27812D01*
X61029Y-27783D01*
X61001Y-27755D01*
X60973Y-27699D01*
X60973Y-27530D01*
X61001Y-27474D01*
X61029Y-27446D01*
X61085Y-27418D01*
X61198Y-27418D01*
X61254Y-27446D01*
X61507Y-27812D02*
X61507Y-27221D01*
X61563Y-27587D02*
X61732Y-27812D01*
X61732Y-27418D02*
X61507Y-27643D01*
X49787Y-15539D02*
X49872Y-15567D01*
X50012Y-15567D01*
X50069Y-15539D01*
X50097Y-15510D01*
X50125Y-15454D01*
X50125Y-15398D01*
X50097Y-15342D01*
X50069Y-15314D01*
X50012Y-15285D01*
X49900Y-15257D01*
X49844Y-15229D01*
X49815Y-15201D01*
X49787Y-15145D01*
X49787Y-15089D01*
X49815Y-15032D01*
X49844Y-15004D01*
X49900Y-14976D01*
X50040Y-14976D01*
X50125Y-15004D01*
X50378Y-15173D02*
X50378Y-15764D01*
X50378Y-15201D02*
X50434Y-15173D01*
X50547Y-15173D01*
X50603Y-15201D01*
X50631Y-15229D01*
X50659Y-15285D01*
X50659Y-15454D01*
X50631Y-15510D01*
X50603Y-15539D01*
X50547Y-15567D01*
X50434Y-15567D01*
X50378Y-15539D01*
X50912Y-15567D02*
X50912Y-15173D01*
X50912Y-14976D02*
X50884Y-15004D01*
X50912Y-15032D01*
X50940Y-15004D01*
X50912Y-14976D01*
X50912Y-15032D01*
X51193Y-15173D02*
X51193Y-15567D01*
X51193Y-15229D02*
X51222Y-15201D01*
X51278Y-15173D01*
X51362Y-15173D01*
X51418Y-15201D01*
X51447Y-15257D01*
X51447Y-15567D01*
X51728Y-15173D02*
X51728Y-15567D01*
X51728Y-15229D02*
X51756Y-15201D01*
X51812Y-15173D01*
X51896Y-15173D01*
X51953Y-15201D01*
X51981Y-15257D01*
X51981Y-15567D01*
X52262Y-15567D02*
X52262Y-15173D01*
X52262Y-14976D02*
X52234Y-15004D01*
X52262Y-15032D01*
X52290Y-15004D01*
X52262Y-14976D01*
X52262Y-15032D01*
X52543Y-15173D02*
X52543Y-15567D01*
X52543Y-15229D02*
X52571Y-15201D01*
X52628Y-15173D01*
X52712Y-15173D01*
X52768Y-15201D01*
X52796Y-15257D01*
X52796Y-15567D01*
X53331Y-15173D02*
X53331Y-15651D01*
X53303Y-15707D01*
X53274Y-15735D01*
X53218Y-15764D01*
X53134Y-15764D01*
X53078Y-15735D01*
X53331Y-15539D02*
X53274Y-15567D01*
X53162Y-15567D01*
X53106Y-15539D01*
X53078Y-15510D01*
X53049Y-15454D01*
X53049Y-15285D01*
X53078Y-15229D01*
X53106Y-15201D01*
X53162Y-15173D01*
X53274Y-15173D01*
X53331Y-15201D01*
X54343Y-15567D02*
X54062Y-15567D01*
X54062Y-14976D01*
X54540Y-15257D02*
X54737Y-15257D01*
X54821Y-15567D02*
X54540Y-15567D01*
X54540Y-14976D01*
X54821Y-14976D01*
X55074Y-15567D02*
X55074Y-14976D01*
X55215Y-14976D01*
X55299Y-15004D01*
X55355Y-15060D01*
X55384Y-15117D01*
X55412Y-15229D01*
X55412Y-15314D01*
X55384Y-15426D01*
X55355Y-15482D01*
X55299Y-15539D01*
X55215Y-15567D01*
X55074Y-15567D01*
X50069Y-16483D02*
X50153Y-16512D01*
X50294Y-16512D01*
X50350Y-16483D01*
X50378Y-16455D01*
X50406Y-16399D01*
X50406Y-16343D01*
X50378Y-16287D01*
X50350Y-16258D01*
X50294Y-16230D01*
X50181Y-16202D01*
X50125Y-16174D01*
X50097Y-16146D01*
X50069Y-16090D01*
X50069Y-16033D01*
X50097Y-15977D01*
X50125Y-15949D01*
X50181Y-15921D01*
X50322Y-15921D01*
X50406Y-15949D01*
X50912Y-16483D02*
X50856Y-16512D01*
X50743Y-16512D01*
X50687Y-16483D01*
X50659Y-16455D01*
X50631Y-16399D01*
X50631Y-16230D01*
X50659Y-16174D01*
X50687Y-16146D01*
X50743Y-16118D01*
X50856Y-16118D01*
X50912Y-16146D01*
X51165Y-16512D02*
X51165Y-15921D01*
X51418Y-16512D02*
X51418Y-16202D01*
X51390Y-16146D01*
X51334Y-16118D01*
X51250Y-16118D01*
X51193Y-16146D01*
X51165Y-16174D01*
X51925Y-16483D02*
X51868Y-16512D01*
X51756Y-16512D01*
X51700Y-16483D01*
X51671Y-16427D01*
X51671Y-16202D01*
X51700Y-16146D01*
X51756Y-16118D01*
X51868Y-16118D01*
X51925Y-16146D01*
X51953Y-16202D01*
X51953Y-16258D01*
X51671Y-16315D01*
X52206Y-16512D02*
X52206Y-16118D01*
X52206Y-16174D02*
X52234Y-16146D01*
X52290Y-16118D01*
X52375Y-16118D01*
X52431Y-16146D01*
X52459Y-16202D01*
X52459Y-16512D01*
X52459Y-16202D02*
X52487Y-16146D01*
X52543Y-16118D01*
X52628Y-16118D01*
X52684Y-16146D01*
X52712Y-16202D01*
X52712Y-16512D01*
X53246Y-16512D02*
X53246Y-16202D01*
X53218Y-16146D01*
X53162Y-16118D01*
X53049Y-16118D01*
X52993Y-16146D01*
X53246Y-16483D02*
X53190Y-16512D01*
X53049Y-16512D01*
X52993Y-16483D01*
X52965Y-16427D01*
X52965Y-16371D01*
X52993Y-16315D01*
X53049Y-16287D01*
X53190Y-16287D01*
X53246Y-16258D01*
X53443Y-16118D02*
X53668Y-16118D01*
X53528Y-15921D02*
X53528Y-16427D01*
X53556Y-16483D01*
X53612Y-16512D01*
X53668Y-16512D01*
X53865Y-16512D02*
X53865Y-16118D01*
X53865Y-15921D02*
X53837Y-15949D01*
X53865Y-15977D01*
X53893Y-15949D01*
X53865Y-15921D01*
X53865Y-15977D01*
X54399Y-16483D02*
X54343Y-16512D01*
X54231Y-16512D01*
X54174Y-16483D01*
X54146Y-16455D01*
X54118Y-16399D01*
X54118Y-16230D01*
X54146Y-16174D01*
X54174Y-16146D01*
X54231Y-16118D01*
X54343Y-16118D01*
X54399Y-16146D01*
X54652Y-16455D02*
X54680Y-16483D01*
X54652Y-16512D01*
X54624Y-16483D01*
X54652Y-16455D01*
X54652Y-16512D01*
X54652Y-16146D02*
X54680Y-16174D01*
X54652Y-16202D01*
X54624Y-16174D01*
X54652Y-16146D01*
X54652Y-16202D01*
X48958Y-16866D02*
X49155Y-17456D01*
X49351Y-16866D01*
X49773Y-17428D02*
X49717Y-17456D01*
X49605Y-17456D01*
X49548Y-17428D01*
X49520Y-17372D01*
X49520Y-17147D01*
X49548Y-17091D01*
X49605Y-17063D01*
X49717Y-17063D01*
X49773Y-17091D01*
X49801Y-17147D01*
X49801Y-17203D01*
X49520Y-17260D01*
X50139Y-17456D02*
X50083Y-17428D01*
X50055Y-17372D01*
X50055Y-16866D01*
X50448Y-17456D02*
X50392Y-17428D01*
X50364Y-17372D01*
X50364Y-16866D01*
X50898Y-17428D02*
X50842Y-17456D01*
X50729Y-17456D01*
X50673Y-17428D01*
X50645Y-17372D01*
X50645Y-17147D01*
X50673Y-17091D01*
X50729Y-17063D01*
X50842Y-17063D01*
X50898Y-17091D01*
X50926Y-17147D01*
X50926Y-17203D01*
X50645Y-17260D01*
X51179Y-17456D02*
X51179Y-17063D01*
X51179Y-17119D02*
X51207Y-17091D01*
X51264Y-17063D01*
X51348Y-17063D01*
X51404Y-17091D01*
X51432Y-17147D01*
X51432Y-17456D01*
X51432Y-17147D02*
X51461Y-17091D01*
X51517Y-17063D01*
X51601Y-17063D01*
X51657Y-17091D01*
X51686Y-17147D01*
X51686Y-17456D01*
X52220Y-17456D02*
X52220Y-17147D01*
X52192Y-17091D01*
X52135Y-17063D01*
X52023Y-17063D01*
X51967Y-17091D01*
X52220Y-17428D02*
X52164Y-17456D01*
X52023Y-17456D01*
X51967Y-17428D01*
X51939Y-17372D01*
X51939Y-17316D01*
X51967Y-17260D01*
X52023Y-17231D01*
X52164Y-17231D01*
X52220Y-17203D01*
X52501Y-17063D02*
X52501Y-17456D01*
X52501Y-17119D02*
X52529Y-17091D01*
X52585Y-17063D01*
X52670Y-17063D01*
X52726Y-17091D01*
X52754Y-17147D01*
X52754Y-17456D01*
X53485Y-17456D02*
X53485Y-17063D01*
X53485Y-17119D02*
X53513Y-17091D01*
X53570Y-17063D01*
X53654Y-17063D01*
X53710Y-17091D01*
X53738Y-17147D01*
X53738Y-17456D01*
X53738Y-17147D02*
X53767Y-17091D01*
X53823Y-17063D01*
X53907Y-17063D01*
X53963Y-17091D01*
X53992Y-17147D01*
X53992Y-17456D01*
X54273Y-17456D02*
X54273Y-16866D01*
X54329Y-17231D02*
X54498Y-17456D01*
X54498Y-17063D02*
X54273Y-17288D01*
X55060Y-17456D02*
X54723Y-17456D01*
X54891Y-17456D02*
X54891Y-16866D01*
X54835Y-16950D01*
X54779Y-17006D01*
X54723Y-17035D01*
X55594Y-16866D02*
X55313Y-16866D01*
X55285Y-17147D01*
X55313Y-17119D01*
X55369Y-17091D01*
X55510Y-17091D01*
X55566Y-17119D01*
X55594Y-17147D01*
X55623Y-17203D01*
X55623Y-17344D01*
X55594Y-17400D01*
X55566Y-17428D01*
X55510Y-17456D01*
X55369Y-17456D01*
X55313Y-17428D01*
X55285Y-17400D01*
X55848Y-16922D02*
X55876Y-16894D01*
X55932Y-16866D01*
X56073Y-16866D01*
X56129Y-16894D01*
X56157Y-16922D01*
X56185Y-16978D01*
X56185Y-17035D01*
X56157Y-17119D01*
X55819Y-17456D01*
X56185Y-17456D01*
G54D12*
X67000Y-23000D02*
G75*
G03X67000Y-23000I-12500J0D01*
G74*
G01*
G54D10*
X48040Y-17290D02*
X47575Y-17290D01*
X58195Y-11975D02*
X46395Y-11975D01*
X46395Y-11975D02*
X46395Y-33475D01*
X46395Y-33475D02*
X58195Y-33475D01*
X58195Y-33475D02*
X58195Y-11975D01*
G54D13*
X51540Y-26490D02*
X51540Y-26890D01*
X51540Y-26890D02*
X51940Y-26890D01*
X51940Y-26890D02*
X51940Y-30090D01*
X51940Y-30090D02*
X51140Y-30090D01*
X51140Y-30090D02*
X51140Y-26890D01*
X51140Y-26890D02*
X51540Y-26890D01*
X51740Y-26890D02*
X51940Y-27090D01*
X51540Y-30490D02*
X51540Y-30090D01*
X50465Y-19670D02*
X50865Y-19670D01*
X50865Y-19670D02*
X50865Y-19270D01*
X50865Y-19270D02*
X54065Y-19270D01*
X54065Y-19270D02*
X54065Y-20070D01*
X54065Y-20070D02*
X50865Y-20070D01*
X50865Y-20070D02*
X50865Y-19670D01*
X50865Y-19470D02*
X51065Y-19270D01*
X54465Y-19670D02*
X54065Y-19670D01*
X49580Y-30490D02*
X49580Y-30090D01*
X49580Y-30090D02*
X49180Y-30090D01*
X49180Y-30090D02*
X49180Y-26890D01*
X49180Y-26890D02*
X49980Y-26890D01*
X49980Y-26890D02*
X49980Y-30090D01*
X49980Y-30090D02*
X49580Y-30090D01*
X49380Y-30090D02*
X49180Y-29890D01*
X49580Y-26490D02*
X49580Y-26890D01*
X50550Y-30480D02*
X50550Y-30080D01*
X50550Y-30080D02*
X50150Y-30080D01*
X50150Y-30080D02*
X50150Y-26880D01*
X50150Y-26880D02*
X50950Y-26880D01*
X50950Y-26880D02*
X50950Y-30080D01*
X50950Y-30080D02*
X50550Y-30080D01*
X50350Y-30080D02*
X50150Y-29880D01*
X50550Y-26480D02*
X50550Y-26880D01*
X50465Y-18620D02*
X50865Y-18620D01*
X50865Y-18620D02*
X50865Y-18220D01*
X50865Y-18220D02*
X54065Y-18220D01*
X54065Y-18220D02*
X54065Y-19020D01*
X54065Y-19020D02*
X50865Y-19020D01*
X50865Y-19020D02*
X50865Y-18620D01*
X50865Y-18420D02*
X51065Y-18220D01*
X54465Y-18620D02*
X54065Y-18620D01*
X55425Y-27685D02*
X55425Y-28085D01*
X55425Y-28085D02*
X55825Y-28085D01*
X55825Y-28085D02*
X55825Y-31285D01*
X55825Y-31285D02*
X55025Y-31285D01*
X55025Y-31285D02*
X55025Y-28085D01*
X55025Y-28085D02*
X55425Y-28085D01*
X55625Y-28085D02*
X55825Y-28285D01*
X55425Y-31685D02*
X55425Y-31285D01*
G54D14*
X62620Y-32250D02*
X62620Y-30750D01*
G54D15*
X62307Y-31500D02*
G75*
G03X62307Y-31500I-707J0D01*
G74*
G01*
G54D16*
X62599Y-30748D02*
G75*
G03X62600Y-32250I-999J-751D01*
G74*
G01*
G54D17*
X61600Y-31050D02*
G75*
G03X61150Y-31500I0J-450D01*
G74*
G01*
X61600Y-31950D02*
G75*
G03X62050Y-31500I0J450D01*
G74*
G01*
X61600Y-30850D02*
G75*
G03X60950Y-31500I0J-650D01*
G74*
G01*
X61600Y-32150D02*
G75*
G03X62250Y-31500I0J650D01*
G74*
G01*
X61600Y-30650D02*
G75*
G03X60750Y-31500I0J-850D01*
G74*
G01*
X61600Y-32350D02*
G75*
G03X62450Y-31500I0J850D01*
G74*
G01*
G54D14*
X66120Y-26750D02*
X66120Y-25250D01*
G54D15*
X65807Y-26000D02*
G75*
G03X65807Y-26000I-707J0D01*
G74*
G01*
G54D16*
X66099Y-25248D02*
G75*
G03X66100Y-26750I-999J-751D01*
G74*
G01*
G54D17*
X65100Y-25550D02*
G75*
G03X64650Y-26000I0J-450D01*
G74*
G01*
X65100Y-26450D02*
G75*
G03X65550Y-26000I0J450D01*
G74*
G01*
X65100Y-25350D02*
G75*
G03X64450Y-26000I0J-650D01*
G74*
G01*
X65100Y-26650D02*
G75*
G03X65750Y-26000I0J650D01*
G74*
G01*
X65100Y-25150D02*
G75*
G03X64250Y-26000I0J-850D01*
G74*
G01*
X65100Y-26850D02*
G75*
G03X65950Y-26000I0J850D01*
G74*
G01*
G54D14*
X66120Y-19750D02*
X66120Y-18250D01*
G54D15*
X65807Y-19000D02*
G75*
G03X65807Y-19000I-707J0D01*
G74*
G01*
G54D16*
X66099Y-18248D02*
G75*
G03X66100Y-19750I-999J-751D01*
G74*
G01*
G54D17*
X65100Y-18550D02*
G75*
G03X64650Y-19000I0J-450D01*
G74*
G01*
X65100Y-19450D02*
G75*
G03X65550Y-19000I0J450D01*
G74*
G01*
X65100Y-18350D02*
G75*
G03X64450Y-19000I0J-650D01*
G74*
G01*
X65100Y-19650D02*
G75*
G03X65750Y-19000I0J650D01*
G74*
G01*
X65100Y-18150D02*
G75*
G03X64250Y-19000I0J-850D01*
G74*
G01*
X65100Y-19850D02*
G75*
G03X65950Y-19000I0J850D01*
G74*
G01*
G54D14*
X61250Y-12880D02*
X59750Y-12880D01*
G54D15*
X61207Y-13900D02*
G75*
G03X61207Y-13900I-707J0D01*
G74*
G01*
G54D16*
X59748Y-12900D02*
G75*
G03X61250Y-12900I751J-999D01*
G74*
G01*
G54D17*
X60050Y-13900D02*
G75*
G03X60500Y-14350I450J0D01*
G74*
G01*
X60950Y-13900D02*
G75*
G03X60500Y-13450I-450J0D01*
G74*
G01*
X59850Y-13900D02*
G75*
G03X60500Y-14550I650J0D01*
G74*
G01*
X61150Y-13900D02*
G75*
G03X60500Y-13250I-650J0D01*
G74*
G01*
X59650Y-13900D02*
G75*
G03X60500Y-14750I850J0D01*
G74*
G01*
X61350Y-13900D02*
G75*
G03X60500Y-13050I-850J0D01*
G74*
G01*
G54D14*
X54750Y-10880D02*
X53250Y-10880D01*
G54D15*
X54707Y-11900D02*
G75*
G03X54707Y-11900I-707J0D01*
G74*
G01*
G54D16*
X53248Y-10900D02*
G75*
G03X54750Y-10900I751J-999D01*
G74*
G01*
G54D17*
X53550Y-11900D02*
G75*
G03X54000Y-12350I450J0D01*
G74*
G01*
X54450Y-11900D02*
G75*
G03X54000Y-11450I-450J0D01*
G74*
G01*
X53350Y-11900D02*
G75*
G03X54000Y-12550I650J0D01*
G74*
G01*
X54650Y-11900D02*
G75*
G03X54000Y-11250I-650J0D01*
G74*
G01*
X53150Y-11900D02*
G75*
G03X54000Y-12750I850J0D01*
G74*
G01*
X54850Y-11900D02*
G75*
G03X54000Y-11050I-850J0D01*
G74*
G01*
G54D14*
X48750Y-12880D02*
X47250Y-12880D01*
G54D15*
X48707Y-13900D02*
G75*
G03X48707Y-13900I-707J0D01*
G74*
G01*
G54D16*
X47248Y-12900D02*
G75*
G03X48750Y-12900I751J-999D01*
G74*
G01*
G54D17*
X47550Y-13900D02*
G75*
G03X48000Y-14350I450J0D01*
G74*
G01*
X48450Y-13900D02*
G75*
G03X48000Y-13450I-450J0D01*
G74*
G01*
X47350Y-13900D02*
G75*
G03X48000Y-14550I650J0D01*
G74*
G01*
X48650Y-13900D02*
G75*
G03X48000Y-13250I-650J0D01*
G74*
G01*
X47150Y-13900D02*
G75*
G03X48000Y-14750I850J0D01*
G74*
G01*
X48850Y-13900D02*
G75*
G03X48000Y-13050I-850J0D01*
G74*
G01*
G54D14*
X42880Y-18250D02*
X42880Y-19750D01*
G54D15*
X44607Y-19000D02*
G75*
G03X44607Y-19000I-707J0D01*
G74*
G01*
G54D16*
X42900Y-19751D02*
G75*
G03X42900Y-18250I999J751D01*
G74*
G01*
G54D17*
X43900Y-19450D02*
G75*
G03X44350Y-19000I0J450D01*
G74*
G01*
X43900Y-18550D02*
G75*
G03X43450Y-19000I0J-450D01*
G74*
G01*
X43900Y-19650D02*
G75*
G03X44550Y-19000I0J650D01*
G74*
G01*
X43900Y-18350D02*
G75*
G03X43250Y-19000I0J-650D01*
G74*
G01*
X43900Y-19850D02*
G75*
G03X44750Y-19000I0J850D01*
G74*
G01*
X43900Y-18150D02*
G75*
G03X43050Y-19000I0J-850D01*
G74*
G01*
G54D14*
X42880Y-25750D02*
X42880Y-27250D01*
G54D15*
X44607Y-26500D02*
G75*
G03X44607Y-26500I-707J0D01*
G74*
G01*
G54D16*
X42900Y-27251D02*
G75*
G03X42900Y-25750I999J751D01*
G74*
G01*
G54D17*
X43900Y-26950D02*
G75*
G03X44350Y-26500I0J450D01*
G74*
G01*
X43900Y-26050D02*
G75*
G03X43450Y-26500I0J-450D01*
G74*
G01*
X43900Y-27150D02*
G75*
G03X44550Y-26500I0J650D01*
G74*
G01*
X43900Y-25850D02*
G75*
G03X43250Y-26500I0J-650D01*
G74*
G01*
X43900Y-27350D02*
G75*
G03X44750Y-26500I0J850D01*
G74*
G01*
X43900Y-25650D02*
G75*
G03X43050Y-26500I0J-850D01*
G74*
G01*
G54D14*
X46880Y-31250D02*
X46880Y-32750D01*
G54D15*
X48607Y-32000D02*
G75*
G03X48607Y-32000I-707J0D01*
G74*
G01*
G54D16*
X46900Y-32751D02*
G75*
G03X46900Y-31250I999J751D01*
G74*
G01*
G54D17*
X47900Y-32450D02*
G75*
G03X48350Y-32000I0J450D01*
G74*
G01*
X47900Y-31550D02*
G75*
G03X47450Y-32000I0J-450D01*
G74*
G01*
X47900Y-32650D02*
G75*
G03X48550Y-32000I0J650D01*
G74*
G01*
X47900Y-31350D02*
G75*
G03X47250Y-32000I0J-650D01*
G74*
G01*
X47900Y-32850D02*
G75*
G03X48750Y-32000I0J850D01*
G74*
G01*
X47900Y-31150D02*
G75*
G03X47050Y-32000I0J-850D01*
G74*
G01*
G54D14*
X54250Y-35120D02*
X55750Y-35120D01*
G54D15*
X55707Y-34100D02*
G75*
G03X55707Y-34100I-707J0D01*
G74*
G01*
G54D16*
X55751Y-35099D02*
G75*
G03X54250Y-35100I-751J999D01*
G74*
G01*
G54D17*
X55450Y-34100D02*
G75*
G03X55000Y-33650I-450J0D01*
G74*
G01*
X54550Y-34100D02*
G75*
G03X55000Y-34550I450J0D01*
G74*
G01*
X55650Y-34100D02*
G75*
G03X55000Y-33450I-650J0D01*
G74*
G01*
X54350Y-34100D02*
G75*
G03X55000Y-34750I650J0D01*
G74*
G01*
X55850Y-34100D02*
G75*
G03X55000Y-33250I-850J0D01*
G74*
G01*
X54150Y-34100D02*
G75*
G03X55000Y-34950I850J0D01*
G74*
G01*
G54D18*
X59500Y-25500D02*
X59500Y-25500D01*
X59500Y-25500D02*
X59500Y-25000D01*
X59500Y-25000D02*
X60500Y-25000D01*
X60500Y-25000D02*
X60500Y-25500D01*
X59000Y-25500D02*
X59000Y-16500D01*
X59000Y-16500D02*
X61000Y-16500D01*
X61000Y-16500D02*
X61000Y-25500D01*
X61000Y-25500D02*
X59000Y-25500D01*
X46500Y-22000D02*
X54500Y-22000D01*
X54500Y-24000D02*
X46500Y-24000D01*
X46500Y-24000D02*
X46500Y-22000D01*
X46500Y-22500D02*
X47000Y-22500D01*
X47000Y-22500D02*
X47000Y-23500D01*
X47000Y-23500D02*
X46500Y-23500D01*
X54500Y-22000D02*
X54500Y-24000D01*
G54D13*
X46230Y-29480D02*
X46230Y-29180D01*
X46230Y-29180D02*
X46630Y-29180D01*
X46630Y-29180D02*
X46630Y-26780D01*
X46630Y-26780D02*
X46230Y-26780D01*
X46230Y-26780D02*
X46230Y-26480D01*
X46230Y-26780D02*
X45830Y-26780D01*
X45830Y-26780D02*
X45830Y-29180D01*
X45830Y-29180D02*
X46230Y-29180D01*
X46630Y-28980D02*
X45830Y-28980D01*
X45830Y-28880D02*
X46630Y-28880D01*
X57785Y-19530D02*
X57785Y-21510D01*
X57785Y-21510D02*
X56785Y-21510D01*
X56785Y-21510D02*
X56785Y-19510D01*
X56785Y-19510D02*
X57785Y-19510D01*
X57535Y-19510D02*
X57785Y-19760D01*
G54D19*
X54806Y-27780D02*
G75*
G03X54806Y-27780I-1001J0D01*
G74*
G01*
X54086Y-29760D02*
G75*
G03X54086Y-29760I-1001J0D01*
G74*
G01*
G54D13*
X47410Y-19450D02*
X47410Y-20450D01*
X47410Y-20450D02*
X45410Y-20450D01*
X45410Y-20450D02*
X45410Y-19450D01*
X45410Y-19450D02*
X47410Y-19450D01*
G54D19*
X45520Y-22645D02*
G75*
G03X45520Y-22645I-1000J0D01*
G74*
G01*
X46020Y-21145D02*
X46020Y-24145D01*
X46020Y-24145D02*
X43020Y-24145D01*
X43020Y-24145D02*
X43020Y-21145D01*
X46020Y-21145D02*
X43020Y-21145D01*
G54D10*
X57896Y-28558D02*
X57915Y-28501D01*
X57934Y-28483D01*
X57971Y-28464D01*
X58028Y-28464D01*
X58065Y-28483D01*
X58084Y-28501D01*
X58103Y-28539D01*
X58103Y-28689D01*
X57709Y-28689D01*
X57709Y-28558D01*
X57728Y-28520D01*
X57746Y-28501D01*
X57784Y-28483D01*
X57821Y-28483D01*
X57859Y-28501D01*
X57878Y-28520D01*
X57896Y-28558D01*
X57896Y-28689D01*
X58103Y-28295D02*
X57709Y-28295D01*
X57896Y-28295D02*
X57896Y-28070D01*
X58103Y-28070D02*
X57709Y-28070D01*
X58103Y-27864D02*
X58103Y-27789D01*
X58084Y-27751D01*
X58065Y-27733D01*
X58009Y-27695D01*
X57934Y-27676D01*
X57784Y-27676D01*
X57746Y-27695D01*
X57728Y-27714D01*
X57709Y-27751D01*
X57709Y-27826D01*
X57728Y-27864D01*
X57746Y-27883D01*
X57784Y-27901D01*
X57878Y-27901D01*
X57915Y-27883D01*
X57934Y-27864D01*
X57953Y-27826D01*
X57953Y-27751D01*
X57934Y-27714D01*
X57915Y-27695D01*
X57878Y-27676D01*
X57709Y-27564D02*
X58103Y-27433D01*
X57709Y-27301D01*
X58103Y-27170D02*
X57709Y-27170D01*
X57709Y-27020D01*
X57728Y-26983D01*
X57746Y-26964D01*
X57784Y-26945D01*
X57840Y-26945D01*
X57878Y-26964D01*
X57896Y-26983D01*
X57915Y-27020D01*
X57915Y-27170D01*
X58065Y-26552D02*
X58084Y-26570D01*
X58103Y-26627D01*
X58103Y-26664D01*
X58084Y-26720D01*
X58046Y-26758D01*
X58009Y-26776D01*
X57934Y-26795D01*
X57878Y-26795D01*
X57803Y-26776D01*
X57765Y-26758D01*
X57728Y-26720D01*
X57709Y-26664D01*
X57709Y-26627D01*
X57728Y-26570D01*
X57746Y-26552D01*
X51820Y-23589D02*
X51951Y-23983D01*
X52083Y-23589D01*
X52195Y-23870D02*
X52383Y-23870D01*
X52158Y-23983D02*
X52289Y-23589D01*
X52420Y-23983D01*
X52739Y-23983D02*
X52551Y-23983D01*
X52551Y-23589D01*
X52926Y-23589D02*
X52926Y-23683D01*
X52833Y-23645D02*
X52926Y-23683D01*
X53020Y-23645D01*
X52870Y-23758D02*
X52926Y-23683D01*
X52983Y-23758D01*
X53226Y-23589D02*
X53226Y-23683D01*
X53133Y-23645D02*
X53226Y-23683D01*
X53320Y-23645D01*
X53170Y-23758D02*
X53226Y-23683D01*
X53283Y-23758D01*
G54D14*
X51818Y-29628D02*
X51556Y-29795D01*
X51818Y-29914D02*
X51268Y-29914D01*
X51268Y-29723D01*
X51295Y-29675D01*
X51321Y-29652D01*
X51373Y-29628D01*
X51452Y-29628D01*
X51504Y-29652D01*
X51530Y-29675D01*
X51556Y-29723D01*
X51556Y-29914D01*
X51818Y-29152D02*
X51818Y-29437D01*
X51818Y-29295D02*
X51268Y-29295D01*
X51347Y-29342D01*
X51399Y-29390D01*
X51425Y-29437D01*
X51492Y-28550D02*
X51858Y-28550D01*
X51282Y-28670D02*
X51675Y-28789D01*
X51675Y-28479D01*
X51308Y-28336D02*
X51308Y-28003D01*
X51858Y-28217D01*
X51308Y-27717D02*
X51308Y-27670D01*
X51335Y-27622D01*
X51361Y-27598D01*
X51413Y-27574D01*
X51518Y-27550D01*
X51649Y-27550D01*
X51754Y-27574D01*
X51806Y-27598D01*
X51832Y-27622D01*
X51858Y-27670D01*
X51858Y-27717D01*
X51832Y-27765D01*
X51806Y-27789D01*
X51754Y-27812D01*
X51649Y-27836D01*
X51518Y-27836D01*
X51413Y-27812D01*
X51361Y-27789D01*
X51335Y-27765D01*
X51308Y-27717D01*
X51858Y-27336D02*
X51308Y-27336D01*
X51858Y-27050D02*
X51544Y-27265D01*
X51308Y-27050D02*
X51623Y-27336D01*
X51331Y-19938D02*
X51165Y-19676D01*
X51045Y-19938D02*
X51045Y-19388D01*
X51236Y-19388D01*
X51284Y-19415D01*
X51307Y-19441D01*
X51331Y-19493D01*
X51331Y-19572D01*
X51307Y-19624D01*
X51284Y-19650D01*
X51236Y-19676D01*
X51045Y-19676D01*
X51522Y-19441D02*
X51545Y-19415D01*
X51593Y-19388D01*
X51712Y-19388D01*
X51760Y-19415D01*
X51784Y-19441D01*
X51807Y-19493D01*
X51807Y-19545D01*
X51784Y-19624D01*
X51498Y-19938D01*
X51807Y-19938D01*
X52614Y-19368D02*
X52924Y-19368D01*
X52757Y-19578D01*
X52828Y-19578D01*
X52876Y-19604D01*
X52900Y-19630D01*
X52924Y-19683D01*
X52924Y-19814D01*
X52900Y-19866D01*
X52876Y-19892D01*
X52828Y-19918D01*
X52685Y-19918D01*
X52638Y-19892D01*
X52614Y-19866D01*
X53138Y-19918D02*
X53138Y-19368D01*
X53305Y-19761D01*
X53471Y-19368D01*
X53471Y-19918D01*
X53662Y-19368D02*
X53971Y-19368D01*
X53805Y-19578D01*
X53876Y-19578D01*
X53924Y-19604D01*
X53947Y-19630D01*
X53971Y-19683D01*
X53971Y-19814D01*
X53947Y-19866D01*
X53924Y-19892D01*
X53876Y-19918D01*
X53733Y-19918D01*
X53685Y-19892D01*
X53662Y-19866D01*
X49878Y-29608D02*
X49616Y-29775D01*
X49878Y-29894D02*
X49328Y-29894D01*
X49328Y-29703D01*
X49355Y-29655D01*
X49381Y-29632D01*
X49433Y-29608D01*
X49512Y-29608D01*
X49564Y-29632D01*
X49590Y-29655D01*
X49616Y-29703D01*
X49616Y-29894D01*
X49328Y-29155D02*
X49328Y-29394D01*
X49590Y-29417D01*
X49564Y-29394D01*
X49538Y-29346D01*
X49538Y-29227D01*
X49564Y-29179D01*
X49590Y-29155D01*
X49643Y-29132D01*
X49774Y-29132D01*
X49826Y-29155D01*
X49852Y-29179D01*
X49878Y-29227D01*
X49878Y-29346D01*
X49852Y-29394D01*
X49826Y-29417D01*
X49838Y-28045D02*
X49838Y-28330D01*
X49838Y-28188D02*
X49288Y-28188D01*
X49367Y-28235D01*
X49419Y-28283D01*
X49445Y-28330D01*
X49288Y-27735D02*
X49288Y-27688D01*
X49315Y-27640D01*
X49341Y-27616D01*
X49393Y-27592D01*
X49498Y-27569D01*
X49629Y-27569D01*
X49734Y-27592D01*
X49786Y-27616D01*
X49812Y-27640D01*
X49838Y-27688D01*
X49838Y-27735D01*
X49812Y-27783D01*
X49786Y-27807D01*
X49734Y-27830D01*
X49629Y-27854D01*
X49498Y-27854D01*
X49393Y-27830D01*
X49341Y-27807D01*
X49315Y-27783D01*
X49288Y-27735D01*
X49838Y-27354D02*
X49288Y-27354D01*
X49838Y-27069D02*
X49524Y-27283D01*
X49288Y-27069D02*
X49603Y-27354D01*
X50803Y-29628D02*
X50541Y-29795D01*
X50803Y-29914D02*
X50253Y-29914D01*
X50253Y-29723D01*
X50280Y-29675D01*
X50306Y-29652D01*
X50358Y-29628D01*
X50437Y-29628D01*
X50489Y-29652D01*
X50515Y-29675D01*
X50541Y-29723D01*
X50541Y-29914D01*
X50253Y-29461D02*
X50253Y-29152D01*
X50463Y-29318D01*
X50463Y-29247D01*
X50489Y-29199D01*
X50515Y-29175D01*
X50568Y-29152D01*
X50699Y-29152D01*
X50751Y-29175D01*
X50777Y-29199D01*
X50803Y-29247D01*
X50803Y-29390D01*
X50777Y-29437D01*
X50751Y-29461D01*
X50803Y-28503D02*
X50803Y-28789D01*
X50803Y-28646D02*
X50253Y-28646D01*
X50332Y-28693D01*
X50384Y-28741D01*
X50410Y-28789D01*
X50253Y-28193D02*
X50253Y-28146D01*
X50280Y-28098D01*
X50306Y-28074D01*
X50358Y-28050D01*
X50463Y-28027D01*
X50594Y-28027D01*
X50699Y-28050D01*
X50751Y-28074D01*
X50777Y-28098D01*
X50803Y-28146D01*
X50803Y-28193D01*
X50777Y-28241D01*
X50751Y-28265D01*
X50699Y-28289D01*
X50594Y-28312D01*
X50463Y-28312D01*
X50358Y-28289D01*
X50306Y-28265D01*
X50280Y-28241D01*
X50253Y-28193D01*
X50253Y-27717D02*
X50253Y-27670D01*
X50280Y-27622D01*
X50306Y-27598D01*
X50358Y-27574D01*
X50463Y-27550D01*
X50594Y-27550D01*
X50699Y-27574D01*
X50751Y-27598D01*
X50777Y-27622D01*
X50803Y-27670D01*
X50803Y-27717D01*
X50777Y-27765D01*
X50751Y-27789D01*
X50699Y-27812D01*
X50594Y-27836D01*
X50463Y-27836D01*
X50358Y-27812D01*
X50306Y-27789D01*
X50280Y-27765D01*
X50253Y-27717D01*
X50803Y-27336D02*
X50253Y-27336D01*
X50803Y-27050D02*
X50489Y-27265D01*
X50253Y-27050D02*
X50568Y-27336D01*
X51331Y-18858D02*
X51165Y-18596D01*
X51045Y-18858D02*
X51045Y-18308D01*
X51236Y-18308D01*
X51284Y-18335D01*
X51307Y-18361D01*
X51331Y-18413D01*
X51331Y-18492D01*
X51307Y-18544D01*
X51284Y-18570D01*
X51236Y-18596D01*
X51045Y-18596D01*
X51760Y-18492D02*
X51760Y-18858D01*
X51641Y-18282D02*
X51522Y-18675D01*
X51831Y-18675D01*
X53407Y-18883D02*
X53121Y-18883D01*
X53264Y-18883D02*
X53264Y-18333D01*
X53216Y-18412D01*
X53169Y-18464D01*
X53121Y-18490D01*
X53621Y-18883D02*
X53621Y-18333D01*
X53788Y-18726D01*
X53954Y-18333D01*
X53954Y-18883D01*
X55733Y-30903D02*
X55471Y-31070D01*
X55733Y-31189D02*
X55183Y-31189D01*
X55183Y-30998D01*
X55210Y-30950D01*
X55236Y-30927D01*
X55288Y-30903D01*
X55367Y-30903D01*
X55419Y-30927D01*
X55445Y-30950D01*
X55471Y-30998D01*
X55471Y-31189D01*
X55183Y-30474D02*
X55183Y-30570D01*
X55210Y-30617D01*
X55236Y-30641D01*
X55314Y-30689D01*
X55419Y-30712D01*
X55629Y-30712D01*
X55681Y-30689D01*
X55707Y-30665D01*
X55733Y-30617D01*
X55733Y-30522D01*
X55707Y-30474D01*
X55681Y-30450D01*
X55629Y-30427D01*
X55498Y-30427D01*
X55445Y-30450D01*
X55419Y-30474D01*
X55393Y-30522D01*
X55393Y-30617D01*
X55419Y-30665D01*
X55445Y-30689D01*
X55498Y-30712D01*
G54D17*
X55213Y-29906D02*
X55190Y-29887D01*
X55166Y-29849D01*
X55166Y-29754D01*
X55190Y-29716D01*
X55213Y-29697D01*
X55261Y-29678D01*
X55309Y-29678D01*
X55380Y-29697D01*
X55666Y-29925D01*
X55666Y-29678D01*
X55213Y-29525D02*
X55190Y-29506D01*
X55166Y-29468D01*
X55166Y-29373D01*
X55190Y-29335D01*
X55213Y-29316D01*
X55261Y-29297D01*
X55309Y-29297D01*
X55380Y-29316D01*
X55666Y-29544D01*
X55666Y-29297D01*
X55166Y-29049D02*
X55166Y-29011D01*
X55190Y-28973D01*
X55213Y-28954D01*
X55261Y-28935D01*
X55356Y-28916D01*
X55475Y-28916D01*
X55570Y-28935D01*
X55618Y-28954D01*
X55642Y-28973D01*
X55666Y-29011D01*
X55666Y-29049D01*
X55642Y-29087D01*
X55618Y-29106D01*
X55570Y-29125D01*
X55475Y-29144D01*
X55356Y-29144D01*
X55261Y-29125D01*
X55213Y-29106D01*
X55190Y-29087D01*
X55166Y-29049D01*
X55404Y-28744D02*
X55404Y-28611D01*
X55666Y-28554D02*
X55666Y-28744D01*
X55166Y-28744D01*
X55166Y-28554D01*
X55166Y-28306D02*
X55166Y-28268D01*
X55190Y-28230D01*
X55213Y-28211D01*
X55261Y-28192D01*
X55356Y-28173D01*
X55475Y-28173D01*
X55570Y-28192D01*
X55618Y-28211D01*
X55642Y-28230D01*
X55666Y-28268D01*
X55666Y-28306D01*
X55642Y-28344D01*
X55618Y-28363D01*
X55570Y-28382D01*
X55475Y-28401D01*
X55356Y-28401D01*
X55261Y-28382D01*
X55213Y-28363D01*
X55190Y-28344D01*
X55166Y-28306D01*
G54D20*
X61135Y-30135D02*
X61135Y-29835D01*
X61207Y-29835D01*
X61250Y-29850D01*
X61278Y-29878D01*
X61292Y-29907D01*
X61307Y-29964D01*
X61307Y-30007D01*
X61292Y-30064D01*
X61278Y-30092D01*
X61250Y-30121D01*
X61207Y-30135D01*
X61135Y-30135D01*
X61592Y-30135D02*
X61421Y-30135D01*
X61507Y-30135D02*
X61507Y-29835D01*
X61478Y-29878D01*
X61450Y-29907D01*
X61421Y-29921D01*
X61878Y-30135D02*
X61707Y-30135D01*
X61792Y-30135D02*
X61792Y-29835D01*
X61764Y-29878D01*
X61735Y-29907D01*
X61707Y-29921D01*
X61307Y-33135D02*
X61164Y-33135D01*
X61164Y-32835D01*
X61407Y-32978D02*
X61507Y-32978D01*
X61550Y-33135D02*
X61407Y-33135D01*
X61407Y-32835D01*
X61550Y-32835D01*
X61678Y-33135D02*
X61678Y-32835D01*
X61750Y-32835D01*
X61792Y-32850D01*
X61821Y-32878D01*
X61835Y-32907D01*
X61850Y-32964D01*
X61850Y-33007D01*
X61835Y-33064D01*
X61821Y-33092D01*
X61792Y-33121D01*
X61750Y-33135D01*
X61678Y-33135D01*
X64635Y-24635D02*
X64635Y-24335D01*
X64707Y-24335D01*
X64750Y-24350D01*
X64778Y-24378D01*
X64792Y-24407D01*
X64807Y-24464D01*
X64807Y-24507D01*
X64792Y-24564D01*
X64778Y-24592D01*
X64750Y-24621D01*
X64707Y-24635D01*
X64635Y-24635D01*
X65092Y-24635D02*
X64921Y-24635D01*
X65007Y-24635D02*
X65007Y-24335D01*
X64978Y-24378D01*
X64950Y-24407D01*
X64921Y-24421D01*
X65278Y-24335D02*
X65307Y-24335D01*
X65335Y-24350D01*
X65350Y-24364D01*
X65364Y-24392D01*
X65378Y-24450D01*
X65378Y-24521D01*
X65364Y-24578D01*
X65350Y-24607D01*
X65335Y-24621D01*
X65307Y-24635D01*
X65278Y-24635D01*
X65250Y-24621D01*
X65235Y-24607D01*
X65221Y-24578D01*
X65207Y-24521D01*
X65207Y-24450D01*
X65221Y-24392D01*
X65235Y-24364D01*
X65250Y-24350D01*
X65278Y-24335D01*
X64807Y-27635D02*
X64664Y-27635D01*
X64664Y-27335D01*
X64907Y-27478D02*
X65007Y-27478D01*
X65050Y-27635D02*
X64907Y-27635D01*
X64907Y-27335D01*
X65050Y-27335D01*
X65178Y-27635D02*
X65178Y-27335D01*
X65250Y-27335D01*
X65292Y-27350D01*
X65321Y-27378D01*
X65335Y-27407D01*
X65350Y-27464D01*
X65350Y-27507D01*
X65335Y-27564D01*
X65321Y-27592D01*
X65292Y-27621D01*
X65250Y-27635D01*
X65178Y-27635D01*
X64778Y-17635D02*
X64778Y-17335D01*
X64850Y-17335D01*
X64892Y-17350D01*
X64921Y-17378D01*
X64935Y-17407D01*
X64950Y-17464D01*
X64950Y-17507D01*
X64935Y-17564D01*
X64921Y-17592D01*
X64892Y-17621D01*
X64850Y-17635D01*
X64778Y-17635D01*
X65092Y-17635D02*
X65150Y-17635D01*
X65178Y-17621D01*
X65192Y-17607D01*
X65221Y-17564D01*
X65235Y-17507D01*
X65235Y-17392D01*
X65221Y-17364D01*
X65207Y-17350D01*
X65178Y-17335D01*
X65121Y-17335D01*
X65092Y-17350D01*
X65078Y-17364D01*
X65064Y-17392D01*
X65064Y-17464D01*
X65078Y-17492D01*
X65092Y-17507D01*
X65121Y-17521D01*
X65178Y-17521D01*
X65207Y-17507D01*
X65221Y-17492D01*
X65235Y-17464D01*
X64807Y-20635D02*
X64664Y-20635D01*
X64664Y-20335D01*
X64907Y-20478D02*
X65007Y-20478D01*
X65050Y-20635D02*
X64907Y-20635D01*
X64907Y-20335D01*
X65050Y-20335D01*
X65178Y-20635D02*
X65178Y-20335D01*
X65250Y-20335D01*
X65292Y-20350D01*
X65321Y-20378D01*
X65335Y-20407D01*
X65350Y-20464D01*
X65350Y-20507D01*
X65335Y-20564D01*
X65321Y-20592D01*
X65292Y-20621D01*
X65250Y-20635D01*
X65178Y-20635D01*
X59135Y-14221D02*
X58835Y-14221D01*
X58835Y-14150D01*
X58850Y-14107D01*
X58878Y-14078D01*
X58907Y-14064D01*
X58964Y-14050D01*
X59007Y-14050D01*
X59064Y-14064D01*
X59092Y-14078D01*
X59121Y-14107D01*
X59135Y-14150D01*
X59135Y-14221D01*
X58964Y-13878D02*
X58950Y-13907D01*
X58935Y-13921D01*
X58907Y-13935D01*
X58892Y-13935D01*
X58864Y-13921D01*
X58850Y-13907D01*
X58835Y-13878D01*
X58835Y-13821D01*
X58850Y-13792D01*
X58864Y-13778D01*
X58892Y-13764D01*
X58907Y-13764D01*
X58935Y-13778D01*
X58950Y-13792D01*
X58964Y-13821D01*
X58964Y-13878D01*
X58978Y-13907D01*
X58992Y-13921D01*
X59021Y-13935D01*
X59078Y-13935D01*
X59107Y-13921D01*
X59121Y-13907D01*
X59135Y-13878D01*
X59135Y-13821D01*
X59121Y-13792D01*
X59107Y-13778D01*
X59078Y-13764D01*
X59021Y-13764D01*
X58992Y-13778D01*
X58978Y-13792D01*
X58964Y-13821D01*
X62135Y-14192D02*
X62135Y-14335D01*
X61835Y-14335D01*
X61978Y-14092D02*
X61978Y-13992D01*
X62135Y-13950D02*
X62135Y-14092D01*
X61835Y-14092D01*
X61835Y-13950D01*
X62135Y-13821D02*
X61835Y-13821D01*
X61835Y-13750D01*
X61850Y-13707D01*
X61878Y-13678D01*
X61907Y-13664D01*
X61964Y-13650D01*
X62007Y-13650D01*
X62064Y-13664D01*
X62092Y-13678D01*
X62121Y-13707D01*
X62135Y-13750D01*
X62135Y-13821D01*
X52635Y-12221D02*
X52335Y-12221D01*
X52335Y-12150D01*
X52350Y-12107D01*
X52378Y-12078D01*
X52407Y-12064D01*
X52464Y-12050D01*
X52507Y-12050D01*
X52564Y-12064D01*
X52592Y-12078D01*
X52621Y-12107D01*
X52635Y-12150D01*
X52635Y-12221D01*
X52335Y-11950D02*
X52335Y-11750D01*
X52635Y-11878D01*
X55635Y-12192D02*
X55635Y-12335D01*
X55335Y-12335D01*
X55478Y-12092D02*
X55478Y-11992D01*
X55635Y-11950D02*
X55635Y-12092D01*
X55335Y-12092D01*
X55335Y-11950D01*
X55635Y-11821D02*
X55335Y-11821D01*
X55335Y-11750D01*
X55350Y-11707D01*
X55378Y-11678D01*
X55407Y-11664D01*
X55464Y-11650D01*
X55507Y-11650D01*
X55564Y-11664D01*
X55592Y-11678D01*
X55621Y-11707D01*
X55635Y-11750D01*
X55635Y-11821D01*
X46635Y-14221D02*
X46335Y-14221D01*
X46335Y-14150D01*
X46350Y-14107D01*
X46378Y-14078D01*
X46407Y-14064D01*
X46464Y-14050D01*
X46507Y-14050D01*
X46564Y-14064D01*
X46592Y-14078D01*
X46621Y-14107D01*
X46635Y-14150D01*
X46635Y-14221D01*
X46335Y-13792D02*
X46335Y-13850D01*
X46350Y-13878D01*
X46364Y-13892D01*
X46407Y-13921D01*
X46464Y-13935D01*
X46578Y-13935D01*
X46607Y-13921D01*
X46621Y-13907D01*
X46635Y-13878D01*
X46635Y-13821D01*
X46621Y-13792D01*
X46607Y-13778D01*
X46578Y-13764D01*
X46507Y-13764D01*
X46478Y-13778D01*
X46464Y-13792D01*
X46450Y-13821D01*
X46450Y-13878D01*
X46464Y-13907D01*
X46478Y-13921D01*
X46507Y-13935D01*
X49635Y-14192D02*
X49635Y-14335D01*
X49335Y-14335D01*
X49478Y-14092D02*
X49478Y-13992D01*
X49635Y-13950D02*
X49635Y-14092D01*
X49335Y-14092D01*
X49335Y-13950D01*
X49635Y-13821D02*
X49335Y-13821D01*
X49335Y-13750D01*
X49350Y-13707D01*
X49378Y-13678D01*
X49407Y-13664D01*
X49464Y-13650D01*
X49507Y-13650D01*
X49564Y-13664D01*
X49592Y-13678D01*
X49621Y-13707D01*
X49635Y-13750D01*
X49635Y-13821D01*
X43778Y-20635D02*
X43778Y-20335D01*
X43850Y-20335D01*
X43892Y-20350D01*
X43921Y-20378D01*
X43935Y-20407D01*
X43950Y-20464D01*
X43950Y-20507D01*
X43935Y-20564D01*
X43921Y-20592D01*
X43892Y-20621D01*
X43850Y-20635D01*
X43778Y-20635D01*
X44221Y-20335D02*
X44078Y-20335D01*
X44064Y-20478D01*
X44078Y-20464D01*
X44107Y-20450D01*
X44178Y-20450D01*
X44207Y-20464D01*
X44221Y-20478D01*
X44235Y-20507D01*
X44235Y-20578D01*
X44221Y-20607D01*
X44207Y-20621D01*
X44178Y-20635D01*
X44107Y-20635D01*
X44078Y-20621D01*
X44064Y-20607D01*
X43807Y-17635D02*
X43664Y-17635D01*
X43664Y-17335D01*
X43907Y-17478D02*
X44007Y-17478D01*
X44050Y-17635D02*
X43907Y-17635D01*
X43907Y-17335D01*
X44050Y-17335D01*
X44178Y-17635D02*
X44178Y-17335D01*
X44250Y-17335D01*
X44292Y-17350D01*
X44321Y-17378D01*
X44335Y-17407D01*
X44350Y-17464D01*
X44350Y-17507D01*
X44335Y-17564D01*
X44321Y-17592D01*
X44292Y-17621D01*
X44250Y-17635D01*
X44178Y-17635D01*
X43778Y-28135D02*
X43778Y-27835D01*
X43850Y-27835D01*
X43892Y-27850D01*
X43921Y-27878D01*
X43935Y-27907D01*
X43950Y-27964D01*
X43950Y-28007D01*
X43935Y-28064D01*
X43921Y-28092D01*
X43892Y-28121D01*
X43850Y-28135D01*
X43778Y-28135D01*
X44207Y-27935D02*
X44207Y-28135D01*
X44135Y-27821D02*
X44064Y-28035D01*
X44250Y-28035D01*
X43807Y-25135D02*
X43664Y-25135D01*
X43664Y-24835D01*
X43907Y-24978D02*
X44007Y-24978D01*
X44050Y-25135D02*
X43907Y-25135D01*
X43907Y-24835D01*
X44050Y-24835D01*
X44178Y-25135D02*
X44178Y-24835D01*
X44250Y-24835D01*
X44292Y-24850D01*
X44321Y-24878D01*
X44335Y-24907D01*
X44350Y-24964D01*
X44350Y-25007D01*
X44335Y-25064D01*
X44321Y-25092D01*
X44292Y-25121D01*
X44250Y-25135D01*
X44178Y-25135D01*
X47778Y-33635D02*
X47778Y-33335D01*
X47850Y-33335D01*
X47892Y-33350D01*
X47921Y-33378D01*
X47935Y-33407D01*
X47950Y-33464D01*
X47950Y-33507D01*
X47935Y-33564D01*
X47921Y-33592D01*
X47892Y-33621D01*
X47850Y-33635D01*
X47778Y-33635D01*
X48050Y-33335D02*
X48235Y-33335D01*
X48135Y-33450D01*
X48178Y-33450D01*
X48207Y-33464D01*
X48221Y-33478D01*
X48235Y-33507D01*
X48235Y-33578D01*
X48221Y-33607D01*
X48207Y-33621D01*
X48178Y-33635D01*
X48092Y-33635D01*
X48064Y-33621D01*
X48050Y-33607D01*
X47807Y-30635D02*
X47664Y-30635D01*
X47664Y-30335D01*
X47907Y-30478D02*
X48007Y-30478D01*
X48050Y-30635D02*
X47907Y-30635D01*
X47907Y-30335D01*
X48050Y-30335D01*
X48178Y-30635D02*
X48178Y-30335D01*
X48250Y-30335D01*
X48292Y-30350D01*
X48321Y-30378D01*
X48335Y-30407D01*
X48350Y-30464D01*
X48350Y-30507D01*
X48335Y-30564D01*
X48321Y-30592D01*
X48292Y-30621D01*
X48250Y-30635D01*
X48178Y-30635D01*
X56635Y-34221D02*
X56335Y-34221D01*
X56335Y-34150D01*
X56350Y-34107D01*
X56378Y-34078D01*
X56407Y-34064D01*
X56464Y-34050D01*
X56507Y-34050D01*
X56564Y-34064D01*
X56592Y-34078D01*
X56621Y-34107D01*
X56635Y-34150D01*
X56635Y-34221D01*
X56364Y-33935D02*
X56350Y-33921D01*
X56335Y-33892D01*
X56335Y-33821D01*
X56350Y-33792D01*
X56364Y-33778D01*
X56392Y-33764D01*
X56421Y-33764D01*
X56464Y-33778D01*
X56635Y-33950D01*
X56635Y-33764D01*
X53635Y-34192D02*
X53635Y-34335D01*
X53335Y-34335D01*
X53478Y-34092D02*
X53478Y-33992D01*
X53635Y-33950D02*
X53635Y-34092D01*
X53335Y-34092D01*
X53335Y-33950D01*
X53635Y-33821D02*
X53335Y-33821D01*
X53335Y-33750D01*
X53350Y-33707D01*
X53378Y-33678D01*
X53407Y-33664D01*
X53464Y-33650D01*
X53507Y-33650D01*
X53564Y-33664D01*
X53592Y-33678D01*
X53621Y-33707D01*
X53635Y-33750D01*
X53635Y-33821D01*
G54D21*
X59771Y-23939D02*
X59171Y-23939D01*
X59714Y-23467D02*
X59742Y-23489D01*
X59771Y-23553D01*
X59771Y-23596D01*
X59742Y-23660D01*
X59685Y-23703D01*
X59628Y-23724D01*
X59514Y-23746D01*
X59428Y-23746D01*
X59314Y-23724D01*
X59257Y-23703D01*
X59200Y-23660D01*
X59171Y-23596D01*
X59171Y-23553D01*
X59200Y-23489D01*
X59228Y-23467D01*
X59228Y-23296D02*
X59200Y-23274D01*
X59171Y-23232D01*
X59171Y-23124D01*
X59200Y-23082D01*
X59228Y-23060D01*
X59285Y-23039D01*
X59342Y-23039D01*
X59428Y-23060D01*
X59771Y-23317D01*
X59771Y-23039D01*
G54D13*
G54D21*
X60371Y-21057D02*
X60771Y-21057D01*
X60142Y-21164D02*
X60571Y-21271D01*
X60571Y-20992D01*
X60171Y-20735D02*
X60171Y-20692D01*
X60200Y-20650D01*
X60228Y-20628D01*
X60285Y-20607D01*
X60400Y-20585D01*
X60542Y-20585D01*
X60657Y-20607D01*
X60714Y-20628D01*
X60742Y-20650D01*
X60771Y-20692D01*
X60771Y-20735D01*
X60742Y-20778D01*
X60714Y-20800D01*
X60657Y-20821D01*
X60542Y-20842D01*
X60400Y-20842D01*
X60285Y-20821D01*
X60228Y-20800D01*
X60200Y-20778D01*
X60171Y-20735D01*
X60771Y-20157D02*
X60771Y-20414D01*
X60771Y-20285D02*
X60171Y-20285D01*
X60257Y-20328D01*
X60314Y-20371D01*
X60342Y-20414D01*
X60171Y-20007D02*
X60171Y-19707D01*
X60771Y-19900D01*
G54D13*
G54D21*
X48060Y-22771D02*
X48060Y-22171D01*
X48532Y-22714D02*
X48510Y-22742D01*
X48446Y-22771D01*
X48403Y-22771D01*
X48339Y-22742D01*
X48296Y-22685D01*
X48275Y-22628D01*
X48253Y-22514D01*
X48253Y-22428D01*
X48275Y-22314D01*
X48296Y-22257D01*
X48339Y-22200D01*
X48403Y-22171D01*
X48446Y-22171D01*
X48510Y-22200D01*
X48532Y-22228D01*
X48960Y-22771D02*
X48703Y-22771D01*
X48832Y-22771D02*
X48832Y-22171D01*
X48789Y-22257D01*
X48746Y-22314D01*
X48703Y-22342D01*
G54D13*
G54D21*
X50442Y-23371D02*
X50442Y-23771D01*
X50335Y-23142D02*
X50228Y-23571D01*
X50507Y-23571D01*
X50764Y-23171D02*
X50807Y-23171D01*
X50850Y-23200D01*
X50871Y-23228D01*
X50892Y-23285D01*
X50914Y-23400D01*
X50914Y-23542D01*
X50892Y-23657D01*
X50871Y-23714D01*
X50850Y-23742D01*
X50807Y-23771D01*
X50764Y-23771D01*
X50721Y-23742D01*
X50700Y-23714D01*
X50678Y-23657D01*
X50657Y-23542D01*
X50657Y-23400D01*
X50678Y-23285D01*
X50700Y-23228D01*
X50721Y-23200D01*
X50764Y-23171D01*
X51300Y-23171D02*
X51214Y-23171D01*
X51171Y-23200D01*
X51150Y-23228D01*
X51107Y-23314D01*
X51085Y-23428D01*
X51085Y-23657D01*
X51107Y-23714D01*
X51128Y-23742D01*
X51171Y-23771D01*
X51257Y-23771D01*
X51300Y-23742D01*
X51321Y-23714D01*
X51342Y-23657D01*
X51342Y-23514D01*
X51321Y-23457D01*
X51300Y-23428D01*
X51257Y-23400D01*
X51171Y-23400D01*
X51128Y-23428D01*
X51107Y-23457D01*
X51085Y-23514D01*
X51557Y-23771D02*
X51642Y-23771D01*
X51685Y-23742D01*
X51707Y-23714D01*
X51750Y-23628D01*
X51771Y-23514D01*
X51771Y-23285D01*
X51750Y-23228D01*
X51728Y-23200D01*
X51685Y-23171D01*
X51600Y-23171D01*
X51557Y-23200D01*
X51535Y-23228D01*
X51514Y-23285D01*
X51514Y-23428D01*
X51535Y-23485D01*
X51557Y-23514D01*
X51600Y-23542D01*
X51685Y-23542D01*
X51728Y-23514D01*
X51750Y-23485D01*
X51771Y-23428D01*
G54D13*
G54D14*
X46335Y-28785D02*
X45935Y-28785D01*
X45935Y-28689D01*
X45955Y-28632D01*
X45993Y-28594D01*
X46031Y-28575D01*
X46107Y-28556D01*
X46164Y-28556D01*
X46240Y-28575D01*
X46278Y-28594D01*
X46316Y-28632D01*
X46335Y-28689D01*
X46335Y-28785D01*
X46335Y-28175D02*
X46335Y-28404D01*
X46335Y-28289D02*
X45935Y-28289D01*
X45993Y-28328D01*
X46031Y-28366D01*
X46050Y-28404D01*
G54D22*
X46555Y-27928D02*
X46555Y-28042D01*
X46555Y-27985D02*
X46355Y-27985D01*
X46384Y-28004D01*
X46403Y-28023D01*
X46412Y-28042D01*
X46555Y-27842D02*
X46355Y-27842D01*
X46555Y-27728D01*
X46355Y-27728D01*
X46422Y-27547D02*
X46555Y-27547D01*
X46345Y-27595D02*
X46488Y-27642D01*
X46488Y-27519D01*
X46555Y-27338D02*
X46555Y-27452D01*
X46555Y-27395D02*
X46355Y-27395D01*
X46384Y-27414D01*
X46403Y-27433D01*
X46412Y-27452D01*
X46422Y-27166D02*
X46555Y-27166D01*
X46345Y-27214D02*
X46488Y-27261D01*
X46488Y-27138D01*
X46441Y-27033D02*
X46431Y-27052D01*
X46422Y-27061D01*
X46403Y-27071D01*
X46393Y-27071D01*
X46374Y-27061D01*
X46365Y-27052D01*
X46355Y-27033D01*
X46355Y-26995D01*
X46365Y-26976D01*
X46374Y-26966D01*
X46393Y-26957D01*
X46403Y-26957D01*
X46422Y-26966D01*
X46431Y-26976D01*
X46441Y-26995D01*
X46441Y-27033D01*
X46450Y-27052D01*
X46460Y-27061D01*
X46479Y-27071D01*
X46517Y-27071D01*
X46536Y-27061D01*
X46545Y-27052D01*
X46555Y-27033D01*
X46555Y-26995D01*
X46545Y-26976D01*
X46536Y-26966D01*
X46517Y-26957D01*
X46479Y-26957D01*
X46460Y-26966D01*
X46450Y-26976D01*
X46441Y-26995D01*
G54D14*
X57403Y-19337D02*
X57384Y-19356D01*
X57327Y-19375D01*
X57289Y-19375D01*
X57231Y-19356D01*
X57193Y-19318D01*
X57174Y-19280D01*
X57155Y-19204D01*
X57155Y-19147D01*
X57174Y-19071D01*
X57193Y-19033D01*
X57231Y-18995D01*
X57289Y-18975D01*
X57327Y-18975D01*
X57384Y-18995D01*
X57403Y-19014D01*
X57784Y-19375D02*
X57555Y-19375D01*
X57670Y-19375D02*
X57670Y-18975D01*
X57631Y-19033D01*
X57593Y-19071D01*
X57555Y-19090D01*
G54D19*
X54411Y-27830D02*
X54425Y-27844D01*
X54439Y-27887D01*
X54439Y-27915D01*
X54425Y-27958D01*
X54396Y-27987D01*
X54368Y-28001D01*
X54311Y-28015D01*
X54268Y-28015D01*
X54211Y-28001D01*
X54182Y-27987D01*
X54154Y-27958D01*
X54139Y-27915D01*
X54139Y-27887D01*
X54154Y-27844D01*
X54168Y-27830D01*
X54139Y-27730D02*
X54139Y-27544D01*
X54254Y-27644D01*
X54254Y-27601D01*
X54268Y-27572D01*
X54282Y-27558D01*
X54311Y-27544D01*
X54382Y-27544D01*
X54411Y-27558D01*
X54425Y-27572D01*
X54439Y-27601D01*
X54439Y-27687D01*
X54425Y-27715D01*
X54411Y-27730D01*
X53240Y-27964D02*
X53440Y-27964D01*
X53126Y-28024D02*
X53340Y-28083D01*
X53340Y-27928D01*
X53140Y-27857D02*
X53140Y-27690D01*
X53440Y-27797D01*
X53240Y-27488D02*
X53440Y-27488D01*
X53240Y-27595D02*
X53397Y-27595D01*
X53426Y-27583D01*
X53440Y-27559D01*
X53440Y-27524D01*
X53426Y-27500D01*
X53412Y-27488D01*
G54D23*
X53826Y-26994D02*
X53826Y-26765D01*
X53940Y-26880D02*
X53712Y-26880D01*
G54D14*
G54D19*
X53035Y-29368D02*
X53020Y-29382D01*
X52977Y-29396D01*
X52949Y-29396D01*
X52906Y-29382D01*
X52877Y-29353D01*
X52863Y-29325D01*
X52849Y-29268D01*
X52849Y-29225D01*
X52863Y-29168D01*
X52877Y-29139D01*
X52906Y-29111D01*
X52949Y-29096D01*
X52977Y-29096D01*
X53020Y-29111D01*
X53035Y-29125D01*
X53149Y-29125D02*
X53163Y-29111D01*
X53192Y-29096D01*
X53263Y-29096D01*
X53292Y-29111D01*
X53306Y-29125D01*
X53320Y-29153D01*
X53320Y-29182D01*
X53306Y-29225D01*
X53135Y-29396D01*
X53320Y-29396D01*
X53043Y-30395D02*
X52900Y-30395D01*
X52971Y-30395D02*
X52971Y-30095D01*
X52948Y-30138D01*
X52924Y-30167D01*
X52900Y-30181D01*
X53257Y-30195D02*
X53257Y-30395D01*
X53150Y-30195D02*
X53150Y-30352D01*
X53162Y-30381D01*
X53186Y-30395D01*
X53221Y-30395D01*
X53245Y-30381D01*
X53257Y-30367D01*
G54D23*
X52070Y-29781D02*
X52299Y-29781D01*
X52185Y-29895D02*
X52185Y-29667D01*
G54D14*
G54D24*
X47624Y-20283D02*
X47624Y-19602D01*
X47787Y-19602D01*
X47827Y-19634D01*
X47848Y-19666D01*
X47868Y-19731D01*
X47868Y-19829D01*
X47848Y-19893D01*
X47827Y-19926D01*
X47787Y-19958D01*
X47624Y-19958D01*
X48276Y-20283D02*
X48031Y-20283D01*
X48154Y-20283D02*
X48154Y-19602D01*
X48113Y-19699D01*
X48072Y-19764D01*
X48031Y-19796D01*
G54D13*
G54D14*
X44981Y-23178D02*
X45000Y-23121D01*
X45000Y-23025D01*
X44981Y-22987D01*
X44962Y-22968D01*
X44924Y-22949D01*
X44886Y-22949D01*
X44848Y-22968D01*
X44829Y-22987D01*
X44810Y-23025D01*
X44791Y-23102D01*
X44772Y-23140D01*
X44753Y-23159D01*
X44715Y-23178D01*
X44677Y-23178D01*
X44639Y-23159D01*
X44620Y-23140D01*
X44600Y-23102D01*
X44600Y-23006D01*
X44620Y-22949D01*
X44600Y-22816D02*
X45000Y-22721D01*
X44715Y-22645D01*
X45000Y-22568D01*
X44600Y-22473D01*
X45000Y-22111D02*
X45000Y-22340D01*
X45000Y-22225D02*
X44600Y-22225D01*
X44658Y-22264D01*
X44696Y-22302D01*
X44715Y-22340D01*
X44281Y-23949D02*
X44300Y-23892D01*
X44300Y-23797D01*
X44281Y-23759D01*
X44262Y-23740D01*
X44224Y-23721D01*
X44186Y-23721D01*
X44148Y-23740D01*
X44129Y-23759D01*
X44110Y-23797D01*
X44091Y-23873D01*
X44072Y-23911D01*
X44053Y-23930D01*
X44015Y-23949D01*
X43977Y-23949D01*
X43939Y-23930D01*
X43920Y-23911D01*
X43900Y-23873D01*
X43900Y-23778D01*
X43920Y-23721D01*
X43900Y-23587D02*
X44300Y-23492D01*
X44015Y-23416D01*
X44300Y-23340D01*
X43900Y-23245D01*
X44339Y-23187D02*
X44339Y-22883D01*
X44300Y-22787D02*
X43900Y-22787D01*
X43900Y-22635D01*
X43920Y-22597D01*
X43939Y-22578D01*
X43977Y-22559D01*
X44034Y-22559D01*
X44072Y-22578D01*
X44091Y-22597D01*
X44110Y-22635D01*
X44110Y-22787D01*
X43900Y-22387D02*
X44224Y-22387D01*
X44262Y-22368D01*
X44281Y-22349D01*
X44300Y-22311D01*
X44300Y-22235D01*
X44281Y-22197D01*
X44262Y-22178D01*
X44224Y-22159D01*
X43900Y-22159D01*
X44281Y-21987D02*
X44300Y-21930D01*
X44300Y-21835D01*
X44281Y-21797D01*
X44262Y-21778D01*
X44224Y-21759D01*
X44186Y-21759D01*
X44148Y-21778D01*
X44129Y-21797D01*
X44110Y-21835D01*
X44091Y-21911D01*
X44072Y-21949D01*
X44053Y-21968D01*
X44015Y-21987D01*
X43977Y-21987D01*
X43939Y-21968D01*
X43920Y-21949D01*
X43900Y-21911D01*
X43900Y-21816D01*
X43920Y-21759D01*
X44300Y-21587D02*
X43900Y-21587D01*
X44091Y-21587D02*
X44091Y-21359D01*
X44300Y-21359D02*
X43900Y-21359D01*
M02*
